<svg width="55" height="59" viewBox="0 0 55 59" fill="none" xmlns="http://www.w3.org/2000/svg">
<g clip-path="url(#clip0)">
<path d="M35.8 0H3.1C1.4 0 0 1.4 0 3.1V55.8C0 57.5 1.4 58.9 3.1 58.9H35.8C36 58.9 36.2 58.9 36.4 58.8H38.9V3.1C38.8 1.4 37.5 0 35.8 0ZM29.9 21.1C29.4 21.1 29.2 20.8 29.1 20.4C29.1 19.9 29.3 19.6 29.7 19.5C30.7 19.5 31.7 19.5 32.7 19.5C33.2 19.5 33.4 19.9 33.4 20.3C33.4 20.8 33.1 21.1 32.6 21.1C32.1 21.1 31.7 21.1 31.2 21.1C30.8 21.1 30.4 21.1 29.9 21.1ZM6.3 5.9C10.7 5.9 15 5.9 19.4 5.9C23.7 5.9 28 5.9 32.3 5.9C32.6 5.9 32.9 5.9 33.1 6.1C33.3 6.2 33.5 6.6 33.5 6.8C33.5 7 33.2 7.3 33 7.5C32.8 7.6 32.5 7.6 32.2 7.6C23.7 7.6 15.2 7.6 6.6 7.6H6.3C5.7 7.6 5.4 7.2 5.4 6.7C5.4 6.2 5.7 5.9 6.3 5.9ZM26.3 11C26.3 11.5 25.9 11.8 25.3 11.8C22.8 11.8 20.3 11.8 17.7 11.8C17.1 11.8 16.7 11.5 16.7 11C16.7 10.5 17 10.2 17.7 10.2C18.9 10.2 20.2 10.2 21.4 10.2C22.7 10.2 23.9 10.2 25.2 10.2C25.9 10.2 26.3 10.5 26.3 11ZM6.4 10.2C7.7 10.2 8.9 10.2 10.2 10.2C11.4 10.2 12.7 10.2 13.9 10.2C14.5 10.2 14.9 10.5 14.9 11C14.9 11.5 14.5 11.8 13.9 11.8C11.4 11.8 8.9 11.8 6.3 11.8C5.7 11.8 5.3 11.5 5.3 11C5.3 10.5 5.7 10.2 6.4 10.2ZM6.4 37.4C8.6 37.4 10.8 37.4 12.9 37.4C13.6 37.4 13.9 37.7 13.9 38.2C13.9 38.7 13.5 39 12.9 39C11.8 39 10.7 39 9.6 39C8.5 39 7.4 39 6.3 39C5.6 39 5.3 38.7 5.3 38.2C5.3 37.7 5.7 37.4 6.4 37.4ZM5.3 24.6C5.3 24.1 5.7 23.8 6.3 23.8H13.4C14 23.8 14.4 24.1 14.4 24.6C14.4 25.1 14 25.4 13.3 25.4C12.1 25.4 10.9 25.4 9.7 25.4C8.5 25.4 7.4 25.4 6.2 25.4C5.7 25.5 5.3 25.2 5.3 24.6ZM20.7 44C20.7 44.2 20.5 44.3 20.3 44.4C17.3 47.1 14.4 49.8 11.4 52.5C10.4 53.5 9.4 53.3 8.6 52.2C7.6 50.8 6.7 49.4 5.8 48C5.8 47.9 5.7 47.9 5.7 47.8C5.4 47.3 5.5 46.8 5.9 46.6C6.3 46.3 6.8 46.4 7.1 46.9C7.7 47.8 8.3 48.7 8.9 49.5C9.3 50.2 9.8 50.8 10.3 51.5C11.5 50.4 12.7 49.4 13.8 48.3C15.7 46.6 17.5 44.9 19.4 43.2C19.5 43.1 19.6 43 19.8 42.9C20.2 42.7 20.6 42.7 20.8 43.1C20.8 43.3 20.8 43.7 20.7 44ZM23.2 38.3C23.2 38.8 22.8 39.1 22.2 39.1C20 39.1 18.9 39.1 16.7 39.1C16.1 39.1 15.7 38.8 15.7 38.3C15.7 37.8 16.1 37.5 16.7 37.5C17.8 37.5 19 37.5 20.1 37.5C21.2 37.5 21.1 37.5 22.2 37.5C22.9 37.4 23.2 37.8 23.2 38.3ZM27.3 20.4C27.2 20.7 26.9 20.9 26.6 21.1C26.5 21.2 26.2 21.1 26 21.1H6.6C6.4 21.1 6.2 21.2 6 21.1C5.7 20.9 5.4 20.7 5.3 20.4C5.2 20 5.4 19.7 5.8 19.5C6 19.4 6.3 19.4 6.5 19.4H26C26.2 19.4 26.5 19.4 26.7 19.5C27.1 19.7 27.4 20 27.3 20.4Z" fill="#4A25AA"/>
<path d="M38.8001 31V28.3C36.9001 28.4 35.2001 28.9 33.6001 29.6C28.3001 32 24.6001 37.3 24.6001 43.5C24.6001 49.3 27.8001 54.4 32.6001 56.9C34.3001 57.8 36.1001 58.4 38.1001 58.6C38.4001 58.6 38.6001 58.7 38.9001 58.7V56C35.9001 55.7 33.2001 54.4 31.1001 52.4L30.9001 52.2C30.8001 52.1 30.6001 51.9 30.5001 51.7C30.4001 51.6 30.3001 51.4 30.1001 51.2C29.9001 51 29.7001 50.7 29.6001 50.5C29.5001 50.3 29.4001 50.2 29.3001 50C28.2001 48.1 27.5001 45.9 27.5001 43.5C27.5001 41.7 27.9001 39.9 28.6001 38.3C28.7001 38.1 28.8001 37.9 28.9001 37.8C29.0001 37.6 29.1001 37.4 29.2001 37.3C29.5001 36.8 29.8001 36.3 30.2001 35.8C30.3001 35.7 30.4001 35.5 30.6001 35.3C32.6001 33 35.5001 31.4 38.8001 31C38.9001 31 38.9001 31 38.8001 31ZM37.2001 25.4H38.8001V23.4H37.2001C36.5001 23.4 36.0001 23.8 36.0001 24.4C36.1001 25 36.5001 25.4 37.2001 25.4Z" fill="#26D07C"/>
<path d="M55 43.5C55 51.9 48.2 58.7 39.8 58.7C39.5 58.7 39.2 58.7 38.8 58.7V56C39.1 56 39.5001 56 39.9001 56H40.1C46.9 55.9 52.4001 50.4 52.4001 43.5C52.4001 36.7 46.9001 31.1 40.2001 31H39.6C39.3 31 39.1 31 38.8 31.1H38.9001H38.8V28.4H38.9001V25.5H38.8V23.5H42.6C43.3 23.5 43.8 23.9 43.8 24.5C43.8 25.1 43.4 25.5 42.6 25.5H40.9001V28.4C48.8001 28.9 55 35.5 55 43.5Z" fill="#83ECC3"/>
<path d="M38.9 31C38.7 31 38.6 31.1 38.5 31.1C38.4 31.1 38.3 31.1 38.2 31H38.9Z" fill="#26D07C"/>
<path d="M38.8 41.3V32.8C33.3 33.4 29.1 37.9 29 43.5C28.9 49.1 33.2 53.8 38.8 54.3V45.8C37.9 45.4 37.4 44.6 37.4 43.9C37.5 42.7 38 41.7 38.8 41.3ZM29.8 43.5C29.8 43.1 30.1 42.7 30.6 42.7C31 42.7 31.3 42.7 31.6 42.7H32.5C33 42.7 33.3 42.9 33.3 43.4C33.3 43.9 33.1 44.2 32.6 44.3C31.9 44.3 31.2 44.3 30.5 44.3C30 44.3 29.8 44 29.8 43.5ZM33.9 48C33.4 48.4 32.8 48.7 32.3 48.9C31.8 49.1 31.4 49 31.2 48.6C31 48.2 31.1 47.8 31.5 47.5C32 47.2 32.6 46.8 33.2 46.5C33.8 46.2 34.4 46.6 34.4 47.4C34.2 47.5 34.1 47.8 33.9 48ZM33.3 40.6C32.6 40.3 32 39.9 31.3 39.5C31 39.3 30.9 38.8 31.2 38.5C31.4 38.2 31.8 38 32.2 38.2C32.8 38.5 33.4 38.8 34 39.2C34.2 39.3 34.3 39.6 34.4 39.7C34.3 40.4 33.8 40.8 33.3 40.6ZM36.9 50.4C36.6 51 36.3 51.5 35.9 52C35.7 52.4 35.3 52.6 34.8 52.3C34.4 52.1 34.2 51.6 34.5 51.2C34.8 50.6 35.1 50.1 35.5 49.5C35.7 49.2 36.1 49 36.5 49.2C36.8 49.3 36.9 49.7 37.1 49.9C37 50.1 37 50.3 36.9 50.4ZM36.5 37.8C36.2 37.9 35.7 37.8 35.6 37.6C35.2 37 34.8 36.4 34.5 35.7C34.4 35.5 34.5 35 34.7 34.8C34.9 34.6 35.5 34.6 35.6 34.7C36.1 35.4 36.6 36.2 37.1 37C37 37.4 36.8 37.7 36.5 37.8Z" fill="#26D07C"/>
<path d="M40.2001 32.7C39.7001 32.7 39.3001 32.7 38.9001 32.8V41.3C39.3001 41.1 39.7001 41 40.2001 41H40.3C40.5 41 40.8001 40.9 40.9001 40.7C41.2001 40.4 41.4 40 41.6 39.6C41.9 39.2 42.4001 39.1 42.7001 39.3C43.1001 39.6 43.1001 40 42.9001 40.4C42.8001 40.5 42.8001 40.7 42.7001 40.8C42.2001 41.4 41.9 42 42.3 42.9C42.7 43.8 42.3 44.7 41.5 45.4C41.1 45.7 40.6 45.9 40.1 46C39.7 46 39.3 46 38.8 45.7V54.2C39.1 54.2 39.5 54.3 39.8 54.3H40.1C45.9 54.2 50.7001 49.5 50.7001 43.6C50.8001 37.7 46.1001 32.7 40.2001 32.7ZM40.8 35.2V35.7C40.8 35.9 40.8 36 40.8 36.2C40.8 36.6 40.6001 36.9 40.2001 37C40.1001 37 40.1 37 40 37C39.6 37 39.2001 36.8 39.2001 36.3C39.2001 35.6 39.1001 34.8 39.2001 34.1C39.2001 33.6 39.6 33.4 40.1 33.5H40.2001C40.6001 33.6 40.8 33.8 40.8 34.3C40.8 34.5 40.8 34.9 40.8 35.2ZM40.7001 52.9C40.7001 53.3 40.5 53.6 40.1 53.7C40 53.7 40.0001 53.7 39.9001 53.7C39.5001 53.7 39.1 53.5 39.1 53.1C39.1 52.3 39.1 51.6 39.1 50.8C39.1 50.4 39.5001 50.2 39.9001 50.2H40C40.4 50.3 40.6 50.5 40.6 50.9C40.6 51.3 40.6 51.6 40.6 51.9C40.8 52.3 40.8001 52.6 40.7001 52.9ZM45.9001 39.2C46.5001 38.7 47.2001 38.4 47.9001 38.1C48.1001 38 48.6 38.2 48.7001 38.4C48.8001 38.6 48.9001 39.2 48.7001 39.3C48.0001 39.9 47.2001 40.3 46.4001 40.8C46.1001 40.5 45.7001 40.4 45.7001 40.1C45.6001 39.9 45.7001 39.4 45.9001 39.2ZM42.9001 36.8C43.2001 36.2 43.6 35.6 44 35C44.1 34.8 44.4 34.8 44.5 34.7C45.2 34.7 45.6 35.3 45.3 35.8C45 36.4 44.7 37 44.3 37.6C44.1 38 43.6001 38 43.2001 37.8C42.8001 37.6 42.7001 37.2 42.9001 36.8ZM45 52.4C44.5 52.6 44.2001 52.5 43.9001 52.1C43.6001 51.6 43.2 51 43 50.5C42.7 49.9 43.1001 49.3 43.9001 49.3C44.0001 49.4 44.3001 49.5 44.4001 49.7C44.8001 50.2 45.1001 50.8 45.4001 51.4C45.6001 51.7 45.4 52.1 45 52.4ZM47.7001 49C47.1 48.7 46.5001 48.3 45.9001 48C45.5001 47.8 45.5001 47.3 45.7001 46.9C45.9001 46.5 46.3001 46.3 46.7001 46.6C47.3001 46.9 47.9 47.3 48.5 47.6C48.7 47.7 48.8 48 48.8 48.1C48.8 48.8 48.3001 49.2 47.7001 49ZM49.4001 44.3C48.7001 44.3 48 44.3 47.3 44.3C46.8 44.3 46.6 43.9 46.6 43.5C46.6 43.1 46.9001 42.7 47.4001 42.7C47.7001 42.7 48.1001 42.7 48.4001 42.7H49.3C49.8 42.7 50.1 42.9 50.1 43.4C50.1 44 49.9001 44.3 49.4001 44.3Z" fill="#83ECC3"/>
<path d="M40.7999 43.6C40.7999 44 40.5 44.3 40.2 44.4C40.1 44.4 40 44.4 40 44.4C39.5 44.4 39.2 44 39.2 43.5C39.2 43 39.5999 42.7 40.0999 42.7C40.1999 42.7 40.1999 42.7 40.2999 42.7C40.4999 42.8 40.7999 43.2 40.7999 43.6Z" fill="#83ECC3"/>
</g>
<defs>
<clipPath id="clip0">
<rect width="55" height="58.8" fill="white"/>
</clipPath>
</defs>
</svg>
