<svg width="62" height="59" viewBox="0 0 62 59" fill="none" xmlns="http://www.w3.org/2000/svg">
<g clip-path="url(#clip0)">
<rect width="61.2" height="59" fill="white"/>
<path d="M33.9 28.1C33.7 28.2 33.5 28.4 33.3 28.5C32.7 28.9 32.2 29.4 31.7 30C31.5 30.2 31.4 30.4 31.2 30.5C31 30.7 30.9 30.9 30.7 31.1C29.4 32.8 28.5 34.7 27.9 36.9C27.2 39.7 27.4 42.6 28.2 45.1C28.3 45.3 28.4 45.6 28.4 45.8C28.5 46.1 28.7 46.5 28.8 46.8C28.9 47 29 47.2 29.1 47.5C29.2 47.7 29.3 47.9 29.5 48.1L29.7 48.4C31.5 51.4 34.3 53.7 37.9 54.9C38.2 55 38.5 55.1 38.8 55.2V53.1C38.6 53.1 38.5 53 38.4 53C32 50.8 28.2 44 29.9 37.4C31.1 32.7 34.5 29.2 38.8 27.9V25.8C37.1 26.3 35.4 27.1 33.9 28.1ZM38.8 31V29C38.6 29.2 38.5 29.5 38.5 29.7C38.6 30.2 38.7 30.6 38.8 31ZM35.7 49.5C36.3 49 36.8 48.4 37.3 47.8C37.4 47.7 37.5 47.5 37.7 47.3C37.5 47 37.4 46.6 37.2 46.3C36.8 46 36.3 46 36 46.4C35.4 46.9 34.9 47.5 34.4 48.1C34 48.6 34 49.2 34.5 49.5C34.8 50 35.3 49.9 35.7 49.5ZM35.7 35.2C36.2 35.6 37 35.2 37.2 34.4C37.1 34.3 37.1 33.9 36.9 33.7C36.3 33.1 35.7 32.5 35.1 32C34.7 31.6 34.2 31.7 33.8 32.1C33.4 32.4 33.3 32.9 33.6 33.3C34.3 33.9 35 34.6 35.7 35.2ZM32.2 44.7C32.9 44.5 33.7 44.3 34.4 44.1C34.7 44 34.9 43.7 35 43.6C35.2 42.7 34.6 42 33.9 42.2C33.1 42.4 32.4 42.6 31.6 42.9C31 43.1 30.7 43.6 30.9 44.1C31.1 44.6 31.5 44.9 32.2 44.7ZM31.9 36.9C31.3 36.8 30.9 37.1 30.8 37.6C30.7 38.1 30.8 38.6 31.4 38.8C32.2 39 33.1 39.3 33.9 39.4C34.5 39.5 34.9 39.1 35 38.5C35.1 37.9 34.8 37.6 34.2 37.4L33.1 37.1C32.7 37.1 32.3 37 31.9 36.9ZM38.8 22.3V3.1C38.8 1.4 37.4 0 35.7 0H3.1C1.4 0 0 1.4 0 3.1V55.8C0 57.5 1.4 58.9 3.1 58.9H35.8C36 58.9 36.2 58.9 36.4 58.8H38.9V58.7C38.7 58.7 38.5 58.6 38.3 58.6C37.9 58.5 37.5 58.4 37.2 58.3C36.9 58.2 36.6 58.1 36.3 58C34.1 57.2 32 56 30.3 54.4C25.3 50 22.9 43.1 24.6 36.2C26.3 28.9 32 23.7 38.8 22.3ZM32.6 21.1C32.1 21.1 31.7 21.1 31.2 21.1C30.8 21.1 30.3 21.1 29.9 21.1C29.4 21.1 29.2 20.8 29.1 20.4C29.1 19.9 29.3 19.6 29.7 19.5C30.7 19.5 31.7 19.5 32.7 19.5C33.2 19.5 33.4 19.9 33.4 20.3C33.4 20.8 33.1 21.1 32.6 21.1ZM6.3 5.9C10.7 5.9 15 5.9 19.4 5.9C23.7 5.9 28 5.9 32.3 5.9C32.6 5.9 32.9 5.9 33.1 6.1C33.3 6.2 33.5 6.6 33.5 6.8C33.5 7 33.2 7.3 33 7.5C32.8 7.6 32.5 7.6 32.2 7.6C23.7 7.6 15.2 7.6 6.6 7.6H6.3C5.7 7.6 5.4 7.2 5.4 6.7C5.4 6.2 5.7 5.9 6.3 5.9ZM26.3 11C26.3 11.5 25.9 11.8 25.3 11.8C22.8 11.8 20.3 11.8 17.7 11.8C17.1 11.8 16.7 11.5 16.7 11C16.7 10.5 17 10.2 17.7 10.2C18.9 10.2 20.2 10.2 21.4 10.2C22.7 10.2 23.9 10.2 25.2 10.2C25.9 10.2 26.3 10.5 26.3 11ZM6.4 10.2C7.7 10.2 8.9 10.2 10.2 10.2C11.4 10.2 12.7 10.2 13.9 10.2C14.5 10.2 14.9 10.5 14.9 11C14.9 11.5 14.5 11.8 13.9 11.8C11.4 11.8 8.9 11.8 6.3 11.8C5.7 11.8 5.3 11.5 5.3 11C5.3 10.5 5.7 10.2 6.4 10.2ZM6.4 37.4C8.6 37.4 10.8 37.4 12.9 37.4C13.6 37.4 13.9 37.7 13.9 38.2C13.9 38.7 13.5 39 12.9 39C11.8 39 10.7 39 9.6 39C8.5 39 7.4 39 6.3 39C5.6 39 5.3 38.7 5.3 38.2C5.3 37.7 5.7 37.4 6.4 37.4ZM5.3 24.6C5.3 24.1 5.7 23.8 6.3 23.8H13.4C14 23.8 14.4 24.1 14.4 24.6C14.4 25.1 14 25.4 13.3 25.4C12.1 25.4 10.9 25.4 9.7 25.4C8.5 25.4 7.4 25.4 6.2 25.4C5.7 25.5 5.3 25.2 5.3 24.6ZM20.7 44C20.7 44.2 20.5 44.3 20.3 44.4C17.3 47.1 14.4 49.8 11.4 52.5C10.4 53.5 9.4 53.3 8.6 52.2C7.6 50.8 6.7 49.4 5.8 48C5.8 47.9 5.7 47.9 5.7 47.8C5.4 47.3 5.5 46.8 5.9 46.6C6.3 46.3 6.8 46.4 7.1 46.9C7.7 47.8 8.3 48.7 8.9 49.5C9.3 50.2 9.8 50.8 10.3 51.5C11.5 50.4 12.7 49.4 13.8 48.3C15.7 46.6 17.5 44.9 19.4 43.2C19.5 43.1 19.6 43 19.8 42.9C20.2 42.7 20.6 42.7 20.8 43.1C20.8 43.3 20.8 43.7 20.7 44ZM23.2 38.3C23.2 38.8 22.8 39.1 22.2 39.1C20 39.1 18.9 39.1 16.7 39.1C16.1 39.1 15.7 38.8 15.7 38.3C15.7 37.8 16.1 37.5 16.7 37.5C17.8 37.5 19 37.5 20.1 37.5C21.2 37.5 21.1 37.5 22.2 37.5C22.9 37.4 23.2 37.8 23.2 38.3ZM6.6 21.1C6.4 21.1 6.2 21.2 6 21.1C5.7 20.9 5.4 20.7 5.3 20.4C5.2 20 5.4 19.7 5.8 19.5C6 19.4 6.3 19.4 6.5 19.4H26C26.2 19.4 26.5 19.4 26.7 19.5C27.1 19.6 27.3 20 27.2 20.3C27.1 20.6 26.8 20.8 26.5 21C26.4 21.1 26.1 21 25.9 21H6.6V21.1Z" fill="#0E0675"/>
<path d="M45 25.4L44.4 25.2C44.5 25.3 44.6 25.3 44.7 25.3C44.8 25.4 44.9 25.4 45 25.4C45 25.4 45.1 25.4 45 25.4ZM45.3 15.9C44.5 15.7 43.8 16.1 43.6 16.8C43.4 17.5 43.9 18.1 44.7 18.3L46.6 18.8L47.2 16.4L45.3 15.9Z" fill="#26D07C"/>
<path d="M28 37C27.3 39.8 27.5 42.7 28.3 45.2C28.4 45.4 28.5 45.7 28.5 45.9C28.6 46.2 28.8 46.6 28.9 46.9C29 47.1 29.1 47.3 29.2 47.6C29.3 47.8 29.4 48 29.6 48.2L29.8 48.5C31.6 51.5 34.4 53.8 38 55C38.3 55.1 38.6 55.2 38.9 55.3V58.7C38.7 58.7 38.5 58.6 38.3 58.6C37.9 58.5 37.5 58.4 37.2 58.3C36.9 58.2 36.6 58.1 36.3 58C34.1 57.2 32 56 30.3 54.4C25.3 50 22.9 43.1 24.6 36.2C26.3 29 32.1 23.7 38.9 22.3V25.8C37.1 26.3 35.4 27.1 34 28.1C33.8 28.2 33.6 28.4 33.4 28.5C32.8 28.9 32.3 29.4 31.8 30C31.6 30.2 31.5 30.4 31.3 30.5C31.1 30.7 31 30.9 30.8 31.1C29.4 32.8 28.5 34.8 28 37Z" fill="#83ECC3"/>
<path d="M48.2 22.8L49 19.4L51 19.9C51.9 20.1 52.5 19.8 52.7 19.1C52.9 18.3 52.4999 17.7 51.5999 17.5L47.0999 16.4L46.5 18.8H46.5999L45.7999 22.2H45.7C43.5 21.8 41.1999 21.8 39.0999 22.2C38.9999 22.2 38.8999 22.2 38.7999 22.3V25.8C40.6999 25.3 42.8 25.1 44.9 25.4C45.2 25.4 45.4999 25.5 45.7999 25.6L46.5 25.8C54.5 27.9 59.4 36.1 57.4 44.1C55.4 52.2 47.4 57.2 39.2999 55.4L39 55.3C38.9 55.3 38.8 55.2 38.7 55.2V58.6C48.5 60.6 58.2 54.5 60.5 44.7C62.9 35.2 57.4 25.7 48.2 22.8ZM45 25.4C44.9 25.4 44.8 25.4 44.7 25.4C44.6 25.4 44.5 25.3 44.4 25.3L45 25.4H45.0999H45Z" fill="#26D07C"/>
<path d="M45.0999 25.4H44.9999C44.8999 25.4 44.7999 25.4 44.6999 25.4C44.5999 25.4 44.4999 25.3 44.3999 25.3L45.0999 25.4Z" fill="#26D07C"/>
<path d="M38.7999 27.9C34.4999 29.2 31.0999 32.6 29.8999 37.4C28.1999 44 31.9999 50.8 38.3999 53C38.4999 53 38.6999 53.1 38.7999 53.1V31C38.6999 30.6 38.5999 30.2 38.4999 29.8C38.4999 29.6 38.5999 29.3 38.7999 29.1V27.9ZM33.7999 32C34.1999 31.7 34.5999 31.6 35.0999 31.9C35.6999 32.4 36.2999 33 36.8999 33.6C37.0999 33.8 37.0999 34.2 37.1999 34.3C36.9999 35.2 36.1999 35.5 35.6999 35.1C34.9999 34.5 34.2999 33.9 33.6999 33.2C33.2999 32.8 33.3999 32.3 33.7999 32ZM30.6999 37.6C30.8999 37.1 31.1999 36.8 31.7999 36.9C32.1999 37 32.5999 37.1 32.9999 37.2L34.0999 37.5C34.6999 37.7 34.8999 38 34.8999 38.6C34.7999 39.2 34.4999 39.6 33.7999 39.5C32.9999 39.3 32.0999 39.1 31.2999 38.9C30.7999 38.6 30.5999 38.2 30.6999 37.6ZM32.1999 44.7C31.5999 44.9 31.0999 44.6 30.8999 44C30.6999 43.4 30.9999 43 31.5999 42.8C32.3999 42.6 33.0999 42.3 33.8999 42.1C34.5999 41.9 35.1999 42.6 34.9999 43.5C34.8999 43.6 34.6999 43.9 34.3999 44C33.6999 44.3 32.8999 44.5 32.1999 44.7ZM37.2999 47.8C36.7999 48.4 36.2999 49 35.6999 49.5C35.2999 49.9 34.7999 50 34.2999 49.6C33.7999 49.2 33.7999 48.6 34.1999 48.2C34.6999 47.6 35.2999 47 35.7999 46.5C36.1999 46.1 36.6999 46.1 36.9999 46.4C37.2999 46.6 37.3999 47.1 37.4999 47.4C37.4999 47.5 37.3999 47.7 37.2999 47.8Z" fill="#83ECC3"/>
<path d="M46.1 27.8C45.5 27.7 45 27.6 44.5 27.5C42.5 27.3 40.6 27.4 38.8 28V29C38.9 28.9 39 28.8 39.1 28.8C39.4 28.7 40.1001 28.8 40.2001 29C40.7001 30 41 31 41.3 32.1C40.9 32.4 40.6 32.8 40.3 32.8C40 32.8 39.4 32.6 39.3 32.3C39.1 31.9 38.9 31.4 38.8 31V53.2C39.1 53.3 39.3 53.4 39.6 53.4L39.9001 53.5C46.8001 55 53.8 50.8 55.5 43.9C57.3 36.7 53.1 29.5 46.1 27.8ZM53.7001 36.3C54.0001 36.3 54.5 36.6 54.6 36.9C54.7 37.2 54.6001 37.9 54.4001 37.9C53.4001 38.4 52.3001 38.7 51.2001 39.1C50.9001 38.7 50.5 38.4 50.6 38.1C50.6 37.7 50.8 37.2 51.1 37.1C51.8 36.8 52.7001 36.5 53.7001 36.3ZM44.5 29.1C44.7 28.6 45.2001 28.4 45.7001 28.6C45.8001 28.6 45.8 28.6 45.8 28.7C46.2 28.9 46.4 29.3 46.3 29.8C46.2 30.2 46.1 30.6 46 30.9V31.4C46 31.6 45.9001 31.8 45.9001 32C45.8001 32.5 45.4 32.7 45 32.7C44.9 32.7 44.9 32.7 44.8 32.7C44.3 32.6 43.9 32.2 44 31.7C44 30.8 44.2 29.9 44.5 29.1ZM41.6 49.5C41.5 49.9 41.4 50.3 41.3 50.7C41.2 51.1 41.1 51.5 41 51.8C40.9 52.3 40.5 52.5 40.1 52.5C40 52.5 40.0001 52.5 39.9001 52.5C39.4001 52.4 39 52 39.1 51.5C39.2 50.6 39.5001 49.7 39.7001 48.8C39.9001 48.3 40.4001 48.2 40.9001 48.3C41.0001 48.3 41 48.3 41.1 48.4C41.5 48.7 41.7 49 41.6 49.5ZM46.2001 52.4C45.6001 52.5 45.2 52.2 45 51.7C44.8 51 44.5001 50.2 44.4001 49.5C44.2001 48.7 44.8 48.1 45.8 48.3C45.9 48.4 46.2 48.6 46.3 48.9C46.6 49.6 46.8 50.4 47 51.2C47.1 51.8 46.8001 52.3 46.2001 52.4ZM47.2001 37.8C47.1 37.9 47 38.1 46.8 38.2C46.1 38.8 45.5001 39.4 45.7001 40.6C45.9001 41.8 45.1 42.8 44 43.3C43.4 43.6 42.8001 43.7 42.2001 43.6C41.7001 43.5 41.2 43.3 40.8 42.9C39.8 42.1 39.5001 41.1 39.7001 40.3C40.0001 38.8 41 37.9 42.1 37.7C42.6 37.6 43.2001 37.6 43.7001 37.7H43.8C44 37.8 44.4 37.7 44.6 37.5C45 37.2 45.4 36.7 45.8 36.4C46.3 36 46.9001 36 47.2001 36.4C47.6 36.9 47.5001 37.4 47.2001 37.8ZM48.2001 33.4C48.7001 32.7 49.4 32.1 50 31.5C50.2 31.3 50.6 31.3 50.7001 31.3C51.5001 31.5 51.9001 32.3 51.4001 32.9C50.9001 33.6 50.3001 34.1 49.7001 34.7C49.3001 35.1 48.8001 35 48.4001 34.7C47.9001 34.3 47.9001 33.8 48.2001 33.4ZM50.4001 49.1C49.8001 48.6 49.2 48 48.6 47.4C48.2 47 48.3 46.5 48.6 46.1C49 45.7 49.5001 45.6 49.9001 46C50.5001 46.5 51.1 47.1 51.7001 47.7C51.9001 47.9 51.9001 48.2 51.9001 48.4C51.8001 49.3 51.0001 49.6 50.4001 49.1ZM53.7001 44.1C52.9001 43.9 52.0001 43.7 51.2001 43.5C50.6 43.3 50.4 42.9 50.6 42.3C50.8 41.8 51.2001 41.5 51.7001 41.6C52.1 41.7 52.5001 41.8 52.9001 41.9L54 42.2C54.5 42.3 54.8001 42.7 54.7001 43.3C54.7001 43.9 54.3001 44.2 53.7001 44.1Z" fill="#26D07C"/>
<path d="M43.8 40.8C43.7 41.2 43.3 41.5 42.8 41.5C42.7 41.5 42.6 41.5 42.5 41.5C41.9 41.3 41.6 40.8 41.8 40.3C41.9 39.7 42.5 39.4 43 39.6C43.1 39.6 43.1 39.6 43.2 39.7C43.6 39.8 43.9 40.3 43.8 40.8Z" fill="#26D07C"/>
</g>
<defs>
<clipPath id="clip0">
<rect width="61.2" height="59" fill="white"/>
</clipPath>
</defs>
</svg>
