<svg width="56" height="59" viewBox="0 0 56 59" fill="none" xmlns="http://www.w3.org/2000/svg">
<g clip-path="url(#clip0)">
<path d="M18.4999 51.8C18.4999 52.5 17.8999 53.2 17.1999 53.2C16.4999 53.2 15.8999 52.6 15.8999 51.8C15.8999 51 16.4999 50.5 17.1999 50.5C17.8999 50.4 18.4999 51 18.4999 51.8Z" fill="#4A25AA"/>
<path d="M20.7001 51.7C20.7001 53.6 19.1001 55.3 17.1001 55.3C15.1001 55.3 13.6001 53.7 13.6001 51.7C13.6001 49.7 15.2001 48.1 17.2001 48.2C19.0001 48.3 20.7001 49.8 20.7001 51.7Z" fill="#4A25AA"/>
<path d="M16.1 24.3C15.2 24.4 14.5 24.9 13.8 25.5C13.1 26.1 12.6 26.1 11.8 25.5C11.2 25.1 10.6 24.6 9.9 24.4C8.1 23.9 6.6 25.2 6.8 27.1C6.9 28.1 7.5 28.8 8.1 29.5C9.2 30.6 10.3 31.7 11.3 32.8C11.7 33.2 12.1 33.7 12.5 34.1C14.3 32.3 16 30.8 17.6 29.1C18.1 28.6 18.4 28 18.6 27.3C19.2 25.6 17.9 24.1 16.1 24.3ZM16.1 24.3C15.2 24.4 14.5 24.9 13.8 25.5C13.1 26.1 12.6 26.1 11.8 25.5C11.2 25.1 10.6 24.6 9.9 24.4C8.1 23.9 6.6 25.2 6.8 27.1C6.9 28.1 7.5 28.8 8.1 29.5C9.2 30.6 10.3 31.7 11.3 32.8C11.7 33.2 12.1 33.7 12.5 34.1C14.3 32.3 16 30.8 17.6 29.1C18.1 28.6 18.4 28 18.6 27.3C19.2 25.6 17.9 24.1 16.1 24.3ZM16.1 24.3C15.2 24.4 14.5 24.9 13.8 25.5C13.1 26.1 12.6 26.1 11.8 25.5C11.2 25.1 10.6 24.6 9.9 24.4C8.1 23.9 6.6 25.2 6.8 27.1C6.9 28.1 7.5 28.8 8.1 29.5C9.2 30.6 10.3 31.7 11.3 32.8C11.7 33.2 12.1 33.7 12.5 34.1C14.3 32.3 16 30.8 17.6 29.1C18.1 28.6 18.4 28 18.6 27.3C19.2 25.6 17.9 24.1 16.1 24.3ZM16.1 24.3C15.2 24.4 14.5 24.9 13.8 25.5C13.1 26.1 12.6 26.1 11.8 25.5C11.2 25.1 10.6 24.6 9.9 24.4C8.1 23.9 6.6 25.2 6.8 27.1C6.9 28.1 7.5 28.8 8.1 29.5C9.2 30.6 10.3 31.7 11.3 32.8C11.7 33.2 12.1 33.7 12.5 34.1C14.3 32.3 16 30.8 17.6 29.1C18.1 28.6 18.4 28 18.6 27.3C19.2 25.6 17.9 24.1 16.1 24.3ZM16.1 24.3C15.2 24.4 14.5 24.9 13.8 25.5C13.1 26.1 12.6 26.1 11.8 25.5C11.2 25.1 10.6 24.6 9.9 24.4C8.1 23.9 6.6 25.2 6.8 27.1C6.9 28.1 7.5 28.8 8.1 29.5C9.2 30.6 10.3 31.7 11.3 32.8C11.7 33.2 12.1 33.7 12.5 34.1C14.3 32.3 16 30.8 17.6 29.1C18.1 28.6 18.4 28 18.6 27.3C19.2 25.6 17.9 24.1 16.1 24.3ZM16.1 24.3C15.2 24.4 14.5 24.9 13.8 25.5C13.1 26.1 12.6 26.1 11.8 25.5C11.2 25.1 10.6 24.6 9.9 24.4C8.1 23.9 6.6 25.2 6.8 27.1C6.9 28.1 7.5 28.8 8.1 29.5C9.2 30.6 10.3 31.7 11.3 32.8C11.7 33.2 12.1 33.7 12.5 34.1C14.3 32.3 16 30.8 17.6 29.1C18.1 28.6 18.4 28 18.6 27.3C19.2 25.6 17.9 24.1 16.1 24.3ZM16.1 24.3C15.2 24.4 14.5 24.9 13.8 25.5C13.1 26.1 12.6 26.1 11.8 25.5C11.2 25.1 10.6 24.6 9.9 24.4C8.1 23.9 6.6 25.2 6.8 27.1C6.9 28.1 7.5 28.8 8.1 29.5C9.2 30.6 10.3 31.7 11.3 32.8C11.7 33.2 12.1 33.7 12.5 34.1C14.3 32.3 16 30.8 17.6 29.1C18.1 28.6 18.4 28 18.6 27.3C19.2 25.6 17.9 24.1 16.1 24.3ZM16.1 24.3C15.2 24.4 14.5 24.9 13.8 25.5C13.1 26.1 12.6 26.1 11.8 25.5C11.2 25.1 10.6 24.6 9.9 24.4C8.1 23.9 6.6 25.2 6.8 27.1C6.9 28.1 7.5 28.8 8.1 29.5C9.2 30.6 10.3 31.7 11.3 32.8C11.7 33.2 12.1 33.7 12.5 34.1C14.3 32.3 16 30.8 17.6 29.1C18.1 28.6 18.4 28 18.6 27.3C19.2 25.6 17.9 24.1 16.1 24.3ZM16.1 24.3C15.2 24.4 14.5 24.9 13.8 25.5C13.1 26.1 12.6 26.1 11.8 25.5C11.2 25.1 10.6 24.6 9.9 24.4C8.1 23.9 6.6 25.2 6.8 27.1C6.9 28.1 7.5 28.8 8.1 29.5C9.2 30.6 10.3 31.7 11.3 32.8C11.7 33.2 12.1 33.7 12.5 34.1C14.3 32.3 16 30.8 17.6 29.1C18.1 28.6 18.4 28 18.6 27.3C19.2 25.6 17.9 24.1 16.1 24.3ZM16.1 24.3C15.2 24.4 14.5 24.9 13.8 25.5C13.1 26.1 12.6 26.1 11.8 25.5C11.2 25.1 10.6 24.6 9.9 24.4C8.1 23.9 6.6 25.2 6.8 27.1C6.9 28.1 7.5 28.8 8.1 29.5C9.2 30.6 10.3 31.7 11.3 32.8C11.7 33.2 12.1 33.7 12.5 34.1C14.3 32.3 16 30.8 17.6 29.1C18.1 28.6 18.4 28 18.6 27.3C19.2 25.6 17.9 24.1 16.1 24.3ZM16.1 24.3C15.2 24.4 14.5 24.9 13.8 25.5C13.1 26.1 12.6 26.1 11.8 25.5C11.2 25.1 10.6 24.6 9.9 24.4C8.1 23.9 6.6 25.2 6.8 27.1C6.9 28.1 7.5 28.8 8.1 29.5C9.2 30.6 10.3 31.7 11.3 32.8C11.7 33.2 12.1 33.7 12.5 34.1C14.3 32.3 16 30.8 17.6 29.1C18.1 28.6 18.4 28 18.6 27.3C19.2 25.6 17.9 24.1 16.1 24.3ZM16.1 24.3C15.2 24.4 14.5 24.9 13.8 25.5C13.1 26.1 12.6 26.1 11.8 25.5C11.2 25.1 10.6 24.6 9.9 24.4C8.1 23.9 6.6 25.2 6.8 27.1C6.9 28.1 7.5 28.8 8.1 29.5C9.2 30.6 10.3 31.7 11.3 32.8C11.7 33.2 12.1 33.7 12.5 34.1C14.3 32.3 16 30.8 17.6 29.1C18.1 28.6 18.4 28 18.6 27.3C19.2 25.6 17.9 24.1 16.1 24.3ZM16.1 24.3C15.2 24.4 14.5 24.9 13.8 25.5C13.1 26.1 12.6 26.1 11.8 25.5C11.2 25.1 10.6 24.6 9.9 24.4C8.1 23.9 6.6 25.2 6.8 27.1C6.9 28.1 7.5 28.8 8.1 29.5C9.2 30.6 10.3 31.7 11.3 32.8C11.7 33.2 12.1 33.7 12.5 34.1C14.3 32.3 16 30.8 17.6 29.1C18.1 28.6 18.4 28 18.6 27.3C19.2 25.6 17.9 24.1 16.1 24.3ZM33.9 42.3V39.5V42.3ZM33.9 28.3C33.9 29.8 33.9 31.5 33.9 33.3V33.5V28.3ZM33.9 26.5V23.9C33.9 23.9 33.9 24.9 33.9 26.5ZM33.9 47.8V48C33.9 49.7 33.9 50.8 33.9 50.9V47.8ZM16.1 24.3C15.2 24.4 14.5 24.9 13.8 25.5C13.1 26.1 12.6 26.1 11.8 25.5C11.2 25.1 10.6 24.6 9.9 24.4C8.1 23.9 6.6 25.2 6.8 27.1C6.9 28.1 7.5 28.8 8.1 29.5C9.2 30.6 10.3 31.7 11.3 32.8C11.7 33.2 12.1 33.7 12.5 34.1C14.3 32.3 16 30.8 17.6 29.1C18.1 28.6 18.4 28 18.6 27.3C19.2 25.6 17.9 24.1 16.1 24.3ZM16.1 24.3C15.2 24.4 14.5 24.9 13.8 25.5C13.1 26.1 12.6 26.1 11.8 25.5C11.2 25.1 10.6 24.6 9.9 24.4C8.1 23.9 6.6 25.2 6.8 27.1C6.9 28.1 7.5 28.8 8.1 29.5C9.2 30.6 10.3 31.7 11.3 32.8C11.7 33.2 12.1 33.7 12.5 34.1C14.3 32.3 16 30.8 17.6 29.1C18.1 28.6 18.4 28 18.6 27.3C19.2 25.6 17.9 24.1 16.1 24.3ZM16.1 24.3C15.2 24.4 14.5 24.9 13.8 25.5C13.1 26.1 12.6 26.1 11.8 25.5C11.2 25.1 10.6 24.6 9.9 24.4C8.1 23.9 6.6 25.2 6.8 27.1C6.9 28.1 7.5 28.8 8.1 29.5C9.2 30.6 10.3 31.7 11.3 32.8C11.7 33.2 12.1 33.7 12.5 34.1C14.3 32.3 16 30.8 17.6 29.1C18.1 28.6 18.4 28 18.6 27.3C19.2 25.6 17.9 24.1 16.1 24.3ZM16.1 24.3C15.2 24.4 14.5 24.9 13.8 25.5C13.1 26.1 12.6 26.1 11.8 25.5C11.2 25.1 10.6 24.6 9.9 24.4C8.1 23.9 6.6 25.2 6.8 27.1C6.9 28.1 7.5 28.8 8.1 29.5C9.2 30.6 10.3 31.7 11.3 32.8C11.7 33.2 12.1 33.7 12.5 34.1C14.3 32.3 16 30.8 17.6 29.1C18.1 28.6 18.4 28 18.6 27.3C19.2 25.6 17.9 24.1 16.1 24.3ZM16.1 24.3C15.2 24.4 14.5 24.9 13.8 25.5C13.1 26.1 12.6 26.1 11.8 25.5C11.2 25.1 10.6 24.6 9.9 24.4C8.1 23.9 6.6 25.2 6.8 27.1C6.9 28.1 7.5 28.8 8.1 29.5C9.2 30.6 10.3 31.7 11.3 32.8C11.7 33.2 12.1 33.7 12.5 34.1C14.3 32.3 16 30.8 17.6 29.1C18.1 28.6 18.4 28 18.6 27.3C19.2 25.6 17.9 24.1 16.1 24.3ZM16.1 24.3C15.2 24.4 14.5 24.9 13.8 25.5C13.1 26.1 12.6 26.1 11.8 25.5C11.2 25.1 10.6 24.6 9.9 24.4C8.1 23.9 6.6 25.2 6.8 27.1C6.9 28.1 7.5 28.8 8.1 29.5C9.2 30.6 10.3 31.7 11.3 32.8C11.7 33.2 12.1 33.7 12.5 34.1C14.3 32.3 16 30.8 17.6 29.1C18.1 28.6 18.4 28 18.6 27.3C19.2 25.6 17.9 24.1 16.1 24.3ZM16.1 24.3C15.2 24.4 14.5 24.9 13.8 25.5C13.1 26.1 12.6 26.1 11.8 25.5C11.2 25.1 10.6 24.6 9.9 24.4C8.1 23.9 6.6 25.2 6.8 27.1C6.9 28.1 7.5 28.8 8.1 29.5C9.2 30.6 10.3 31.7 11.3 32.8C11.7 33.2 12.1 33.7 12.5 34.1C14.3 32.3 16 30.8 17.6 29.1C18.1 28.6 18.4 28 18.6 27.3C19.2 25.6 17.9 24.1 16.1 24.3ZM31.3 0H2.7C1.2 0 0 1.4 0 3.1V55.8C0 57.5 1.2 58.9 2.7 58.9H31.3C31.5 58.9 34 57.9 34 56.7V50.9L33.9 50.8L29 44.6C28.8 44.3 28.8 44.1 28.6 44C27.3 41.9 26.1 39.8 24.8 37.7C23.2 35.1 24.8 32.3 26.8 31.4C27 31.3 27.2 31.2 27.5 31.1C27.4 30.8 27.3 30.6 27.2 30.4C26.3 28.4 25.3 26.5 24.4 24.5C23.6 22.8 24.4 20.7 26 19.9C27.7 19.1 29.8 19.7 30.7 21.4C31.1 22.1 31.4 22.8 31.8 23.6C31.9 23.7 33 26.1 33 26.2C33.1 26.2 32.1 24.4 33.9 23.8H34V3.1C33.9 1.4 32.7 0 31.3 0ZM29.6 46.9C30 46.9 30.4 47 30.6 47.4C30.7 47.7 30.9 48 31.2 48.2C31.9 48.8 32 49.5 31.9 50.4C31.9 51.6 31.9 52.8 31.9 54C31.9 55.6 30.9 56.6 29.4 56.6C21.2 56.6 12.9 56.6 4.7 56.6C3.1 56.6 2.2 55.7 2.2 54.1C2.2 51.7 2.2 49.4 2.2 46.9H3C11.7 46.9 20.7 46.9 29.6 46.9ZM4.6 26.7C4.6 23.4 7.7 21.3 10.9 22.4C11.4 22.6 11.8 22.8 12.2 23.1C12.7 23.4 13 23.4 13.4 23.1C14.7 22.2 16.2 21.9 17.7 22.3C20.5 23.1 21.8 26.2 20.4 29C20 29.8 19.5 30.5 18.9 31.1C17.2 32.9 15.5 34.6 13.7 36.3C13 37 12.5 37 11.8 36.3C10.1 34.6 8.4 32.9 6.6 31.1C5.4 29.9 4.6 28.5 4.6 26.7ZM31.3 9.4C21.7 9.4 12.1 9.4 2.6 9.4C2.5 9.4 2.3 9.4 2.1 9.4V6.2C2.1 5.7 2.1 5.2 2.1 4.8C2.1 3.3 3.1 2.3 4.6 2.3C7.6 2.3 10.6 2.3 13.6 2.3C18.8 2.3 24 2.3 29.2 2.3C30.9 2.3 31.9 3.2 31.9 5C31.9 6.3 31.9 7.6 31.9 8.9C31.9 9.3 31.8 9.4 31.3 9.4ZM11.4 32.8C11.8 33.2 12.2 33.7 12.6 34.1C14.4 32.3 16.1 30.8 17.7 29.1C18.2 28.6 18.5 28 18.7 27.3C19.2 25.6 17.9 24.1 16.1 24.3C15.2 24.4 14.5 24.9 13.8 25.5C13.1 26.1 12.6 26.1 11.8 25.5C11.2 25.1 10.6 24.6 9.9 24.4C8.1 23.9 6.6 25.2 6.8 27.1C6.9 28.1 7.5 28.8 8.1 29.5C9.2 30.6 10.3 31.7 11.4 32.8ZM16.1 24.3C15.2 24.4 14.5 24.9 13.8 25.5C13.1 26.1 12.6 26.1 11.8 25.5C11.2 25.1 10.6 24.6 9.9 24.4C8.1 23.9 6.6 25.2 6.8 27.1C6.9 28.1 7.5 28.8 8.1 29.5C9.2 30.6 10.3 31.7 11.3 32.8C11.7 33.2 12.1 33.7 12.5 34.1C14.3 32.3 16 30.8 17.6 29.1C18.1 28.6 18.4 28 18.6 27.3C19.2 25.6 17.9 24.1 16.1 24.3ZM16.1 24.3C15.2 24.4 14.5 24.9 13.8 25.5C13.1 26.1 12.6 26.1 11.8 25.5C11.2 25.1 10.6 24.6 9.9 24.4C8.1 23.9 6.6 25.2 6.8 27.1C6.9 28.1 7.5 28.8 8.1 29.5C9.2 30.6 10.3 31.7 11.3 32.8C11.7 33.2 12.1 33.7 12.5 34.1C14.3 32.3 16 30.8 17.6 29.1C18.1 28.6 18.4 28 18.6 27.3C19.2 25.6 17.9 24.1 16.1 24.3ZM16.1 24.3C15.2 24.4 14.5 24.9 13.8 25.5C13.1 26.1 12.6 26.1 11.8 25.5C11.2 25.1 10.6 24.6 9.9 24.4C8.1 23.9 6.6 25.2 6.8 27.1C6.9 28.1 7.5 28.8 8.1 29.5C9.2 30.6 10.3 31.7 11.3 32.8C11.7 33.2 12.1 33.7 12.5 34.1C14.3 32.3 16 30.8 17.6 29.1C18.1 28.6 18.4 28 18.6 27.3C19.2 25.6 17.9 24.1 16.1 24.3ZM16.1 24.3C15.2 24.4 14.5 24.9 13.8 25.5C13.1 26.1 12.6 26.1 11.8 25.5C11.2 25.1 10.6 24.6 9.9 24.4C8.1 23.9 6.6 25.2 6.8 27.1C6.9 28.1 7.5 28.8 8.1 29.5C9.2 30.6 10.3 31.7 11.3 32.8C11.7 33.2 12.1 33.7 12.5 34.1C14.3 32.3 16 30.8 17.6 29.1C18.1 28.6 18.4 28 18.6 27.3C19.2 25.6 17.9 24.1 16.1 24.3ZM16.1 24.3C15.2 24.4 14.5 24.9 13.8 25.5C13.1 26.1 12.6 26.1 11.8 25.5C11.2 25.1 10.6 24.6 9.9 24.4C8.1 23.9 6.6 25.2 6.8 27.1C6.9 28.1 7.5 28.8 8.1 29.5C9.2 30.6 10.3 31.7 11.3 32.8C11.7 33.2 12.1 33.7 12.5 34.1C14.3 32.3 16 30.8 17.6 29.1C18.1 28.6 18.4 28 18.6 27.3C19.2 25.6 17.9 24.1 16.1 24.3ZM16.1 24.3C15.2 24.4 14.5 24.9 13.8 25.5C13.1 26.1 12.6 26.1 11.8 25.5C11.2 25.1 10.6 24.6 9.9 24.4C8.1 23.9 6.6 25.2 6.8 27.1C6.9 28.1 7.5 28.8 8.1 29.5C9.2 30.6 10.3 31.7 11.3 32.8C11.7 33.2 12.1 33.7 12.5 34.1C14.3 32.3 16 30.8 17.6 29.1C18.1 28.6 18.4 28 18.6 27.3C19.2 25.6 17.9 24.1 16.1 24.3ZM16.1 24.3C15.2 24.4 14.5 24.9 13.8 25.5C13.1 26.1 12.6 26.1 11.8 25.5C11.2 25.1 10.6 24.6 9.9 24.4C8.1 23.9 6.6 25.2 6.8 27.1C6.9 28.1 7.5 28.8 8.1 29.5C9.2 30.6 10.3 31.7 11.3 32.8C11.7 33.2 12.1 33.7 12.5 34.1C14.3 32.3 16 30.8 17.6 29.1C18.1 28.6 18.4 28 18.6 27.3C19.2 25.6 17.9 24.1 16.1 24.3ZM16.1 24.3C15.2 24.4 14.5 24.9 13.8 25.5C13.1 26.1 12.6 26.1 11.8 25.5C11.2 25.1 10.6 24.6 9.9 24.4C8.1 23.9 6.6 25.2 6.8 27.1C6.9 28.1 7.5 28.8 8.1 29.5C9.2 30.6 10.3 31.7 11.3 32.8C11.7 33.2 12.1 33.7 12.5 34.1C14.3 32.3 16 30.8 17.6 29.1C18.1 28.6 18.4 28 18.6 27.3C19.2 25.6 17.9 24.1 16.1 24.3ZM16.1 24.3C15.2 24.4 14.5 24.9 13.8 25.5C13.1 26.1 12.6 26.1 11.8 25.5C11.2 25.1 10.6 24.6 9.9 24.4C8.1 23.9 6.6 25.2 6.8 27.1C6.9 28.1 7.5 28.8 8.1 29.5C9.2 30.6 10.3 31.7 11.3 32.8C11.7 33.2 12.1 33.7 12.5 34.1C14.3 32.3 16 30.8 17.6 29.1C18.1 28.6 18.4 28 18.6 27.3C19.2 25.6 17.9 24.1 16.1 24.3ZM16.1 24.3C15.2 24.4 14.5 24.9 13.8 25.5C13.1 26.1 12.6 26.1 11.8 25.5C11.2 25.1 10.6 24.6 9.9 24.4C8.1 23.9 6.6 25.2 6.8 27.1C6.9 28.1 7.5 28.8 8.1 29.5C9.2 30.6 10.3 31.7 11.3 32.8C11.7 33.2 12.1 33.7 12.5 34.1C14.3 32.3 16 30.8 17.6 29.1C18.1 28.6 18.4 28 18.6 27.3C19.2 25.6 17.9 24.1 16.1 24.3ZM16.1 24.3C15.2 24.4 14.5 24.9 13.8 25.5C13.1 26.1 12.6 26.1 11.8 25.5C11.2 25.1 10.6 24.6 9.9 24.4C8.1 23.9 6.6 25.2 6.8 27.1C6.9 28.1 7.5 28.8 8.1 29.5C9.2 30.6 10.3 31.7 11.3 32.8C11.7 33.2 12.1 33.7 12.5 34.1C14.3 32.3 16 30.8 17.6 29.1C18.1 28.6 18.4 28 18.6 27.3C19.2 25.6 17.9 24.1 16.1 24.3ZM16.1 24.3C15.2 24.4 14.5 24.9 13.8 25.5C13.1 26.1 12.6 26.1 11.8 25.5C11.2 25.1 10.6 24.6 9.9 24.4C8.1 23.9 6.6 25.2 6.8 27.1C6.9 28.1 7.5 28.8 8.1 29.5C9.2 30.6 10.3 31.7 11.3 32.8C11.7 33.2 12.1 33.7 12.5 34.1C14.3 32.3 16 30.8 17.6 29.1C18.1 28.6 18.4 28 18.6 27.3C19.2 25.6 17.9 24.1 16.1 24.3ZM16.1 24.3C15.2 24.4 14.5 24.9 13.8 25.5C13.1 26.1 12.6 26.1 11.8 25.5C11.2 25.1 10.6 24.6 9.9 24.4C8.1 23.9 6.6 25.2 6.8 27.1C6.9 28.1 7.5 28.8 8.1 29.5C9.2 30.6 10.3 31.7 11.3 32.8C11.7 33.2 12.1 33.7 12.5 34.1C14.3 32.3 16 30.8 17.6 29.1C18.1 28.6 18.4 28 18.6 27.3C19.2 25.6 17.9 24.1 16.1 24.3ZM16.1 24.3C15.2 24.4 14.5 24.9 13.8 25.5C13.1 26.1 12.6 26.1 11.8 25.5C11.2 25.1 10.6 24.6 9.9 24.4C8.1 23.9 6.6 25.2 6.8 27.1C6.9 28.1 7.5 28.8 8.1 29.5C9.2 30.6 10.3 31.7 11.3 32.8C11.7 33.2 12.1 33.7 12.5 34.1C14.3 32.3 16 30.8 17.6 29.1C18.1 28.6 18.4 28 18.6 27.3C19.2 25.6 17.9 24.1 16.1 24.3ZM16.1 24.3C15.2 24.4 14.5 24.9 13.8 25.5C13.1 26.1 12.6 26.1 11.8 25.5C11.2 25.1 10.6 24.6 9.9 24.4C8.1 23.9 6.6 25.2 6.8 27.1C6.9 28.1 7.5 28.8 8.1 29.5C9.2 30.6 10.3 31.7 11.3 32.8C11.7 33.2 12.1 33.7 12.5 34.1C14.3 32.3 16 30.8 17.6 29.1C18.1 28.6 18.4 28 18.6 27.3C19.2 25.6 17.9 24.1 16.1 24.3ZM16.1 24.3C15.2 24.4 14.5 24.9 13.8 25.5C13.1 26.1 12.6 26.1 11.8 25.5C11.2 25.1 10.6 24.6 9.9 24.4C8.1 23.9 6.6 25.2 6.8 27.1C6.9 28.1 7.5 28.8 8.1 29.5C9.2 30.6 10.3 31.7 11.3 32.8C11.7 33.2 12.1 33.7 12.5 34.1C14.3 32.3 16 30.8 17.6 29.1C18.1 28.6 18.4 28 18.6 27.3C19.2 25.6 17.9 24.1 16.1 24.3ZM16.1 24.3C15.2 24.4 14.5 24.9 13.8 25.5C13.1 26.1 12.6 26.1 11.8 25.5C11.2 25.1 10.6 24.6 9.9 24.4C8.1 23.9 6.6 25.2 6.8 27.1C6.9 28.1 7.5 28.8 8.1 29.5C9.2 30.6 10.3 31.7 11.3 32.8C11.7 33.2 12.1 33.7 12.5 34.1C14.3 32.3 16 30.8 17.6 29.1C18.1 28.6 18.4 28 18.6 27.3C19.2 25.6 17.9 24.1 16.1 24.3ZM16.1 24.3C15.2 24.4 14.5 24.9 13.8 25.5C13.1 26.1 12.6 26.1 11.8 25.5C11.2 25.1 10.6 24.6 9.9 24.4C8.1 23.9 6.6 25.2 6.8 27.1C6.9 28.1 7.5 28.8 8.1 29.5C9.2 30.6 10.3 31.7 11.3 32.8C11.7 33.2 12.1 33.7 12.5 34.1C14.3 32.3 16 30.8 17.6 29.1C18.1 28.6 18.4 28 18.6 27.3C19.2 25.6 17.9 24.1 16.1 24.3ZM16.1 24.3C15.2 24.4 14.5 24.9 13.8 25.5C13.1 26.1 12.6 26.1 11.8 25.5C11.2 25.1 10.6 24.6 9.9 24.4C8.1 23.9 6.6 25.2 6.8 27.1C6.9 28.1 7.5 28.8 8.1 29.5C9.2 30.6 10.3 31.7 11.3 32.8C11.7 33.2 12.1 33.7 12.5 34.1C14.3 32.3 16 30.8 17.6 29.1C18.1 28.6 18.4 28 18.6 27.3C19.2 25.6 17.9 24.1 16.1 24.3ZM16.1 24.3C15.2 24.4 14.5 24.9 13.8 25.5C13.1 26.1 12.6 26.1 11.8 25.5C11.2 25.1 10.6 24.6 9.9 24.4C8.1 23.9 6.6 25.2 6.8 27.1C6.9 28.1 7.5 28.8 8.1 29.5C9.2 30.6 10.3 31.7 11.3 32.8C11.7 33.2 12.1 33.7 12.5 34.1C14.3 32.3 16 30.8 17.6 29.1C18.1 28.6 18.4 28 18.6 27.3C19.2 25.6 17.9 24.1 16.1 24.3Z" fill="#4A25AA"/>
<path d="M33.7999 26.6C33.4999 27 33.4999 27.5 33.6999 27.9C33.5999 27.5 33.5999 27 33.7999 26.6C33.8999 26.6 33.8999 26.6 33.7999 26.6C33.8999 26.6 33.8999 26.5 33.7999 26.6L33.8999 26.5L33.7999 26.6ZM34.5999 40.8C34.3999 40.3 34.1999 39.9 33.9999 39.5V39.4C33.9999 40.4 33.9999 41.4 33.9999 42.3C33.9999 42.3 33.9999 42.3 34.0999 42.3C34.4999 42.1 34.7999 41.4 34.5999 40.8ZM36.3999 33.4C35.5999 31.7 34.6999 30 33.8999 28.3C33.8999 28.3 33.8999 28.3 33.8999 28.2C33.8999 29.7 33.8999 31.4 33.8999 33.2V33.4C33.9999 33.7 34.1999 34 34.2999 34.3C34.7999 35.3 35.2999 35.6 35.9999 35.2C36.7999 35 36.8999 34.4 36.3999 33.4ZM34.5999 40.8C34.3999 40.3 34.1999 39.9 33.9999 39.5V39.4C33.9999 40.4 33.9999 41.4 33.9999 42.3C33.9999 42.3 33.9999 42.3 34.0999 42.3C34.4999 42.1 34.7999 41.4 34.5999 40.8ZM36.3999 33.4C35.5999 31.7 34.6999 30 33.8999 28.3C33.8999 28.3 33.8999 28.3 33.8999 28.2C33.8999 29.7 33.8999 31.4 33.8999 33.2V33.4C33.9999 33.7 34.1999 34 34.2999 34.3C34.7999 35.3 35.2999 35.6 35.9999 35.2C36.7999 35 36.8999 34.4 36.3999 33.4ZM34.5999 40.8C34.3999 40.3 34.1999 39.9 33.9999 39.5V39.4C33.9999 40.4 33.9999 41.4 33.9999 42.3C33.9999 42.3 33.9999 42.3 34.0999 42.3C34.4999 42.1 34.7999 41.4 34.5999 40.8ZM36.3999 33.4C35.5999 31.7 34.6999 30 33.8999 28.3C33.8999 28.3 33.8999 28.3 33.8999 28.2C33.8999 29.7 33.8999 31.4 33.8999 33.2V33.4C33.9999 33.7 34.1999 34 34.2999 34.3C34.7999 35.3 35.2999 35.6 35.9999 35.2C36.7999 35 36.8999 34.4 36.3999 33.4ZM36.3999 33.4C35.5999 31.7 34.6999 30 33.8999 28.3C33.8999 28.3 33.8999 28.3 33.8999 28.2C33.8999 29.7 33.8999 31.4 33.8999 33.2V33.4C33.9999 33.7 34.1999 34 34.2999 34.3C34.7999 35.3 35.2999 35.6 35.9999 35.2C36.7999 35 36.8999 34.4 36.3999 33.4ZM34.5999 40.8C34.3999 40.3 34.1999 39.9 33.9999 39.5V39.4C33.9999 40.4 33.9999 41.4 33.9999 42.3C33.9999 42.3 33.9999 42.3 34.0999 42.3C34.4999 42.1 34.7999 41.4 34.5999 40.8ZM36.3999 33.4C35.5999 31.7 34.6999 30 33.8999 28.3C33.8999 28.3 33.8999 28.3 33.8999 28.2C33.8999 29.7 33.8999 31.4 33.8999 33.2V33.4C33.9999 33.7 34.1999 34 34.2999 34.3C34.7999 35.3 35.2999 35.6 35.9999 35.2C36.7999 35 36.8999 34.4 36.3999 33.4ZM34.5999 40.8C34.3999 40.3 34.1999 39.9 33.9999 39.5V39.4C33.9999 40.4 33.9999 41.4 33.9999 42.3C33.9999 42.3 33.9999 42.3 34.0999 42.3C34.4999 42.1 34.7999 41.4 34.5999 40.8ZM33.7999 26.6C33.4999 27 33.4999 27.5 33.6999 27.9C33.5999 27.5 33.5999 27 33.7999 26.6C33.8999 26.6 33.8999 26.6 33.7999 26.6C33.8999 26.6 33.8999 26.5 33.7999 26.6L33.8999 26.5L33.7999 26.6ZM33.7999 26.6C33.4999 27 33.4999 27.5 33.6999 27.9C33.5999 27.5 33.5999 27 33.7999 26.6C33.8999 26.6 33.8999 26.6 33.7999 26.6C33.8999 26.6 33.8999 26.5 33.7999 26.6L33.8999 26.5L33.7999 26.6ZM34.5999 40.8C34.3999 40.3 34.1999 39.9 33.9999 39.5V39.4C33.9999 40.4 33.9999 41.4 33.9999 42.3C33.9999 42.3 33.9999 42.3 34.0999 42.3C34.4999 42.1 34.7999 41.4 34.5999 40.8ZM36.3999 33.4C35.5999 31.7 34.6999 30 33.8999 28.3C33.8999 28.3 33.8999 28.3 33.8999 28.2C33.8999 29.7 33.8999 31.4 33.8999 33.2V33.4C33.9999 33.7 34.1999 34 34.2999 34.3C34.7999 35.3 35.2999 35.6 35.9999 35.2C36.7999 35 36.8999 34.4 36.3999 33.4Z" fill="#83ECC3"/>
<path d="M54.5999 51.5C50.4999 53.5 46.4 55.5 42.4 57.4C41.6 57.8 40.9999 57.6 40.5999 56.7C40.0999 55.7 39.7 54.8 39.2 53.8C39.1 53.6 38.9 53.4 38.7 53.3C37.2 52.8 35.8 52.1 34.5 51.2C34.5 51.2 34.2 50.9 34 50.8L33.9 50.7V50.6C33.9 50.2 33.9 49.2 33.9 47.8L34 47.9C35.5 49.5 37.4999 50.6 39.7999 51.2C40.3999 51.4 40.8 51.7 41 52.2C41.4 53.1 41.7999 53.9 42.2999 54.9C45.9 53.2 49.4 51.5 52.9 49.7C52.4 48.6 51.9 47.6 51.4 46.6C51.1 45.9 51.1 45.4 51.4 44.7C52.7 41.9 52.9 38.9 51.5 36.1C49.4 31.5 47.1 27 44.9 22.4C44.5 21.7 43.9 21.5 43.2 21.8C42.5 22.1 42.2999 22.8 42.5999 23.5C42.6999 23.7 42.7999 23.8 42.7999 24C43.5999 25.7 44.4999 27.5 45.2999 29.2C45.6999 30 45.4 30.7 44.7 31C44.1 31.2 43.6 31 43.2 30.3C42.3 28.4 41.3 26.4 40.4 24.5C40 23.8 39.4 23.6 38.7 23.9C38 24.2 37.6999 24.9 38.0999 25.6C38.2999 26.1 38.5999 26.6 38.7999 27.1C39.4999 28.6 40.2 30.1 40.9 31.5C41.1 32 41.1 32.4 40.7 32.8C40.4 33.2 39.9 33.3 39.5 33.1C39.2 32.9 38.9 32.6 38.7 32.3C37.8 30.5 36.9 28.6 36 26.8C35.8 26.4 35.5 26 35 25.9C34.5 25.8 34.0999 25.9 33.7999 26.3C33.7999 24.8 33.8 23.8 33.7 23.6H33.7999C34.3999 23.6 35.0999 23.6 35.5999 23.7C35.6999 23.7 35.9 23.5 35.9 23.4C36.8 21.9 38.0999 21.2 39.7999 21.5C39.9999 21.5 40.1999 21.4 40.2999 21.2C41.0999 19.9 42.2 19.2 43.7 19.3C45.1 19.4 46.1 20.2 46.7 21.5C48.8 25.8 50.9 30.1 53 34.5C54.7 38 54.7999 41.6 53.2999 45.2C53.1999 45.4 53.1999 45.8 53.2999 46C53.7999 47.2 54.4 48.3 55 49.5C55.7 50.5 55.4999 51.1 54.5999 51.5Z" fill="#83ECC3"/>
<path d="M33.9 26.6C33.6 27 33.6 27.5 33.8 27.9V28C33.8 28.1 33.9 28.1 33.9 28.2C33.9 28.2 33.9 28.2 33.9 28.3C33.9 29.8 33.9 31.5 33.9 33.3C32.2 29.8 30.5 26.2 28.8 22.7C28.3 21.8 27.4 21.5 26.7 22.2C26.2 22.6 26.1 23.1 26.5 23.9C28.8 28.7 31.1 33.5 33.5 38.3C33.7 38.6 33.8 39 34 39.3V42.4C33.9 42.4 33.7 42.4 33.6 42.4C33.1 42.3 32.8 42 32.6 41.6C31.3 39 30.1 36.4 28.8 33.7C28.6 33.3 28.4 33.2 28 33.4C26.6 33.9 26.1 35.4 26.9 36.7C28.7 39.7 30.5 42.7 32.3 45.7C32.8 46.5 33.4 47.3 34 48C34 49.7 34 50.8 34 50.9L33.9 50.8L29 44.6C28.8 44.3 28.8 44.1 28.6 44C27.3 41.9 26.1 39.8 24.8 37.7C23.2 35.1 24.8 32.3 26.8 31.4C27 31.3 27.2 31.2 27.5 31.1C27.4 30.8 27.3 30.6 27.2 30.4C26.3 28.4 25.3 26.5 24.4 24.5C23.6 22.8 24.4 20.7 26 19.9C27.7 19.1 29.8 19.7 30.7 21.4C31.1 22.1 31.4 22.8 31.8 23.6C31.9 23.7 33 26.1 33 26.2C33.1 26.2 32.1 24.4 33.9 23.8H34C34 23.9 34 24.9 34 26.4C33.9 26.5 33.9 26.5 33.9 26.6C33.9 26.5 33.9 26.6 33.9 26.6Z" fill="#26D07C"/>
<path d="M33.9999 28.3C33.8999 28.3 33.8999 28.3 33.9999 28.3C33.8999 28.3 33.8999 28.3 33.9999 28.3C33.8999 28.3 33.8999 28.2 33.9999 28.3C33.8999 28.2 33.8999 28.2 33.8999 28.1V28C33.8999 28 33.8999 28 33.8999 27.9V28C33.8999 28.1 33.8999 28.2 33.9999 28.3C33.8999 28.2 33.8999 28.3 33.9999 28.3C33.8999 28.3 33.8999 28.3 33.9999 28.3C33.8999 28.3 33.8999 28.3 33.9999 28.3Z" fill="#26D07C"/>
<path d="M27.4 5.89999C27.4 6.49999 27 6.89999 26.4 6.99999H26.2999C25.6999 6.99999 25.2 6.49999 25.2 5.89999C25.2 5.29999 25.5999 4.79999 26.2999 4.79999H26.4C27 4.89999 27.4 5.29999 27.4 5.89999Z" fill="#4A25AA"/>
<path d="M22.2 5.89999C22.2 6.59999 21.7 6.99999 20.9 6.99999C18.5 6.99999 16.2 6.99999 13.8 6.99999C11.5 6.99999 9.2 6.99999 7 6.99999C6.1 6.99999 5.5 6.49999 5.5 5.89999C5.5 5.19999 6 4.79999 6.9 4.79999C11.6 4.79999 16.2 4.79999 20.9 4.79999C21.6 4.79999 22.2 5.19999 22.2 5.89999Z" fill="#4A25AA"/>
</g>
<defs>
<clipPath id="clip0">
<rect width="55.5" height="58.8" fill="white"/>
</clipPath>
</defs>
</svg>
