<svg width="57" height="59" viewBox="0 0 57 59" fill="none" xmlns="http://www.w3.org/2000/svg">
<g clip-path="url(#clip0)">
<rect width="56.6" height="58.8" fill="white"/>
<path d="M33.4 12C33.4 12 33.5 12 33.4 12C33.5 12 33.5 12 33.4 12C33.5 12 33.5 12 33.5 12C33.6 12 33.7 12 33.9 12V11.1V3.1C33.9 1.4 32.7 0 31.2 0H2.7C1.2 0 0 1.4 0 3.1V55.8C0 57.5 1.2 58.9 2.7 58.9H31.3C31.5 58.9 34 57.9 34 56.7V52.8V41.3V42.3V41.3C33.9 41.2 33.8 41.1 33.6 41L33.5 40.9V40.8L28.4 34.3C28.2 34 28.1 33.8 28 33.6C26.7 31.4 25.3 29.1 23.9 26.9C22.1 24.1 23.9 21.1 26 20.1C26.2 20 26.4 19.9 26.7 19.8C26.6 19.5 26.5 19.3 26.4 19C25.4 16.9 24.3 14.8 23.4 12.7C22.9 11.6 23 10.4 23.5 9.4C16.6 9.4 9.6 9.4 2.7 9.4C2.6 9.4 2.4 9.4 2.2 9.4V4.8C2.2 3.3 3.2 2.3 4.7 2.3C7.7 2.3 10.7 2.3 13.7 2.3H29.3C31 2.3 32 3.2 32 4.9C32 6.2 32 7.5 32 8.8C32 9.2 31.9 9.4 31.4 9.4H30C30.4 10.2 30.8 10.9 31.1 11.7C31.2 11.8 32.3 14.3 32.4 14.5C32.5 14.4 31.6 12.6 33.4 12ZM33.9 47.8V50.8C33.9 50.7 33.9 49.6 33.9 47.9V47.8ZM10.9 22.4C11.4 22.6 11.8 22.8 12.2 23.1C12.7 23.4 13 23.4 13.4 23.1C14.7 22.2 16.2 21.9 17.7 22.3C20.5 23.1 21.8 26.2 20.4 29C20 29.8 19.5 30.5 18.9 31.1C17.2 32.9 15.4 34.6 13.7 36.3C13 37 12.5 37 11.8 36.3C10.1 34.6 8.4 32.9 6.6 31.1C5.4 29.9 4.6 28.5 4.6 26.7C4.6 23.4 7.7 21.3 10.9 22.4ZM2.8 46.9C9.7 46.9 16.6 46.9 23.5 46.9H29.5C29.6 46.9 29.6 46.9 29.7 46.9H31.8V50.4C31.8 50.5 31.8 50.7 31.8 50.8C31.8 51.4 31.8 52 31.8 52.7C31.8 53.2 31.8 53.6 31.8 54.1C31.8 55.7 30.8 56.6 29.3 56.6H4.6C3 56.6 2.1 55.6 2.1 54.1C2.1 51.7 2.1 49.4 2.1 46.9H2.8ZM33.9 29.4V31.6V29.4Z" fill="#0E0675"/>
<path d="M18.4999 51.7C18.4999 52.4 17.8999 53.1 17.1999 53.1C16.4999 53.1 15.8999 52.5 15.8999 51.7C15.8999 50.9 16.4999 50.4 17.1999 50.4C17.8999 50.4 18.4999 51 18.4999 51.7Z" fill="#4A25AA"/>
<path d="M20.7001 51.7C20.7001 53.6 19.1001 55.3 17.1001 55.3C15.1001 55.3 13.6001 53.7 13.6001 51.7C13.6001 49.7 15.2001 48.1 17.2001 48.2C19.0001 48.2 20.7001 49.8 20.7001 51.7Z" fill="#0E0675"/>
<path d="M16.0999 24.3C15.1999 24.4 14.4999 24.9 13.7999 25.5C13.0999 26.1 12.5999 26.1 11.7999 25.5C11.1999 25 10.5999 24.6 9.89992 24.4C8.09992 23.9 6.59993 25.2 6.79993 27.1C6.89993 28.1 7.49993 28.9 8.09993 29.5C9.19993 30.6 10.2999 31.7 11.2999 32.8C11.6999 33.2 12.0999 33.7 12.4999 34.1C14.2999 32.3 15.9999 30.8 17.5999 29.1C18.0999 28.6 18.3999 27.9 18.5999 27.3C19.1999 25.6 17.8999 24.1 16.0999 24.3ZM16.0999 24.3C15.1999 24.4 14.4999 24.9 13.7999 25.5C13.0999 26.1 12.5999 26.1 11.7999 25.5C11.1999 25 10.5999 24.6 9.89992 24.4C8.09992 23.9 6.59993 25.2 6.79993 27.1C6.89993 28.1 7.49993 28.9 8.09993 29.5C9.19993 30.6 10.2999 31.7 11.2999 32.8C11.6999 33.2 12.0999 33.7 12.4999 34.1C14.2999 32.3 15.9999 30.8 17.5999 29.1C18.0999 28.6 18.3999 27.9 18.5999 27.3C19.1999 25.6 17.8999 24.1 16.0999 24.3ZM16.0999 24.3C15.1999 24.4 14.4999 24.9 13.7999 25.5C13.0999 26.1 12.5999 26.1 11.7999 25.5C11.1999 25 10.5999 24.6 9.89992 24.4C8.09992 23.9 6.59993 25.2 6.79993 27.1C6.89993 28.1 7.49993 28.9 8.09993 29.5C9.19993 30.6 10.2999 31.7 11.2999 32.8C11.6999 33.2 12.0999 33.7 12.4999 34.1C14.2999 32.3 15.9999 30.8 17.5999 29.1C18.0999 28.6 18.3999 27.9 18.5999 27.3C19.1999 25.6 17.8999 24.1 16.0999 24.3ZM16.0999 24.3C15.1999 24.4 14.4999 24.9 13.7999 25.5C13.0999 26.1 12.5999 26.1 11.7999 25.5C11.1999 25 10.5999 24.6 9.89992 24.4C8.09992 23.9 6.59993 25.2 6.79993 27.1C6.89993 28.1 7.49993 28.9 8.09993 29.5C9.19993 30.6 10.2999 31.7 11.2999 32.8C11.6999 33.2 12.0999 33.7 12.4999 34.1C14.2999 32.3 15.9999 30.8 17.5999 29.1C18.0999 28.6 18.3999 27.9 18.5999 27.3C19.1999 25.6 17.8999 24.1 16.0999 24.3ZM16.0999 24.3C15.1999 24.4 14.4999 24.9 13.7999 25.5C13.0999 26.1 12.5999 26.1 11.7999 25.5C11.1999 25 10.5999 24.6 9.89992 24.4C8.09992 23.9 6.59993 25.2 6.79993 27.1C6.89993 28.1 7.49993 28.9 8.09993 29.5C9.19993 30.6 10.2999 31.7 11.2999 32.8C11.6999 33.2 12.0999 33.7 12.4999 34.1C14.2999 32.3 15.9999 30.8 17.5999 29.1C18.0999 28.6 18.3999 27.9 18.5999 27.3C19.1999 25.6 17.8999 24.1 16.0999 24.3ZM16.0999 24.3C15.1999 24.4 14.4999 24.9 13.7999 25.5C13.0999 26.1 12.5999 26.1 11.7999 25.5C11.1999 25 10.5999 24.6 9.89992 24.4C8.09992 23.9 6.59993 25.2 6.79993 27.1C6.89993 28.1 7.49993 28.9 8.09993 29.5C9.19993 30.6 10.2999 31.7 11.2999 32.8C11.6999 33.2 12.0999 33.7 12.4999 34.1C14.2999 32.3 15.9999 30.8 17.5999 29.1C18.0999 28.6 18.3999 27.9 18.5999 27.3C19.1999 25.6 17.8999 24.1 16.0999 24.3ZM16.0999 24.3C15.1999 24.4 14.4999 24.9 13.7999 25.5C13.0999 26.1 12.5999 26.1 11.7999 25.5C11.1999 25 10.5999 24.6 9.89992 24.4C8.09992 23.9 6.59993 25.2 6.79993 27.1C6.89993 28.1 7.49993 28.9 8.09993 29.5C9.19993 30.6 10.2999 31.7 11.2999 32.8C11.6999 33.2 12.0999 33.7 12.4999 34.1C14.2999 32.3 15.9999 30.8 17.5999 29.1C18.0999 28.6 18.3999 27.9 18.5999 27.3C19.1999 25.6 17.8999 24.1 16.0999 24.3ZM16.0999 24.3C15.1999 24.4 14.4999 24.9 13.7999 25.5C13.0999 26.1 12.5999 26.1 11.7999 25.5C11.1999 25 10.5999 24.6 9.89992 24.4C8.09992 23.9 6.59993 25.2 6.79993 27.1C6.89993 28.1 7.49993 28.9 8.09993 29.5C9.19993 30.6 10.2999 31.7 11.2999 32.8C11.6999 33.2 12.0999 33.7 12.4999 34.1C14.2999 32.3 15.9999 30.8 17.5999 29.1C18.0999 28.6 18.3999 27.9 18.5999 27.3C19.1999 25.6 17.8999 24.1 16.0999 24.3ZM16.0999 24.3C15.1999 24.4 14.4999 24.9 13.7999 25.5C13.0999 26.1 12.5999 26.1 11.7999 25.5C11.1999 25 10.5999 24.6 9.89992 24.4C8.09992 23.9 6.59993 25.2 6.79993 27.1C6.89993 28.1 7.49993 28.9 8.09993 29.5C9.19993 30.6 10.2999 31.7 11.2999 32.8C11.6999 33.2 12.0999 33.7 12.4999 34.1C14.2999 32.3 15.9999 30.8 17.5999 29.1C18.0999 28.6 18.3999 27.9 18.5999 27.3C19.1999 25.6 17.8999 24.1 16.0999 24.3ZM16.0999 24.3C15.1999 24.4 14.4999 24.9 13.7999 25.5C13.0999 26.1 12.5999 26.1 11.7999 25.5C11.1999 25 10.5999 24.6 9.89992 24.4C8.09992 23.9 6.59993 25.2 6.79993 27.1C6.89993 28.1 7.49993 28.9 8.09993 29.5C9.19993 30.6 10.2999 31.7 11.2999 32.8C11.6999 33.2 12.0999 33.7 12.4999 34.1C14.2999 32.3 15.9999 30.8 17.5999 29.1C18.0999 28.6 18.3999 27.9 18.5999 27.3C19.1999 25.6 17.8999 24.1 16.0999 24.3ZM16.0999 24.3C15.1999 24.4 14.4999 24.9 13.7999 25.5C13.0999 26.1 12.5999 26.1 11.7999 25.5C11.1999 25 10.5999 24.6 9.89992 24.4C8.09992 23.9 6.59993 25.2 6.79993 27.1C6.89993 28.1 7.49993 28.9 8.09993 29.5C9.19993 30.6 10.2999 31.7 11.2999 32.8C11.6999 33.2 12.0999 33.7 12.4999 34.1C14.2999 32.3 15.9999 30.8 17.5999 29.1C18.0999 28.6 18.3999 27.9 18.5999 27.3C19.1999 25.6 17.8999 24.1 16.0999 24.3ZM16.0999 24.3C15.1999 24.4 14.4999 24.9 13.7999 25.5C13.0999 26.1 12.5999 26.1 11.7999 25.5C11.1999 25 10.5999 24.6 9.89992 24.4C8.09992 23.9 6.59993 25.2 6.79993 27.1C6.89993 28.1 7.49993 28.9 8.09993 29.5C9.19993 30.6 10.2999 31.7 11.2999 32.8C11.6999 33.2 12.0999 33.7 12.4999 34.1C14.2999 32.3 15.9999 30.8 17.5999 29.1C18.0999 28.6 18.3999 27.9 18.5999 27.3C19.1999 25.6 17.8999 24.1 16.0999 24.3ZM16.0999 24.3C15.1999 24.4 14.4999 24.9 13.7999 25.5C13.0999 26.1 12.5999 26.1 11.7999 25.5C11.1999 25 10.5999 24.6 9.89992 24.4C8.09992 23.9 6.59993 25.2 6.79993 27.1C6.89993 28.1 7.49993 28.9 8.09993 29.5C9.19993 30.6 10.2999 31.7 11.2999 32.8C11.6999 33.2 12.0999 33.7 12.4999 34.1C14.2999 32.3 15.9999 30.8 17.5999 29.1C18.0999 28.6 18.3999 27.9 18.5999 27.3C19.1999 25.6 17.8999 24.1 16.0999 24.3ZM16.0999 24.3C15.1999 24.4 14.4999 24.9 13.7999 25.5C13.0999 26.1 12.5999 26.1 11.7999 25.5C11.1999 25 10.5999 24.6 9.89992 24.4C8.09992 23.9 6.59993 25.2 6.79993 27.1C6.89993 28.1 7.49993 28.9 8.09993 29.5C9.19993 30.6 10.2999 31.7 11.2999 32.8C11.6999 33.2 12.0999 33.7 12.4999 34.1C14.2999 32.3 15.9999 30.8 17.5999 29.1C18.0999 28.6 18.3999 27.9 18.5999 27.3C19.1999 25.6 17.8999 24.1 16.0999 24.3ZM16.0999 24.3C15.1999 24.4 14.4999 24.9 13.7999 25.5C13.0999 26.1 12.5999 26.1 11.7999 25.5C11.1999 25 10.5999 24.6 9.89992 24.4C8.09992 23.9 6.59993 25.2 6.79993 27.1C6.89993 28.1 7.49993 28.9 8.09993 29.5C9.19993 30.6 10.2999 31.7 11.2999 32.8C11.6999 33.2 12.0999 33.7 12.4999 34.1C14.2999 32.3 15.9999 30.8 17.5999 29.1C18.0999 28.6 18.3999 27.9 18.5999 27.3C19.1999 25.6 17.8999 24.1 16.0999 24.3ZM16.0999 24.3C15.1999 24.4 14.4999 24.9 13.7999 25.5C13.0999 26.1 12.5999 26.1 11.7999 25.5C11.1999 25 10.5999 24.6 9.89992 24.4C8.09992 23.9 6.59993 25.2 6.79993 27.1C6.89993 28.1 7.49993 28.9 8.09993 29.5C9.19993 30.6 10.2999 31.7 11.2999 32.8C11.6999 33.2 12.0999 33.7 12.4999 34.1C14.2999 32.3 15.9999 30.8 17.5999 29.1C18.0999 28.6 18.3999 27.9 18.5999 27.3C19.1999 25.6 17.8999 24.1 16.0999 24.3ZM16.0999 24.3C15.1999 24.4 14.4999 24.9 13.7999 25.5C13.0999 26.1 12.5999 26.1 11.7999 25.5C11.1999 25 10.5999 24.6 9.89992 24.4C8.09992 23.9 6.59993 25.2 6.79993 27.1C6.89993 28.1 7.49993 28.9 8.09993 29.5C9.19993 30.6 10.2999 31.7 11.2999 32.8C11.6999 33.2 12.0999 33.7 12.4999 34.1C14.2999 32.3 15.9999 30.8 17.5999 29.1C18.0999 28.6 18.3999 27.9 18.5999 27.3C19.1999 25.6 17.8999 24.1 16.0999 24.3ZM16.0999 24.3C15.1999 24.4 14.4999 24.9 13.7999 25.5C13.0999 26.1 12.5999 26.1 11.7999 25.5C11.1999 25 10.5999 24.6 9.89992 24.4C8.09992 23.9 6.59993 25.2 6.79993 27.1C6.89993 28.1 7.49993 28.9 8.09993 29.5C9.19993 30.6 10.2999 31.7 11.2999 32.8C11.6999 33.2 12.0999 33.7 12.4999 34.1C14.2999 32.3 15.9999 30.8 17.5999 29.1C18.0999 28.6 18.3999 27.9 18.5999 27.3C19.1999 25.6 17.8999 24.1 16.0999 24.3ZM16.0999 24.3C15.1999 24.4 14.4999 24.9 13.7999 25.5C13.0999 26.1 12.5999 26.1 11.7999 25.5C11.1999 25 10.5999 24.6 9.89992 24.4C8.09992 23.9 6.59993 25.2 6.79993 27.1C6.89993 28.1 7.49993 28.9 8.09993 29.5C9.19993 30.6 10.2999 31.7 11.2999 32.8C11.6999 33.2 12.0999 33.7 12.4999 34.1C14.2999 32.3 15.9999 30.8 17.5999 29.1C18.0999 28.6 18.3999 27.9 18.5999 27.3C19.1999 25.6 17.8999 24.1 16.0999 24.3ZM16.0999 24.3C15.1999 24.4 14.4999 24.9 13.7999 25.5C13.0999 26.1 12.5999 26.1 11.7999 25.5C11.1999 25 10.5999 24.6 9.89992 24.4C8.09992 23.9 6.59993 25.2 6.79993 27.1C6.89993 28.1 7.49993 28.9 8.09993 29.5C9.19993 30.6 10.2999 31.7 11.2999 32.8C11.6999 33.2 12.0999 33.7 12.4999 34.1C14.2999 32.3 15.9999 30.8 17.5999 29.1C18.0999 28.6 18.3999 27.9 18.5999 27.3C19.1999 25.6 17.8999 24.1 16.0999 24.3ZM16.0999 24.3C15.1999 24.4 14.4999 24.9 13.7999 25.5C13.0999 26.1 12.5999 26.1 11.7999 25.5C11.1999 25 10.5999 24.6 9.89992 24.4C8.09992 23.9 6.59993 25.2 6.79993 27.1C6.89993 28.1 7.49993 28.9 8.09993 29.5C9.19993 30.6 10.2999 31.7 11.2999 32.8C11.6999 33.2 12.0999 33.7 12.4999 34.1C14.2999 32.3 15.9999 30.8 17.5999 29.1C18.0999 28.6 18.3999 27.9 18.5999 27.3C19.1999 25.6 17.8999 24.1 16.0999 24.3ZM16.0999 24.3C15.1999 24.4 14.4999 24.9 13.7999 25.5C13.0999 26.1 12.5999 26.1 11.7999 25.5C11.1999 25 10.5999 24.6 9.89992 24.4C8.09992 23.9 6.59993 25.2 6.79993 27.1C6.89993 28.1 7.49993 28.9 8.09993 29.5C9.19993 30.6 10.2999 31.7 11.2999 32.8C11.6999 33.2 12.0999 33.7 12.4999 34.1C14.2999 32.3 15.9999 30.8 17.5999 29.1C18.0999 28.6 18.3999 27.9 18.5999 27.3C19.1999 25.6 17.8999 24.1 16.0999 24.3ZM16.0999 24.3C15.1999 24.4 14.4999 24.9 13.7999 25.5C13.0999 26.1 12.5999 26.1 11.7999 25.5C11.1999 25 10.5999 24.6 9.89992 24.4C8.09992 23.9 6.59993 25.2 6.79993 27.1C6.89993 28.1 7.49993 28.9 8.09993 29.5C9.19993 30.6 10.2999 31.7 11.2999 32.8C11.6999 33.2 12.0999 33.7 12.4999 34.1C14.2999 32.3 15.9999 30.8 17.5999 29.1C18.0999 28.6 18.3999 27.9 18.5999 27.3C19.1999 25.6 17.8999 24.1 16.0999 24.3ZM16.0999 24.3C15.1999 24.4 14.4999 24.9 13.7999 25.5C13.0999 26.1 12.5999 26.1 11.7999 25.5C11.1999 25 10.5999 24.6 9.89992 24.4C8.09992 23.9 6.59993 25.2 6.79993 27.1C6.89993 28.1 7.49993 28.9 8.09993 29.5C9.19993 30.6 10.2999 31.7 11.2999 32.8C11.6999 33.2 12.0999 33.7 12.4999 34.1C14.2999 32.3 15.9999 30.8 17.5999 29.1C18.0999 28.6 18.3999 27.9 18.5999 27.3C19.1999 25.6 17.8999 24.1 16.0999 24.3ZM16.0999 24.3C15.1999 24.4 14.4999 24.9 13.7999 25.5C13.0999 26.1 12.5999 26.1 11.7999 25.5C11.1999 25 10.5999 24.6 9.89992 24.4C8.09992 23.9 6.59993 25.2 6.79993 27.1C6.89993 28.1 7.49993 28.9 8.09993 29.5C9.19993 30.6 10.2999 31.7 11.2999 32.8C11.6999 33.2 12.0999 33.7 12.4999 34.1C14.2999 32.3 15.9999 30.8 17.5999 29.1C18.0999 28.6 18.3999 27.9 18.5999 27.3C19.1999 25.6 17.8999 24.1 16.0999 24.3ZM16.0999 24.3C15.1999 24.4 14.4999 24.9 13.7999 25.5C13.0999 26.1 12.5999 26.1 11.7999 25.5C11.1999 25 10.5999 24.6 9.89992 24.4C8.09992 23.9 6.59993 25.2 6.79993 27.1C6.89993 28.1 7.49993 28.9 8.09993 29.5C9.19993 30.6 10.2999 31.7 11.2999 32.8C11.6999 33.2 12.0999 33.7 12.4999 34.1C14.2999 32.3 15.9999 30.8 17.5999 29.1C18.0999 28.6 18.3999 27.9 18.5999 27.3C19.1999 25.6 17.8999 24.1 16.0999 24.3ZM16.0999 24.3C15.1999 24.4 14.4999 24.9 13.7999 25.5C13.0999 26.1 12.5999 26.1 11.7999 25.5C11.1999 25 10.5999 24.6 9.89992 24.4C8.09992 23.9 6.59993 25.2 6.79993 27.1C6.89993 28.1 7.49993 28.9 8.09993 29.5C9.19993 30.6 10.2999 31.7 11.2999 32.8C11.6999 33.2 12.0999 33.7 12.4999 34.1C14.2999 32.3 15.9999 30.8 17.5999 29.1C18.0999 28.6 18.3999 27.9 18.5999 27.3C19.1999 25.6 17.8999 24.1 16.0999 24.3ZM16.0999 24.3C15.1999 24.4 14.4999 24.9 13.7999 25.5C13.0999 26.1 12.5999 26.1 11.7999 25.5C11.1999 25 10.5999 24.6 9.89992 24.4C8.09992 23.9 6.59993 25.2 6.79993 27.1C6.89993 28.1 7.49993 28.9 8.09993 29.5C9.19993 30.6 10.2999 31.7 11.2999 32.8C11.6999 33.2 12.0999 33.7 12.4999 34.1C14.2999 32.3 15.9999 30.8 17.5999 29.1C18.0999 28.6 18.3999 27.9 18.5999 27.3C19.1999 25.6 17.8999 24.1 16.0999 24.3ZM16.0999 24.3C15.1999 24.4 14.4999 24.9 13.7999 25.5C13.0999 26.1 12.5999 26.1 11.7999 25.5C11.1999 25 10.5999 24.6 9.89992 24.4C8.09992 23.9 6.59993 25.2 6.79993 27.1C6.89993 28.1 7.49993 28.9 8.09993 29.5C9.19993 30.6 10.2999 31.7 11.2999 32.8C11.6999 33.2 12.0999 33.7 12.4999 34.1C14.2999 32.3 15.9999 30.8 17.5999 29.1C18.0999 28.6 18.3999 27.9 18.5999 27.3C19.1999 25.6 17.8999 24.1 16.0999 24.3ZM16.0999 24.3C15.1999 24.4 14.4999 24.9 13.7999 25.5C13.0999 26.1 12.5999 26.1 11.7999 25.5C11.1999 25 10.5999 24.6 9.89992 24.4C8.09992 23.9 6.59993 25.2 6.79993 27.1C6.89993 28.1 7.49993 28.9 8.09993 29.5C9.19993 30.6 10.2999 31.7 11.2999 32.8C11.6999 33.2 12.0999 33.7 12.4999 34.1C14.2999 32.3 15.9999 30.8 17.5999 29.1C18.0999 28.6 18.3999 27.9 18.5999 27.3C19.1999 25.6 17.8999 24.1 16.0999 24.3ZM16.0999 24.3C15.1999 24.4 14.4999 24.9 13.7999 25.5C13.0999 26.1 12.5999 26.1 11.7999 25.5C11.1999 25 10.5999 24.6 9.89992 24.4C8.09992 23.9 6.59993 25.2 6.79993 27.1C6.89993 28.1 7.49993 28.9 8.09993 29.5C9.19993 30.6 10.2999 31.7 11.2999 32.8C11.6999 33.2 12.0999 33.7 12.4999 34.1C14.2999 32.3 15.9999 30.8 17.5999 29.1C18.0999 28.6 18.3999 27.9 18.5999 27.3C19.1999 25.6 17.8999 24.1 16.0999 24.3ZM16.0999 24.3C15.1999 24.4 14.4999 24.9 13.7999 25.5C13.0999 26.1 12.5999 26.1 11.7999 25.5C11.1999 25 10.5999 24.6 9.89992 24.4C8.09992 23.9 6.59993 25.2 6.79993 27.1C6.89993 28.1 7.49993 28.9 8.09993 29.5C9.19993 30.6 10.2999 31.7 11.2999 32.8C11.6999 33.2 12.0999 33.7 12.4999 34.1C14.2999 32.3 15.9999 30.8 17.5999 29.1C18.0999 28.6 18.3999 27.9 18.5999 27.3C19.1999 25.6 17.8999 24.1 16.0999 24.3ZM16.0999 24.3C15.1999 24.4 14.4999 24.9 13.7999 25.5C13.0999 26.1 12.5999 26.1 11.7999 25.5C11.1999 25 10.5999 24.6 9.89992 24.4C8.09992 23.9 6.59993 25.2 6.79993 27.1C6.89993 28.1 7.49993 28.9 8.09993 29.5C9.19993 30.6 10.2999 31.7 11.2999 32.8C11.6999 33.2 12.0999 33.7 12.4999 34.1C14.2999 32.3 15.9999 30.8 17.5999 29.1C18.0999 28.6 18.3999 27.9 18.5999 27.3C19.1999 25.6 17.8999 24.1 16.0999 24.3ZM16.0999 24.3C15.1999 24.4 14.4999 24.9 13.7999 25.5C13.0999 26.1 12.5999 26.1 11.7999 25.5C11.1999 25 10.5999 24.6 9.89992 24.4C8.09992 23.9 6.59993 25.2 6.79993 27.1C6.89993 28.1 7.49993 28.9 8.09993 29.5C9.19993 30.6 10.2999 31.7 11.2999 32.8C11.6999 33.2 12.0999 33.7 12.4999 34.1C14.2999 32.3 15.9999 30.8 17.5999 29.1C18.0999 28.6 18.3999 27.9 18.5999 27.3C19.1999 25.6 17.8999 24.1 16.0999 24.3ZM16.0999 24.3C15.1999 24.4 14.4999 24.9 13.7999 25.5C13.0999 26.1 12.5999 26.1 11.7999 25.5C11.1999 25 10.5999 24.6 9.89992 24.4C8.09992 23.9 6.59993 25.2 6.79993 27.1C6.89993 28.1 7.49993 28.9 8.09993 29.5C9.19993 30.6 10.2999 31.7 11.2999 32.8C11.6999 33.2 12.0999 33.7 12.4999 34.1C14.2999 32.3 15.9999 30.8 17.5999 29.1C18.0999 28.6 18.3999 27.9 18.5999 27.3C19.1999 25.6 17.8999 24.1 16.0999 24.3ZM16.0999 24.3C15.1999 24.4 14.4999 24.9 13.7999 25.5C13.0999 26.1 12.5999 26.1 11.7999 25.5C11.1999 25 10.5999 24.6 9.89992 24.4C8.09992 23.9 6.59993 25.2 6.79993 27.1C6.89993 28.1 7.49993 28.9 8.09993 29.5C9.19993 30.6 10.2999 31.7 11.2999 32.8C11.6999 33.2 12.0999 33.7 12.4999 34.1C14.2999 32.3 15.9999 30.8 17.5999 29.1C18.0999 28.6 18.3999 27.9 18.5999 27.3C19.1999 25.6 17.8999 24.1 16.0999 24.3ZM16.0999 24.3C15.1999 24.4 14.4999 24.9 13.7999 25.5C13.0999 26.1 12.5999 26.1 11.7999 25.5C11.1999 25 10.5999 24.6 9.89992 24.4C8.09992 23.9 6.59993 25.2 6.79993 27.1C6.89993 28.1 7.49993 28.9 8.09993 29.5C9.19993 30.6 10.2999 31.7 11.2999 32.8C11.6999 33.2 12.0999 33.7 12.4999 34.1C14.2999 32.3 15.9999 30.8 17.5999 29.1C18.0999 28.6 18.3999 27.9 18.5999 27.3C19.1999 25.6 17.8999 24.1 16.0999 24.3ZM16.0999 24.3C15.1999 24.4 14.4999 24.9 13.7999 25.5C13.0999 26.1 12.5999 26.1 11.7999 25.5C11.1999 25 10.5999 24.6 9.89992 24.4C8.09992 23.9 6.59993 25.2 6.79993 27.1C6.89993 28.1 7.49993 28.9 8.09993 29.5C9.19993 30.6 10.2999 31.7 11.2999 32.8C11.6999 33.2 12.0999 33.7 12.4999 34.1C14.2999 32.3 15.9999 30.8 17.5999 29.1C18.0999 28.6 18.3999 27.9 18.5999 27.3C19.1999 25.6 17.8999 24.1 16.0999 24.3ZM16.0999 24.3C15.1999 24.4 14.4999 24.9 13.7999 25.5C13.0999 26.1 12.5999 26.1 11.7999 25.5C11.1999 25 10.5999 24.6 9.89992 24.4C8.09992 23.9 6.59993 25.2 6.79993 27.1C6.89993 28.1 7.49993 28.9 8.09993 29.5C9.19993 30.6 10.2999 31.7 11.2999 32.8C11.6999 33.2 12.0999 33.7 12.4999 34.1C14.2999 32.3 15.9999 30.8 17.5999 29.1C18.0999 28.6 18.3999 27.9 18.5999 27.3C19.1999 25.6 17.8999 24.1 16.0999 24.3ZM16.0999 24.3C15.1999 24.4 14.4999 24.9 13.7999 25.5C13.0999 26.1 12.5999 26.1 11.7999 25.5C11.1999 25 10.5999 24.6 9.89992 24.4C8.09992 23.9 6.59993 25.2 6.79993 27.1C6.89993 28.1 7.49993 28.9 8.09993 29.5C9.19993 30.6 10.2999 31.7 11.2999 32.8C11.6999 33.2 12.0999 33.7 12.4999 34.1C14.2999 32.3 15.9999 30.8 17.5999 29.1C18.0999 28.6 18.3999 27.9 18.5999 27.3C19.1999 25.6 17.8999 24.1 16.0999 24.3ZM16.0999 24.3C15.1999 24.4 14.4999 24.9 13.7999 25.5C13.0999 26.1 12.5999 26.1 11.7999 25.5C11.1999 25 10.5999 24.6 9.89992 24.4C8.09992 23.9 6.59993 25.2 6.79993 27.1C6.89993 28.1 7.49993 28.9 8.09993 29.5C9.19993 30.6 10.2999 31.7 11.2999 32.8C11.6999 33.2 12.0999 33.7 12.4999 34.1C14.2999 32.3 15.9999 30.8 17.5999 29.1C18.0999 28.6 18.3999 27.9 18.5999 27.3C19.1999 25.6 17.8999 24.1 16.0999 24.3ZM16.0999 24.3C15.1999 24.4 14.4999 24.9 13.7999 25.5C13.0999 26.1 12.5999 26.1 11.7999 25.5C11.1999 25 10.5999 24.6 9.89992 24.4C8.09992 23.9 6.59993 25.2 6.79993 27.1C6.89993 28.1 7.49993 28.9 8.09993 29.5C9.19993 30.6 10.2999 31.7 11.2999 32.8C11.6999 33.2 12.0999 33.7 12.4999 34.1C14.2999 32.3 15.9999 30.8 17.5999 29.1C18.0999 28.6 18.3999 27.9 18.5999 27.3C19.1999 25.6 17.8999 24.1 16.0999 24.3ZM16.0999 24.3C15.1999 24.4 14.4999 24.9 13.7999 25.5C13.0999 26.1 12.5999 26.1 11.7999 25.5C11.1999 25 10.5999 24.6 9.89992 24.4C8.09992 23.9 6.59993 25.2 6.79993 27.1C6.89993 28.1 7.49993 28.9 8.09993 29.5C9.19993 30.6 10.2999 31.7 11.2999 32.8C11.6999 33.2 12.0999 33.7 12.4999 34.1C14.2999 32.3 15.9999 30.8 17.5999 29.1C18.0999 28.6 18.3999 27.9 18.5999 27.3C19.1999 25.6 17.8999 24.1 16.0999 24.3ZM16.0999 24.3C15.1999 24.4 14.4999 24.9 13.7999 25.5C13.0999 26.1 12.5999 26.1 11.7999 25.5C11.1999 25 10.5999 24.6 9.89992 24.4C8.09992 23.9 6.59993 25.2 6.79993 27.1C6.89993 28.1 7.49993 28.9 8.09993 29.5C9.19993 30.6 10.2999 31.7 11.2999 32.8C11.6999 33.2 12.0999 33.7 12.4999 34.1C14.2999 32.3 15.9999 30.8 17.5999 29.1C18.0999 28.6 18.3999 27.9 18.5999 27.3C19.1999 25.6 17.8999 24.1 16.0999 24.3ZM16.0999 24.3C15.1999 24.4 14.4999 24.9 13.7999 25.5C13.0999 26.1 12.5999 26.1 11.7999 25.5C11.1999 25 10.5999 24.6 9.89992 24.4C8.09992 23.9 6.59993 25.2 6.79993 27.1C6.89993 28.1 7.49993 28.9 8.09993 29.5C9.19993 30.6 10.2999 31.7 11.2999 32.8C11.6999 33.2 12.0999 33.7 12.4999 34.1C14.2999 32.3 15.9999 30.8 17.5999 29.1C18.0999 28.6 18.3999 27.9 18.5999 27.3C19.1999 25.6 17.8999 24.1 16.0999 24.3Z" fill="#0E0675"/>
<path d="M34.3 30.1C34.2 29.9 34.1 29.6 34 29.4V31.6C34.3 31.3 34.5 30.7 34.3 30.1Z" fill="#83ECC3"/>
<path d="M35.7999 24.3C35.0999 24.6 34.4999 24.3 33.9999 23.3C33.9999 23.3 33.9999 23.2 33.8999 23.2V17.7C34.5999 19.2 35.3999 20.8 36.0999 22.3C36.6999 23.3 36.5999 24 35.7999 24.3Z" fill="#83ECC3"/>
<path d="M55.6999 41.6C51.2999 43.7 46.9999 45.8 42.5999 48C41.6999 48.4 41.0999 48.2 40.5999 47.3C40.0999 46.3 39.5999 45.2 39.0999 44.2C38.9999 44 38.7999 43.7 38.5999 43.7C36.9999 43.2 35.4999 42.5 34.0999 41.5C34.0999 41.5 33.9999 41.4 33.8999 41.4V38.3C35.4999 39.8 37.3999 40.9 39.6999 41.5C40.2999 41.7 40.6999 42 40.9999 42.6C41.3999 43.6 41.8999 44.5 42.3999 45.5C46.1999 43.7 49.9999 41.8 53.7999 40C53.1999 38.8 52.6999 37.7 52.1999 36.6C51.7999 35.9 51.7999 35.3 52.1999 34.6C53.5999 31.6 53.7999 28.4 52.2999 25.4C49.9999 20.5 47.5999 15.6 45.1999 10.7C44.7999 9.90002 44.0999 9.70002 43.3999 10C42.5999 10.4 42.3999 11.1 42.7999 11.9C42.8999 12.1 42.9999 12.3 43.0999 12.4C43.9999 14.3 44.8999 16.1 45.7999 18C46.1999 18.9 45.9999 19.6 45.1999 19.9C44.4999 20.1 43.9999 19.9 43.5999 19.1C42.5999 17 41.5999 14.9 40.5999 12.9C40.1999 12.1 39.4999 11.9 38.7999 12.3C37.9999 12.6 37.7999 13.3 38.0999 14.1C38.2999 14.6 38.5999 15.2 38.8999 15.7C39.6999 17.3 40.3999 18.9 41.1999 20.5C41.3999 21 41.3999 21.5 40.9999 21.9C40.5999 22.3 40.1999 22.4 39.6999 22.2C39.3999 22 39.0999 21.7 38.8999 21.3C37.8999 19.3 36.9999 17.4 35.9999 15.4C35.7999 14.9 35.4999 14.5 34.8999 14.4C34.5999 14.3 34.2999 14.4 33.9999 14.5V12C34.4999 12 35.0999 12 35.5999 12C35.6999 12 35.8999 11.8 35.9999 11.7C36.9999 10.1 38.2999 9.40002 40.1999 9.70002C40.3999 9.70002 40.6999 9.60002 40.7999 9.40002C41.5999 8.00002 42.7999 7.30002 44.4999 7.40002C45.9999 7.50002 47.0999 8.40002 47.6999 9.70002C49.8999 14.3 52.1999 19 54.3999 23.6C56.1999 27.4 56.2999 31.2 54.7999 35C54.6999 35.3 54.6999 35.7 54.7999 35.9C55.3999 37.1 55.9999 38.4 56.5999 39.6C56.7999 40.6 56.6999 41.2 55.6999 41.6Z" fill="#26D07C"/>
<path d="M33.5 15C33.2 15.5 33.2 15.9 33.4 16.4V16.5C33.4 16.6 33.5 16.6 33.5 16.7C33.6 17 33.7 17.2 33.9 17.5V23C33.8 22.7 33.6 22.5 33.5 22.2V22C33.5 22 33.5 22 33.5 21.9C31.7 18.1 29.8 14.4 28 10.6C27.5 9.59999 26.5 9.39999 25.8 9.99999C25.3 10.4 25.2 11 25.6 11.8C28.1 16.9 30.6 22.1 33.1 27.2C33.3 27.6 33.4 27.9 33.6 28.3C33.7 28.5 33.8 28.8 34 29.1V31.3C33.9 31.4 33.8 31.4 33.6 31.5C33.5 31.5 33.3 31.5 33.2 31.5C32.7 31.4 32.4 31.1 32.2 30.6C30.8 27.8 29.5 25 28.1 22.2C27.9 21.7 27.7 21.7 27.2 21.9C25.8 22.5 25.2 24 26 25.4C27.9 28.6 29.9 31.8 31.8 35.1C32.3 36 32.9 36.8 33.6 37.5V37.6C33.7 37.7 33.8 37.9 34 38V41.1V39.2V41.1C33.9 41 33.8 40.9 33.6 40.8L33.5 40.7V40.6L28.4 34.1C28.2 33.8 28.1 33.6 28 33.4C26.7 31.2 25.3 28.9 23.9 26.7C22.1 23.9 23.9 20.9 26 19.9C26.2 19.8 26.4 19.7 26.7 19.6C26.6 19.3 26.5 19.1 26.4 18.8C25.4 16.7 24.3 14.6 23.4 12.5C22.9 11.4 23 10.2 23.5 9.19999C23.8 8.49999 24.4 7.99999 25.2 7.59999C27 6.69999 29.2 7.39999 30.2 9.19999C30.6 9.99999 31 10.7 31.3 11.5C31.4 11.6 32.5 14.1 32.6 14.3C32.6 14.2 31.7 12.3 33.6 11.8C33.6 11.8 33.6 11.8 33.7 11.8C33.8 11.8 33.9 11.8 34.1 11.8V14.3C34 14.4 33.8 14.5 33.7 14.6C33.5 14.9 33.5 14.9 33.5 15C33.5 14.9 33.5 15 33.5 15Z" fill="#83ECC3"/>
<path d="M27.4 5.89999C27.4 6.49999 27 6.89999 26.4 6.99999H26.2999C25.6999 6.99999 25.2 6.49999 25.2 5.89999C25.2 5.29999 25.5999 4.79999 26.2999 4.79999H26.4C27 4.89999 27.4 5.29999 27.4 5.89999Z" fill="#0E0675"/>
<path d="M22.2 5.90001C22.2 6.60001 21.7 7.00001 20.9 7.00001C18.5 7.00001 16.2 7.00001 13.8 7.00001C11.5 7.00001 9.2 7.00001 7 7.00001C6.1 7.00001 5.5 6.50001 5.5 5.80001C5.5 5.10001 6 4.70001 6.9 4.70001C11.6 4.70001 16.2 4.70001 20.9 4.70001C21.6 4.70001 22.2 5.20001 22.2 5.90001Z" fill="#0E0675"/>
</g>
<defs>
<clipPath id="clip0">
<rect width="56.6" height="58.8" fill="white"/>
</clipPath>
</defs>
</svg>
