<?xml version="1.0" encoding="utf-8"?>
<!-- Generator: Adobe Illustrator 25.0.0, SVG Export Plug-In . SVG Version: 6.00 Build 0)  -->
<svg version="1.1" id="Capa_1" xmlns="http://www.w3.org/2000/svg" xmlns:xlink="http://www.w3.org/1999/xlink" x="0px" y="0px"
	 viewBox="0 0 372.5 166.7" style="enable-background:new 0 0 372.5 166.7;" xml:space="preserve">
<style type="text/css">
	.st0{fill:#FFFFFF;}
</style>
<g>
	<g>
		<path class="st0" d="M86.5,80.9v-5.8c0-3.3,0.6-6.4,1.8-9.3c1.2-2.8,2.9-5.3,5.1-7.4c2.2-2.1,4.8-3.8,7.8-4.9
			c3.1-1.2,6.5-1.8,10.3-1.8h19.2l10-15h10.8v5l-10.8,11.7v1c2.4,0.9,4.7,2.2,6.7,4c1.8,1.7,3.3,3.8,4.7,6.4c1.3,2.6,2,6,2,10.3v5.8
			c0,3.3-0.6,6.4-1.8,9.3c-1.2,2.8-2.9,5.3-5.1,7.4c-2.2,2.1-4.8,3.8-7.8,4.9c-3.1,1.2-6.5,1.8-10.3,1.8h-24.2c-3.3,0-5,1.7-5,5v2.5
			c0,3.3,1.7,5,5,5H134c3.8,0,7.2,0.6,10.3,1.8c3.1,1.2,5.7,2.8,7.8,4.9c2.2,2.1,3.9,4.6,5.1,7.4c1.2,2.8,1.8,5.9,1.8,9.3v3.3
			c0,3.3-0.6,6.4-1.8,9.3c-1.2,2.8-2.9,5.3-5.1,7.4c-2.2,2.1-4.8,3.8-7.8,4.9c-3.1,1.2-6.5,1.8-10.3,1.8h-28.3
			c-8,0-14.2-2.2-18.5-6.7c-4.3-4.4-6.5-10-6.5-16.7v-3.3c0-4,0.7-7.2,2.2-9.7c1.4-2.4,3.1-4.4,5-5.8c2-1.6,4.3-2.7,7-3.5v-0.8
			c-1.1-0.4-2.1-1.1-2.8-1.8c-0.9-0.7-1.6-1.5-2.2-2.6s-0.8-2.4-0.8-4.1v-2.7c0-2,0.3-3.6,1-4.9s1.4-2.3,2.3-3.1
			c1-0.8,2.1-1.4,3.3-1.8v-0.8c-1.7-0.9-3.2-2.2-4.5-3.8c-1.3-1.3-2.4-3.1-3.3-5.3C86.9,87,86.5,84.2,86.5,80.9z M92.3,140.1v3.3
			c0,3.8,1.3,6.9,3.8,9.5c2.6,2.6,5.7,3.8,9.5,3.8H134c3.8,0,6.9-1.3,9.5-3.8c2.6-2.6,3.8-5.7,3.8-9.5v-3.3c0-3.8-1.3-6.9-3.8-9.5
			c-2.6-2.6-5.7-3.8-9.5-3.8h-28.3c-3.8,0-6.9,1.3-9.5,3.8S92.3,136.3,92.3,140.1z M98.1,75.1v5.8c0,3.8,1.3,6.9,3.8,9.5
			c2.6,2.6,5.7,3.8,9.5,3.8H129c3.8,0,6.9-1.3,9.5-3.8c2.6-2.6,3.8-5.7,3.8-9.5v-5.8c0-3.8-1.3-6.9-3.8-9.5
			c-2.6-2.6-5.7-3.8-9.5-3.8h-17.5c-3.8,0-6.9,1.3-9.5,3.8S98.1,71.3,98.1,75.1z"/>
		<path class="st0" d="M238.1,138.4h-7.5l-1.7-11.7h-0.8c-1.3,2.4-3.1,4.7-5.2,6.7c-1.8,1.8-3.9,3.3-6.5,4.7c-2.6,1.3-5.6,2-9.2,2
			H194c-8,0-14.2-2.2-18.5-6.7c-4.3-4.4-6.5-10-6.5-16.7v-5c0-3.3,0.6-6.4,1.8-9.2c1.2-2.8,2.9-5.3,5.1-7.4c2.2-2.1,4.8-3.8,7.8-4.9
			c3.1-1.2,6.5-1.8,10.3-1.8h32.5V76.7c0-3.8-1.3-6.9-3.8-9.5c-2.6-2.6-5.7-3.8-9.5-3.8h-36.7v-10h36.7c3.8,0,7.2,0.6,10.3,1.8
			s5.7,2.8,7.8,4.9c2.2,2.1,3.9,4.6,5.1,7.4c1.2,2.8,1.8,5.9,1.8,9.2v61.7H238.1z M194,130.1h13.3c3.1,0,5.9-0.8,8.3-2.3
			c2.4-1.6,4.4-3.3,6.1-5.2c1.9-2.2,3.5-4.7,4.8-7.5V98.4H194c-3.8,0-6.9,1.3-9.5,3.8c-2.6,2.6-3.8,5.7-3.8,9.5v5
			c0,3.8,1.3,6.9,3.8,9.5S190.2,130.1,194,130.1z"/>
		<path class="st0" d="M311.5,51.7v10.8h-15.8c-3.1,0-5.9,0.7-8.3,2.2c-2.4,1.4-4.4,3.1-6.1,4.8c-1.9,2.1-3.5,4.5-4.8,7.2v61.7
			h-11.7v-85h7.5l1.7,11.7h0.8c1.3-2.4,3.1-4.7,5.2-6.7c1.8-1.8,3.9-3.3,6.5-4.7c2.6-1.3,5.6-2,9.2-2L311.5,51.7L311.5,51.7z"/>
		<path class="st0" d="M338.1,53.4v85h-11.7v-85C326.4,53.4,338.1,53.4,338.1,53.4z"/>
	</g>
	<g>
		<path class="st0" d="M0,86c1.4-2.6,3.7-3.2,6.4-2.8c2.8,0.4,4.4-0.7,5.9-3.1C16.4,73.4,20.8,67,25,60.4c1-1.6,2.3-2.6,4.3-2.6
			c13.9,0,27.8,0,41.7,0c0.5,0,1,0.1,1.7,0.2c0,2.5,0,4.9,0,7.6c-1,0-1.9,0-2.7,0c-12.2,0-24.3,0-36.5,0c-1.7,0-2.8,0.5-3.7,2
			c-2.8,4.5-5.7,8.9-8.6,13.3c-0.4,0.6-0.7,1.2-1.3,2.2c2.8,0,5.2-0.1,7.6,0c1.6,0.1,3.2,0.4,4.6,1.1c4.9,2.2,9.4,5.6,14.5,6.8
			c5.2,1.2,10.8,0.3,16.2,0.4c3.3,0,6.5,0,9.9,0c0,2.7,0,5.1,0,7.7c-0.8,0-1.6,0.1-2.3,0.1c-7.9,0-15.8,0.1-23.6,0
			c-1.5,0-2.9-0.6-4.4-1c-0.1,0-0.1-0.1-0.2-0.1c-4.7-2.3-9.2-5.7-14.2-6.7c-5.6-1.2-11.7-0.3-17.6-0.4c-1.2,0-2.2,0-2.2,1.7
			c0.1,7.3,0,14.7,0,22c0,0.4,0.1,0.7,0.2,1.4c21.4,0,42.8,0,64.3,0c0,2.7,0,5.1,0,7.8c-1,0-1.9,0-2.7,0c-8.8,0-17.6,0.1-26.4,0
			c-1.9,0-2.5,0.6-2.4,2.5c0.1,3.1,0.1,6.3,0,9.4c0,3.1-1.7,4.7-4.7,4.7c-7.8,0-15.6,0-23.4,0c-3.1,0-4.7-1.6-4.7-4.7
			c0-3.1-0.1-6.3,0-9.4c0.1-2.1-0.7-2.8-2.6-2.5c-2.6,0.3-4.6-0.6-5.8-3.1C0,109.3,0,97.7,0,86z M24.8,124c-0.7,0-1.4,0-2.1,0
			c-6.6,0-6.6,0-6.4,6.7c0,1.5,0.6,2,2,1.9c2.7-0.1,5.5,0,8.2,0c6.8,0,6.8,0,6.5-6.8c-0.1-1.4-0.6-1.9-1.9-1.8
			C29.1,124,27,124,24.8,124z"/>
		<path class="st0" d="M24.7,99.7c1.4,0,2.9-0.1,4.3,0c2.2,0.1,3.8,1.8,3.8,3.8c0,1.9-1.5,3.8-3.5,3.9c-3.1,0.2-6.3,0.2-9.4,0
			c-2-0.1-3.5-2.1-3.4-4s1.6-3.5,3.7-3.7C21.8,99.6,23.3,99.7,24.7,99.7L24.7,99.7z"/>
	</g>
	<g>
		<path class="st0" d="M332.9,0c14.2,0.3,26.4,4.9,36.8,14.2c0.3,0.3,0.7,0.6,1,1c2.2,2.1,2.5,4.5,0.7,6.3c-1.6,1.7-4.1,1.5-6.2-0.4
			c-0.7-0.7-1.5-1.4-2.2-2C345.3,4,318.9,4.6,301.8,20.4c-0.2,0.2-0.4,0.4-0.7,0.6c-2.2,2-4.7,2.2-6.3,0.4c-1.7-1.8-1.4-4.1,0.9-6.3
			C306.1,5.1,318.7,0.3,332.9,0z"/>
		<path class="st0" d="M333,16.6c10,0.2,18.6,3.5,25.8,10.2c2.2,2.1,2.5,4.5,0.9,6.3c-1.7,1.8-4,1.7-6.3-0.4
			c-12-10.8-28.4-10.8-40.5,0.1c-2.3,2-4.7,2.1-6.3,0.2c-1.6-1.8-1.3-4.1,0.8-6.1C314.5,20,323.2,16.8,333,16.6z"/>
		<path class="st0" d="M318,39.9c-0.3,0.5-0.5,0.9-0.6,1.4C317.5,40.7,317.7,40.3,318,39.9z"/>
		<path class="st0" d="M348.9,42.2c0,0.3,0,0.6-0.1,0.9c-0.4,1.7-1.9,3-3.8,3h-0.1c-0.2,0-0.4,0-0.5,0c-0.2,0-0.4-0.1-0.5-0.1
			s-0.3-0.1-0.4-0.1c-0.2-0.1-0.5-0.2-0.7-0.4c-0.3-0.2-0.7-0.5-1-0.7c-3-2.8-6.6-4.1-10.6-3.2c-2.3,0.5-4.6,1.7-6.6,3.1
			c-0.3,0.2-0.5,0.3-0.8,0.5c-2.2,1.3-4.1,1.3-5.6-0.3c-0.5-0.6-0.8-1.2-1-1.8c0-0.1,0-0.2,0-0.2c0-0.1,0-0.2,0-0.4l0,0
			c0-0.2,0-0.3,0-0.5s0-0.3,0.1-0.5c0.1-0.5,0.3-0.9,0.6-1.4c0,0,0.1-0.1,0.1-0.2c0.3-0.4,0.7-0.9,1.1-1.3c7.7-7,20.1-7,27.7,0.1
			c0.3,0.2,0.5,0.5,0.7,0.8c0.5,0.4,0.9,1,1.1,1.6C348.8,41.3,348.9,41.7,348.9,42.2z"/>
	</g>
</g>
</svg>
