<svg width="16" height="17" viewBox="0 0 16 17" fill="none" xmlns="http://www.w3.org/2000/svg">
<path d="M11.3333 1.83179H4.66659C2.82564 1.83179 1.33325 3.32417 1.33325 5.16512V11.8318C1.33325 13.6727 2.82564 15.1651 4.66659 15.1651H11.3333C13.1742 15.1651 14.6666 13.6727 14.6666 11.8318V5.16512C14.6666 3.32417 13.1742 1.83179 11.3333 1.83179Z" stroke="#F6F6F6" stroke-linecap="round" stroke-linejoin="round"/>
<path d="M10.6666 8.07849C10.7488 8.63332 10.6541 9.19997 10.3957 9.69783C10.1374 10.1957 9.72865 10.5994 9.22764 10.8516C8.72662 11.1038 8.15885 11.1916 7.60508 11.1024C7.0513 11.0133 6.53973 10.7519 6.14311 10.3553C5.7465 9.95865 5.48504 9.44707 5.39593 8.8933C5.30682 8.33953 5.3946 7.77175 5.64677 7.27074C5.89894 6.76973 6.30268 6.36099 6.80054 6.10265C7.29841 5.84432 7.86506 5.74955 8.41989 5.83183C8.98584 5.91575 9.50979 6.17947 9.91435 6.58403C10.3189 6.98859 10.5826 7.51254 10.6666 8.07849Z" stroke="#F6F6F6" stroke-linecap="round" stroke-linejoin="round"/>
<path d="M11.6667 4.83179H11.6734" stroke="#F6F6F6" stroke-linecap="round" stroke-linejoin="round"/>
</svg>
