<svg width="16" height="17" viewBox="0 0 16 17" fill="none" xmlns="http://www.w3.org/2000/svg">
<path d="M10.6667 5.83179C11.7276 5.83179 12.745 6.25321 13.4952 7.00336C14.2453 7.75351 14.6667 8.77092 14.6667 9.83179V14.4985H12.0001V9.83179C12.0001 9.47816 11.8596 9.13903 11.6096 8.88898C11.3595 8.63893 11.0204 8.49845 10.6667 8.49845C10.3131 8.49845 9.97399 8.63893 9.72394 8.88898C9.47389 9.13903 9.33341 9.47816 9.33341 9.83179V14.4985H6.66675V9.83179C6.66675 8.77092 7.08818 7.75351 7.83832 7.00336C8.58847 6.25321 9.60588 5.83179 10.6667 5.83179V5.83179Z" stroke="#F6F6F6" stroke-linecap="round" stroke-linejoin="round"/>
<path d="M3.99992 6.49854H1.33325V14.4985H3.99992V6.49854Z" stroke="#F6F6F6" stroke-linecap="round" stroke-linejoin="round"/>
<path d="M2.66659 4.49845C3.40296 4.49845 3.99992 3.9015 3.99992 3.16512C3.99992 2.42874 3.40296 1.83179 2.66659 1.83179C1.93021 1.83179 1.33325 2.42874 1.33325 3.16512C1.33325 3.9015 1.93021 4.49845 2.66659 4.49845Z" stroke="#F6F6F6" stroke-linecap="round" stroke-linejoin="round"/>
</svg>
