<svg width="59" height="56" viewBox="0 0 59 56" fill="none" xmlns="http://www.w3.org/2000/svg">
<g clip-path="url(#clip0)">
<path d="M44.4 43.5C44.6 43.3 44.8 43.2 45 43C45.1 42.9 45.2 42.8 45.4 42.7C45.1 43 44.8 43.3 44.4 43.5ZM40.8 40.6C41 40.5 41.2 40.3 41.4 40.2C41.4 40.2 41.5 40.1 41.6 40.1C41.3 40.3 41 40.5 40.8 40.6ZM15.5 39.1C15.6 39.2 15.7 39.3 15.7 39.3C15.7 39.3 15.6 39.2 15.5 39.1ZM14.9 38.6C15.1 38.8 15.3 38.9 15.4 39.1C15.2 38.9 14.9 38.6 14.7 38.4C14.8 38.5 14.9 38.5 14.9 38.6ZM13.3 36.7C13.3 36.7 13.3 36.8 13.4 36.8C13.6 37.1 13.8 37.3 14 37.6C13.7 37.3 13.5 37 13.3 36.7ZM9 38.5C9 38.6 9.1 38.6 9 38.5C9.1 38.7 9.2 38.7 9.2 38.8C9.2 38.7 9.1 38.6 9 38.5ZM8.5 37.8C8.5 37.8 8.5 37.9 8.6 37.9C8.6 38 8.7 38 8.7 38.1C8.7 38 8.6 37.9 8.5 37.8Z" fill="#4A25AA"/>
<path d="M53.5001 23.9C53.5001 23.7 53.5001 23.5 53.5001 23.3C53.5001 22.9 53.5001 22.5 53.4001 22.1C53.4001 21.7 53.3001 21.3 53.3001 21V20.9C53.3001 20.6 53.2001 20.2 53.1001 19.9C53.0001 19.5 52.9001 19 52.8001 18.6C52.7001 18.2 52.6001 17.9 52.5001 17.5C52.4001 17.2 52.3001 16.9 52.2001 16.7C52.1001 16.5 52.1001 16.3 52.0001 16C51.9001 15.8 51.8001 15.5 51.7001 15.3C51.6001 15 51.5001 14.8 51.4001 14.5C51.3001 14.4 51.3001 14.2 51.2001 14.1C51.1001 13.9 51.0001 13.6 50.8001 13.4C50.6001 13.2 50.6001 12.9 50.4001 12.7C50.3001 12.5 50.2001 12.3 50.1001 12.1C49.8001 11.6 49.5001 11.1 49.1001 10.6C48.8001 10.2 48.6001 9.89997 48.3001 9.49998C48.0001 9.09998 47.6001 8.69998 47.3001 8.29998C47.0001 7.99998 46.7001 7.69998 46.4001 7.39998C46.1001 7.09998 45.9001 6.89998 45.6001 6.59998C45.5001 6.49998 45.4001 6.39998 45.3001 6.29998C45.0001 6.09998 44.7001 5.79998 44.5001 5.59998C44.4001 5.59998 44.4001 5.49998 44.3001 5.49998C44.0001 5.19998 43.6001 4.99998 43.2001 4.69998C42.8001 4.19998 42.4001 3.99998 42.0001 3.69998C41.6001 3.49998 41.2001 3.19998 40.8001 2.99998C40.4001 2.79998 40.0001 2.59998 39.6001 2.39998C39.2001 2.19998 38.8001 1.99998 38.4001 1.89998C38.1001 1.79998 37.8001 1.69998 37.4001 1.49998C37.1001 1.39998 36.8001 1.29998 36.4001 1.19998C35.8001 0.999976 35.1001 0.799976 34.4001 0.699976C34.0001 0.599976 33.5001 0.499976 33.1001 0.399976C32.7001 0.299976 32.2001 0.299976 31.8001 0.199976C31.5001 0.199976 31.1001 0.0999756 30.8001 0.0999756C30.4001 0.0999756 30.1001 0.0999756 29.7001 0.0999756C29.5001 0.0999756 29.3001 0.0999756 29.1001 0.0999756C28.5001 0.0999756 27.8001 0.0999756 27.2001 0.199976C26.9001 0.199976 26.6001 0.199976 26.3001 0.299976C25.8001 0.399976 25.4001 0.399976 24.9001 0.499976C24.4001 0.599976 24.0001 0.699976 23.5001 0.799976C23.2001 0.899976 23.0001 0.899976 22.7001 0.999976C22.6001 0.999976 22.5001 0.999976 22.4001 1.09998C22.2001 0.999976 21.9001 0.999976 21.7001 1.09998C21.4001 1.19998 21.1001 1.29998 20.8001 1.39998C20.5001 1.49998 20.2001 1.59998 19.9001 1.69998C19.6001 1.89998 19.3001 1.99998 19.0001 2.19998C18.7001 2.29998 18.5001 2.39998 18.2001 2.59998C18.1001 2.59998 18.1001 2.69998 18.0001 2.69998C17.7001 2.79998 17.5001 2.99998 17.2001 3.09998C16.8001 3.29998 16.3001 3.59998 15.9001 3.79998C15.5001 4.09998 15.1001 4.29998 14.7001 4.59998C14.6001 4.69998 14.5001 4.69998 14.4001 4.79998C14.3001 4.89998 14.2001 4.99998 14.0001 5.19998C13.9001 5.29998 13.8001 5.39998 13.7001 5.49998C13.6001 5.59998 13.6001 5.59998 13.5001 5.69998C13.4001 5.69998 13.4001 5.79998 13.4001 5.79998C13.1001 5.89998 13.0001 5.99998 12.8001 6.19998L12.7001 6.29998C12.5001 6.49998 12.3001 6.69998 12.1001 6.79998C9.4001 9.29998 7.4001 12.5 6.1001 16C6.0001 16.1 6.0001 16.3 5.9001 16.4C5.9001 16.5 5.8001 16.7 5.8001 16.8C5.8001 16.9 5.7001 17.1 5.7001 17.2V17.3C5.7001 17.3 5.7001 17.3 5.7001 17.4C5.4001 18.2 5.2001 19 5.0001 19.8C5.0001 20 5.0001 20.2 4.9001 20.4C4.9001 20.4 4.9001 20.4 4.9001 20.5C4.9001 20.7 4.8001 20.9 4.8001 21.1C4.8001 21.5 4.7001 21.9 4.7001 22.3C4.7001 22.6 4.7001 22.9 4.6001 23.2C4.6001 23.3 4.6001 23.3 4.6001 23.4V23.5C4.6001 23.8 4.6001 24.1 4.6001 24.4C4.7001 24.3 4.7001 24.2 4.7001 24.2L8.4001 28.2H9.4001C9.4001 28 9.3001 27.8 9.3001 27.6C9.3001 27.4 9.2001 27.2 9.2001 26.9C9.2001 26.8 9.2001 26.7 9.2001 26.6C9.2001 26.5 9.2001 26.4 9.2001 26.4C9.2001 26.3 9.2001 26.1 9.2001 26C9.2001 25.8 9.2001 25.6 9.2001 25.3C9.2001 25 9.2001 24.8 9.2001 24.5C9.2001 24.1 9.2001 23.7 9.2001 23.3C9.2001 22.9 9.2001 22.6 9.3001 22.2C9.3001 22.1 9.3001 22 9.3001 21.9C9.3001 21.6 9.4001 21.3 9.4001 21.1C9.5001 20.6 9.6001 20.1 9.7001 19.7C9.7001 19.6 9.7001 19.6 9.8001 19.5C9.9001 19.3 9.9001 19.1 10.0001 18.8C10.0001 18.6 10.1001 18.4 10.2001 18.2C10.2001 18 10.3001 17.9 10.4001 17.7C10.5001 17.5 10.5001 17.4 10.6001 17.2C10.6001 17.2 10.6001 17.2 10.6001 17.1C10.6001 17 10.7001 16.9 10.7001 16.7C10.8001 16.4 10.9001 16.1 11.1001 15.9C12.0001 14 13.2001 12.3 14.6001 10.8C14.7001 10.7 14.9001 10.5 15.0001 10.4C15.1001 10.3 15.1001 10.3 15.2001 10.2C15.4001 9.99998 15.5001 9.89997 15.7001 9.69998L15.8001 9.59998C16.0001 9.39998 16.2001 9.19998 16.4001 9.09998C16.5001 8.99998 16.7001 8.89998 16.8001 8.79998C17.0001 8.59998 17.3001 8.39997 17.6001 8.19998C17.8001 7.99998 18.0001 7.89998 18.2001 7.79998C18.4001 7.59998 18.7001 7.49998 18.9001 7.29998C19.1001 7.09998 19.4001 6.99998 19.6001 6.89998C20.1001 6.59998 20.6001 6.39998 21.1001 6.19998C21.3001 6.09998 21.5001 5.99998 21.7001 5.89998C21.8001 5.89998 21.8001 5.79998 21.9001 5.79998C22.1001 5.69998 22.2001 5.69998 22.4001 5.59998C22.6001 5.49998 22.9001 5.39998 23.1001 5.39998C23.4001 5.29998 23.7001 5.19998 24.1001 5.09998C24.4001 4.99998 24.7001 4.89998 25.1001 4.89998C25.4001 4.79998 25.7001 4.79998 26.0001 4.69998C26.2001 4.69998 26.5001 4.59998 26.7001 4.59998C26.9001 4.59998 27.2001 4.49998 27.4001 4.49998C28.4001 4.39998 29.5001 4.39998 30.5001 4.49998C30.7001 4.49998 31.0001 4.49998 31.2001 4.59998H31.3001C31.7001 4.59998 32.0001 4.69998 32.4001 4.69998C32.7001 4.69998 33.1001 4.79998 33.4001 4.89998C33.5001 4.89998 33.5001 4.89998 33.6001 4.89998C33.9001 4.99998 34.2001 4.99998 34.5001 5.09998C34.6001 5.09998 34.6001 5.09998 34.7001 5.19998C35.0001 5.29998 35.4001 5.39998 35.7001 5.49998C36.0001 5.59998 36.4001 5.69998 36.7001 5.89998C37.0001 5.99998 37.3001 6.09998 37.6001 6.29998C37.7001 6.29998 37.7001 6.39998 37.8001 6.39998C38.1001 6.59998 38.4001 6.69998 38.7001 6.89998C39.0001 7.09998 39.3001 7.29998 39.7001 7.49998C40.0001 7.69998 40.2001 7.79998 40.5001 7.99998C40.6001 8.09998 40.8001 8.19998 41.0001 8.29998C41.3001 8.49998 41.5001 8.69998 41.8001 8.89997C42.1001 9.09997 42.3001 9.29998 42.6001 9.49998C42.9001 9.69998 43.2001 9.99998 43.4001 10.3L43.5001 10.4C43.8001 10.6 44.0001 10.9 44.2001 11.2C44.4001 11.5 44.7001 11.7 44.9001 12C44.9001 12 44.9001 12.1 45.0001 12.1C45.2001 12.3 45.4001 12.6 45.6001 12.9C45.7001 13.1 45.9001 13.3 46.0001 13.5C46.2001 13.7 46.3001 14 46.5001 14.2C46.7001 14.4 46.8001 14.7 46.9001 14.9C47.3001 15.7 47.7001 16.5 48.0001 17.3C48.1001 17.5 48.1001 17.6 48.2001 17.7C48.3001 17.9 48.3001 18.1 48.4001 18.3V18.4C48.5001 18.6 48.6001 18.9 48.6001 19.2C48.7001 19.6 48.8001 19.9 48.9001 20.3C49.0001 20.6 49.0001 20.9 49.1001 21.2C49.1001 21.4 49.2001 21.7 49.2001 21.9C49.2001 22.1 49.3001 22.4 49.3001 22.6C49.3001 23.2 49.4001 23.7 49.4001 24.3C49.4001 24.6 49.4001 24.9 49.4001 25.2C49.4001 25.4 49.4001 25.5 49.4001 25.7C49.4001 26.5 49.2001 27.2 49.1001 28H50.5001L53.9001 24.3C53.6001 24.3 53.6001 24.1 53.5001 23.9ZM48.1001 36.3C47.5001 35.8 47.0001 35.2 46.5001 34.4C46.3001 34.7 46.2001 34.9 46.0001 35.2C45.8001 35.5 45.7001 35.7 45.5001 36C45.5001 36.1 45.4001 36.2 45.3001 36.2C45.2001 36.4 45.0001 36.6 44.8001 36.8C44.8001 36.9 44.7001 37 44.6001 37C44.4001 37.3 44.2001 37.5 43.9001 37.8C43.7001 38.1 43.4001 38.3 43.1001 38.6C42.9001 38.9 42.6001 39.1 42.3001 39.4C42.1001 39.6 41.8001 39.8 41.6001 40L41.5001 40.1C41.5001 40.1 41.4001 40.2 41.3001 40.2C41.1001 40.3 40.9001 40.5 40.7001 40.6C40.5001 40.7 40.3001 40.9 40.1001 41C37.6001 42.7 34.6001 43.9 31.4001 44.3C31.1001 44.3 30.8001 44.4 30.5001 44.4C30.3001 44.4 30.2001 44.4 30.0001 44.4C29.7001 44.4 29.3001 44.4 29.0001 44.4C28.6001 44.4 28.2001 44.4 27.8001 44.4C27.5001 44.4 27.1001 44.4 26.8001 44.3C26.6001 44.3 26.5001 44.3 26.3001 44.3C26.1001 44.3 26.0001 44.2 25.8001 44.2C25.6001 44.2 25.4001 44.1 25.2001 44.1C24.5001 44 23.8001 43.8 23.2001 43.6C23.0001 43.5 22.8001 43.5 22.6001 43.4C22.4001 43.3 22.2001 43.3 22.0001 43.2C21.7001 43.1 21.4001 43 21.0001 42.8C20.7001 42.6 20.3001 42.5 20.0001 42.3C19.7001 42.1 19.3001 42 19.0001 41.8C18.8001 41.7 18.6001 41.6 18.4001 41.4C18.2001 41.3 18.0001 41.2 17.8001 41C17.4001 40.8 17.0001 40.5 16.7001 40.2C16.5001 40.1 16.3001 39.9 16.2001 39.8C16.0001 39.7 15.9001 39.5 15.7001 39.3C15.6001 39.2 15.5001 39.1 15.5001 39.1C15.3001 38.9 15.1001 38.8 15.0001 38.6C14.9001 38.5 14.9001 38.5 14.8001 38.4C14.5001 38.1 14.3001 37.9 14.0001 37.6C13.8001 37.4 13.6001 37.1 13.4001 36.8L13.3001 36.7C13.2001 36.6 13.2001 36.6 13.1001 36.5C12.9001 36.3 12.8001 36.1 12.6001 35.9C12.4001 35.6 12.2001 35.4 12.1001 35.1C12.1001 35.1 12.1001 35.1 12.1001 35C12.0001 34.9 12.0001 34.8 11.9001 34.7C11.4001 35.4 11.0001 35.9 10.5001 36.3L9.8001 39.6C10.4001 40.4 11.1001 41.1 11.8001 41.8C12.1001 42.1 12.4001 42.4 12.8001 42.7C13.1001 43 13.4001 43.2 13.7001 43.5C13.9001 43.7 14.2001 43.9 14.4001 44C14.5001 44.1 14.6001 44.2 14.7001 44.2C14.9001 44.4 15.2001 44.5 15.4001 44.7C15.5001 44.8 15.7001 44.9 15.8001 45C16.0001 45.1 16.2001 45.3 16.4001 45.4C16.6001 45.6 16.9001 45.7 17.1001 45.8C17.2001 45.9 17.3001 46 17.5001 46C17.7001 46.1 18.0001 46.3 18.2001 46.4C18.4001 46.5 18.6001 46.6 18.8001 46.7C18.9001 46.8 19.1001 46.8 19.2001 46.9C19.5001 47 19.8001 47.2 20.1001 47.3H20.2001C20.6001 47.5 20.9001 47.6 21.3001 47.7C21.3001 47.7 21.3001 47.7 21.4001 47.7C21.8001 47.8 22.2001 47.9 22.6001 48.1C23.0001 48.2 23.4001 48.3 23.9001 48.4C24.3001 48.5 24.8001 48.6 25.2001 48.6C25.5001 48.6 25.8001 48.7 26.1001 48.7C26.4001 48.7 26.7001 48.8 26.9001 48.8H27.0001C27.7001 48.8 28.3001 48.9 29.0001 48.9C29.3001 48.9 29.5001 48.9 29.8001 48.9C29.9001 48.9 29.9001 48.9 30.0001 48.9C35.0001 48.7 39.7001 47 43.5001 44.2C43.6001 44.1 43.7001 44 43.8001 44C43.9001 43.9 44.0001 43.8 44.1001 43.8L44.3001 43.7C44.3001 43.7 44.4001 43.7 44.4001 43.6C44.6001 43.4 44.8001 43.3 45.0001 43.1C45.1001 43 45.2001 42.9 45.4001 42.8C45.6001 42.6 45.9001 42.4 46.1001 42.1C46.4001 41.8 46.6001 41.6 46.9001 41.3C47.2001 41 47.5001 40.7 47.8001 40.3C48.0001 40 48.2001 39.8 48.5001 39.5C48.6001 39.4 48.6001 39.3 48.7001 39.3L48.1001 36.3Z" fill="#4A25AA"/>
<path d="M27.1001 48.9C27.8001 49 28.4001 49 29.1001 49C28.4001 49 27.7001 48.9 27.1001 48.9Z" fill="#1D1D1B"/>
<path d="M25.1001 48.6C25.7001 48.7 26.4001 48.8 27.1001 48.8C26.4001 48.8 25.7001 48.7 25.1001 48.6Z" fill="#1D1D1B"/>
<path d="M15.5999 9.70001C15.3999 9.90001 15.0999 10.1 14.8999 10.4C14.9999 10.3 14.9999 10.3 15.0999 10.2C15.2999 10 15.4999 9.80001 15.5999 9.70001Z" fill="#1D1D1B"/>
<path d="M36.3999 1.09998C35.7999 0.899976 35.0999 0.699976 34.3999 0.599976C35.0999 0.699976 35.7999 0.899976 36.3999 1.09998Z" fill="#1D1D1B"/>
<path d="M53.5 25.3C53.5 25.2 53.5 25.1 53.5 24.9C53.6 25 53.5 25.1 53.5 25.3Z" fill="#1D1D1B"/>
<path d="M5 20.1C5 20.2 5 20.3 5 20.3C5 20.2 5 20 5 19.8C5 19.9 5 20 5 20.1ZM5.9 16.7C5.9 16.8 5.9 16.8 5.8 16.9C5.8 16.8 5.9 16.6 5.9 16.5C5.9 16.5 5.9 16.6 5.9 16.7ZM6.1 16C6.1 16.2 6 16.3 5.9 16.4C6 16.3 6 16.1 6.1 16ZM9.2 26.9C9.2 26.7 9.2 26.5 9.1 26.3C9.1 26.4 9.1 26.5 9.1 26.5C9.2 26.7 9.2 26.8 9.2 26.9Z" fill="#4A25AA"/>
<path d="M12.7001 6.29999C12.5001 6.49999 12.3001 6.69999 12.1001 6.79999C12.2001 6.69999 12.3001 6.59999 12.4001 6.49999L12.7001 6.29999Z" fill="#1D1D1B"/>
<path d="M13.4 5.59998C13.3 5.59998 13.3 5.69998 13.3 5.69998C13.3 5.69998 13.4 5.69998 13.4 5.59998Z" fill="#1D1D1B"/>
<path d="M46.9 22.9C46.8 21.9 46.8 21.9 45.8 21.7C42.1 20.8 38.4 19.9 34.7 19C34.1 18.8 33.4 18.7 32.8 18.6C32.4 18.5 32 18.5 31.6 18.5C31.4 18.5 31.1 18.5 30.9 18.5C30.7 18.5 30.6 18.5 30.4 18.5C30.3 18.5 30.1 18.5 30 18.5C29.5 18.5 29.1 18.5 28.6 18.5C28.5 18.5 28.3 18.5 28.1 18.5C27.9 18.5 27.8 18.5 27.6 18.5C27.4 18.5 27.1 18.5 26.9 18.5C26.5 18.5 26.1 18.6 25.7 18.6C25.4 18.6 25.1 18.7 24.7 18.8C24.3 18.9 24.1 18.9 23.7 19C20 19.8 16.3 20.8 12.7 21.7C11.7 21.9 11.7 21.9 11.6 22.9C11.6 23.2 11.6 23.6 11.5 23.9C11.5 24.3 11.5 24.6 11.5 25C11.5 25.2 11.5 25.4 11.5 25.5C11.5 25.6 11.5 25.7 11.5 25.8C11.5 26 11.5 26.2 11.6 26.4C11.6 26.4 11.6 26.4 11.7 26.4H20.8C20.9 26.4 21 26.4 21 26.4C21.1 26.4 21.1 26.4 21.2 26.4C21.3 26.4 21.4 26.4 21.4 26.4C21.7 26.4 22.1 26.5 22.4 26.5C25.2 27.1 27.1 29.5 27.1 32.4C27.1 35.3 27.1 38.2 27.1 41.2V42H31.1V41.2C31.1 38.3 31.1 35.4 31.1 32.4C31.1 29.5 33 27.1 35.8 26.5C36.1 26.4 36.5 26.4 36.8 26.4C36.9 26.4 37 26.4 37 26.4C37.1 26.4 37.1 26.4 37.2 26.4C37.3 26.4 37.4 26.4 37.4 26.4H46.5C46.5 26.4 46.5 26.4 46.6 26.3C46.6 26.1 46.7 25.9 46.7 25.7C46.7 25.6 46.7 25.5 46.7 25.4C46.7 25.3 46.7 25.2 46.7 25.1V23.9C47 23.7 47 23.3 46.9 22.9ZM29.6 27.8C29.5 27.8 29.4 27.8 29.2 27.8C29.1 27.8 29 27.8 28.9 27.8C27 27.7 25.6 26.1 25.6 24.2C25.6 22.2 27.2 20.6 29.2 20.6H29.4C31.4 20.6 33 22.2 33 24.2C32.9 26.1 31.5 27.7 29.6 27.8Z" fill="#4A25AA"/>
<path d="M46.2999 19.5C46.2 19.5 46.1999 19.5 46.0999 19.4C44.5999 19 43.1999 18.7 41.7999 18.4C39.1999 17.8 36.7 17.1 34 16.6C30 15.8 26 16.1 22 17.1C18.9 17.9 15.7 18.6 12.6 19.4C12.5 19.4 12.4 19.4 12.2 19.5C13.4 14.5 18.3 8.50003 25.7 7.00003H25.8C26.5 6.90003 27.3 6.80003 28.1 6.70003C38.1 6.20003 44.7 13.1 46.2999 19.5Z" fill="#4A25AA"/>
<path d="M24.8999 41.7C24.0999 41.4 23.2999 41.2 22.5999 40.9C19.3999 39.6 16.6999 37.5 14.6999 34.6C14.3999 34.2 14.3999 33.9 14.3999 33.5C14.4999 32 14.3999 30.6 14.4999 29.1C14.4999 29 14.4999 28.9 14.4999 28.7C14.5999 28.7 14.7999 28.7 14.8999 28.7C17.0999 28.7 19.1999 28.7 21.3999 28.7C23.3999 28.7 24.9999 30.4 24.9999 32.4C24.9999 35.3 24.9999 38.2 24.9999 41.2C24.9999 41.3 24.9999 41.5 24.8999 41.7Z" fill="#4A25AA"/>
<path d="M44.2001 33.9C44.2001 34.2 44.0001 34.5 43.8001 34.8C41.4001 38.1 38.3001 40.4 34.4001 41.6C34.2001 41.7 34.0001 41.7 33.8001 41.7C33.7001 41.7 33.7001 41.7 33.6001 41.7V41.1C33.6001 38.3 33.6001 35.5 33.6001 32.7C33.6001 30.4 35.2001 28.8 37.5001 28.8C39.5001 28.8 41.5001 28.8 43.5001 28.8C43.7001 28.8 43.9001 28.8 44.0001 28.8C44.0001 29.8 44.0001 30.8 44.0001 31.8C44.0001 32.3 44.0001 32.9 44.1001 33.4C44.2001 33.6 44.2001 33.7 44.2001 33.9Z" fill="#4A25AA"/>
<path d="M30.7001 24.2C30.7001 25 30.1001 25.6 29.2001 25.6C28.4001 25.6 27.8 25 27.8 24.2C27.8 23.4 28.4001 22.8 29.2001 22.8C30.0001 22.8 30.7001 23.4 30.7001 24.2Z" fill="#4A25AA"/>
<path d="M58.5 40.7L57.2999 41.8L53.9 36L53.5999 36.1C52.6999 36.7 51.8 37.1 50.9 37.2L53.2999 55.4L52.0999 56L48.7 39.2C48.7 39.2 48.6999 39.1 48.7999 39.1C48.8999 39 49 38.9 49 38.8C49.4 38.3 49.6999 37.7 50.0999 37.2C50.5999 36.3 51.1 35.4 51.5 34.5C52.8 31.6 53.4999 28.5 53.5999 25.3C53.5999 25.2 53.5999 25.1 53.5999 24.9C53.5999 24.8 53.5999 24.7 53.5999 24.5L53.9 24.2C53.9 24.2 58.4 31 56 34.1L58.5 40.7Z" fill="#83ECC3"/>
<path d="M53.6 24.5C53.6 24.6 53.6 24.8 53.6 24.9V25C53.6 25.1 53.6 25.2 53.6 25.2C53.5 28.3 52.8 31.5 51.5 34.4C51.1 35.3 50.6 36.2 50.1 37.1C49.4 37 48.8 36.7 48.1 36.2C47.5 35.7 47 35.1 46.5 34.3C43.6 29.7 45.8 28.1 45.8 28.1H50.2L53.6 24.5Z" fill="#26D07C"/>
<path d="M50 37.2C49.7 37.8 49.3 38.3 48.9 38.8C48.8 38.9 48.8 39 48.7 39.1C48.7 39.1 48.7 39.2 48.6 39.2L48 36.3C48.7 36.8 49.3 37.1 50 37.2Z" fill="#26D07C"/>
<path d="M12.1001 34.4C12.0001 34.5 12.0001 34.6 11.9001 34.7C11.4001 35.4 11.0001 35.9 10.5001 36.3C9.7001 36.9 9.0001 37.2 8.2001 37.2C7.6001 36.2 7.1001 35.2 6.6001 34.2C5.6001 31.9 5.0001 29.4 4.7001 27C4.7001 26.7 4.6001 26.4 4.6001 26.2C4.6001 26 4.6001 25.7 4.6001 25.5C4.6001 25.2 4.6001 24.9 4.6001 24.6V24.5C4.7001 24.4 4.7001 24.3 4.7001 24.3L8.4001 28.3H12.8001C12.8001 28.2 15.0001 29.8 12.1001 34.4Z" fill="#26D07C"/>
<path d="M10.5 36.3L9.79995 39.6C9.59995 39.4 9.39995 39.1 9.29995 38.9C9.19995 38.8 9.19995 38.7 9.09995 38.6C8.99995 38.5 8.89995 38.3 8.79995 38.2C8.69995 38.1 8.59995 38 8.59995 37.9L8.49995 37.8C8.39995 37.7 8.39995 37.6 8.29995 37.5L8.19995 37.4C8.89995 37.2 9.69995 36.9 10.5 36.3Z" fill="#26D07C"/>
<path d="M9.8 39.6L6.5 56L5.3 55.4L7.7 37.2C6.8 37.1 5.9 36.7 5 36.1L4.7 36L1.2 41.8L0 40.7L2.6 34C0.5 31.2 4 25.3 4.6 24.3V24.4C4.6 24.7 4.6 25 4.6 25.3C4.6 25.5 4.6 25.8 4.6 26C4.6 26.3 4.6 26.6 4.7 26.8C4.9 29.3 5.6 31.7 6.6 34C7 35 7.6 36.1 8.2 37L8.3 37.1C8.3 37.2 8.4 37.3 8.5 37.4L8.6 37.5C8.7 37.6 8.7 37.7 8.8 37.8C8.9 37.9 9 38.1 9.1 38.2C9.2 38.3 9.2 38.4 9.3 38.5C9.4 39.1 9.6 39.3 9.8 39.6Z" fill="#83ECC3"/>
</g>
<defs>
<clipPath id="clip0">
<rect width="58.5" height="56" fill="white"/>
</clipPath>
</defs>
</svg>
