<svg width="58" height="60" viewBox="0 0 58 60" fill="none" xmlns="http://www.w3.org/2000/svg">
<g clip-path="url(#clip0)">
<rect width="57.5" height="60" fill="white"/>
<path d="M44.3 40.1C44.5 39.9 44.6 39.7 44.8 39.5C44.9 39.4 45 39.2 45.1 39.1C44.8 39.4 44.5 39.8 44.3 40.1ZM40.1 38C40.3 37.8 40.4 37.6 40.6 37.5C40.6 37.5 40.7 37.4 40.7 37.3C40.5 37.5 40.3 37.8 40.1 38ZM15 41.7C15.1 41.8 15.2 41.8 15.3 41.9C15.2 41.8 15.1 41.8 15 41.7ZM14.4 41.3C14.6 41.4 14.8 41.6 15 41.7C14.7 41.5 14.4 41.3 14.1 41.1C14.2 41.2 14.3 41.3 14.4 41.3ZM12.4 39.8L12.5 39.9C12.7 40.1 13 40.3 13.3 40.5C12.9 40.3 12.6 40 12.4 39.8ZM8.6 42.5C8.7 42.6 8.8 42.7 8.9 42.7C8.8 42.7 8.7 42.6 8.6 42.5ZM8 41.9L8.1 42C8.2 42.1 8.2 42.1 8.3 42.2C8.1 42 8 42 8 41.9Z" fill="#4A25AA"/>
<path d="M49.2 19C49.2 18.8 49.1 18.6 49.1 18.4C49 18 48.9 17.6 48.8 17.2C48.7 16.8 48.6 16.5 48.4 16.1V16C48.3 15.7 48.2 15.3 48 15C47.8 14.6 47.7 14.2 47.5 13.8C47.3 13.5 47.2 13.1 47 12.8C46.9 12.5 46.7 12.3 46.6 12C46.5 11.8 46.4 11.6 46.2 11.4C46.1 11.2 45.9 11 45.8 10.8C45.6 10.6 45.5 10.3 45.3 10.1C45.2 9.99998 45.1 9.89997 45 9.69998C44.8 9.49998 44.7 9.29998 44.5 9.09998C44.2 8.99998 44 8.79998 43.8 8.49998C43.7 8.29998 43.5 8.19998 43.4 7.99998C43 7.59998 42.6 7.09998 42.1 6.69998C41.8 6.39998 41.4 6.09998 41.1 5.79998C40.7 5.39998 40.3 5.09998 39.8 4.79998C39.5 4.49998 39.1 4.29998 38.8 4.09998C38.5 3.89998 38.2 3.69998 37.8 3.49998C37.7 3.39998 37.5 3.29998 37.4 3.29998C37.1 3.09998 36.8 2.89998 36.4 2.79998C36.3 2.79998 36.3 2.69998 36.2 2.69998C35.8 2.49998 35.4 2.29998 35 2.09998C34.6 1.89998 34.1 1.69998 33.7 1.59998C33.3 1.39998 32.8 1.29998 32.4 1.19998C32 0.999976 31.5 0.899976 31.1 0.799976C30.7 0.699976 30.2 0.599976 29.8 0.499976C29.5 0.399976 29.1 0.399976 28.8 0.299976C28.5 0.199976 28.1 0.199976 27.8 0.199976C27.1 0.0999756 26.4 0.0999756 25.8 0.0999756C25.3 0.0999756 24.9 0.0999756 24.4 0.0999756C23.9 0.0999756 23.5 0.0999756 23 0.199976C22.7 0.199976 22.4 0.299976 22 0.299976C21.6 0.399976 21.3 0.399976 20.9 0.499976C20.7 0.499976 20.5 0.599976 20.3 0.599976C19.7 0.699976 19.1 0.899976 18.4 1.09998C18.1 1.19998 17.8 1.29998 17.5 1.39998C17.1 1.49998 16.6 1.69998 16.2 1.89998C15.8 1.99998 15.4 2.19998 15 2.39998C14.7 2.49998 14.5 2.69998 14.2 2.79998C14.1 2.79998 14 2.89998 14 2.89998C13.8 2.99998 13.5 3.09998 13.3 3.29998C13 3.49998 12.8 3.59998 12.5 3.79998C12.2 3.99998 12 4.09998 11.7 4.29998C11.4 4.49998 11.2 4.69998 10.9 4.89998C10.7 5.09998 10.5 5.19998 10.2 5.39998C10.1 5.39998 10.1 5.49998 10.1 5.49998C9.80001 5.59998 9.60001 5.79998 9.40001 5.99998C9.00001 6.29998 8.60001 6.69998 8.30001 6.99998C8.00001 7.29998 7.60001 7.69998 7.30001 8.09998C7.20001 8.09998 7.10001 8.19998 7.00001 8.29998C6.90001 8.49998 6.70001 8.69998 6.60001 8.79998C6.50001 8.99998 6.40001 9.09997 6.30001 9.19998C6.30001 9.29998 6.20001 9.29997 6.10001 9.39997L6.00001 9.49998C5.90001 9.69998 5.80001 9.89997 5.70001 9.99998C5.70001 10.1 5.60001 10.1 5.60001 10.2C5.50001 10.4 5.30001 10.6 5.20001 10.8C3.10001 13.8 1.70001 17.3 1.20001 21C1.20001 21.1 1.20001 21.3 1.10001 21.5C1.10001 21.6 1.10001 21.8 1.10001 21.9C1.10001 22 1.10001 22.2 1.10001 22.3V22.4V22.5C1.00001 23.3 1.00001 24.2 1.00001 25C1.00001 25.2 1.00001 25.4 1.00001 25.5C1.00001 25.5 1.00001 25.5 1.00001 25.6C1.00001 25.8 1.00001 26 1.00001 26.2C0.900011 26.6 1.00001 27 1.00001 27.4C1.00001 27.7 1.10001 28 1.10001 28.3C1.10001 28.4 1.10001 28.4 1.10001 28.5V28.6C1.10001 28.9 1.20001 29.2 1.30001 29.5C1.30001 29.4 1.40001 29.3 1.40001 29.3L5.90001 32.5L6.90001 32.3C6.80001 32.1 6.70001 31.9 6.70001 31.7C6.60001 31.5 6.50001 31.3 6.50001 31.1C6.50001 31 6.40001 30.9 6.40001 30.8C6.40001 30.7 6.30001 30.6 6.30001 30.6C6.30001 30.5 6.20001 30.3 6.20001 30.2C6.10001 29.9 6.00001 29.7 6.00001 29.5C5.90001 29.2 5.90001 29 5.80001 28.7C5.70001 28.3 5.60001 27.9 5.60001 27.5C5.50001 27.1 5.50001 26.8 5.50001 26.4C5.50001 26.3 5.50001 26.2 5.50001 26.1C5.50001 25.8 5.50001 25.5 5.50001 25.3C5.50001 24.8 5.50001 24.3 5.50001 23.8C5.50001 23.7 5.50001 23.7 5.50001 23.6C5.50001 23.4 5.50001 23.1 5.60001 22.9C5.60001 22.7 5.60001 22.5 5.70001 22.3C5.70001 22.1 5.70001 21.9 5.80001 21.8C5.80001 21.6 5.90001 21.5 5.90001 21.3C5.90001 21.3 5.90001 21.3 5.90001 21.2C5.90001 21.1 5.90001 20.9 6.00001 20.8C6.00001 20.5 6.10001 20.2 6.20001 19.9C6.70001 17.9 7.50001 15.9 8.60001 14.2C8.70001 14 8.80001 13.8 8.90001 13.7C8.90001 13.6 9.00001 13.5 9.00001 13.5C9.10001 13.3 9.30001 13.1 9.40001 13L9.50001 12.9C9.60001 12.7 9.80001 12.5 10 12.3C10.1 12.2 10.2 12 10.3 11.9C10.5 11.7 10.7 11.4 10.9 11.2C11.1 11 11.2 10.8 11.4 10.6C11.6 10.4 11.8 10.2 12 9.99998C12.2 9.79998 12.4 9.59997 12.6 9.39997C13 8.99998 13.5 8.69998 13.9 8.39997C14.1 8.29997 14.3 8.09998 14.5 7.99998C14.6 7.99998 14.6 7.89998 14.7 7.89998C14.8 7.79998 15 7.69998 15.1 7.59998C15.3 7.49998 15.5 7.29998 15.7 7.19998C16 6.99998 16.3 6.89998 16.6 6.69998C16.9 6.59998 17.2 6.39998 17.5 6.29998C17.8 6.19998 18.1 6.09998 18.4 5.89998C18.6 5.79998 18.9 5.69998 19.1 5.69998C19.3 5.59998 19.5 5.59998 19.8 5.49998C20.8 5.19998 21.8 4.99998 22.8 4.79998C23 4.79998 23.3 4.69998 23.5 4.69998H23.6C24 4.69998 24.3 4.59998 24.7 4.59998C25.1 4.59998 25.4 4.59998 25.7 4.59998C25.8 4.59998 25.8 4.59998 25.9 4.59998C26.2 4.59998 26.5 4.59998 26.8 4.59998C26.9 4.59998 27 4.59998 27 4.59998C27.3 4.59998 27.7 4.69998 28 4.69998C28.4 4.69998 28.7 4.79998 29.1 4.89998C29.4 4.99998 29.7 4.99998 30 5.09998C30.1 5.09998 30.2 5.09998 30.2 5.19998C30.5 5.29998 30.9 5.39998 31.2 5.49998C31.6 5.59998 31.9 5.69998 32.3 5.89998C32.5 5.99998 32.8 6.09998 33 6.19998C33.2 6.29998 33.3 6.29998 33.5 6.39998C33.8 6.49998 34.1 6.69998 34.4 6.79998C34.7 6.99998 35 7.09998 35.3 7.29998C35.6 7.49998 35.9 7.69998 36.2 7.89998L36.3 7.99998C36.6 8.19998 36.9 8.39998 37.2 8.59998C37.5 8.79998 37.8 8.99998 38.1 9.29998C38.1 9.29998 38.1 9.29997 38.2 9.39997C38.4 9.59997 38.7 9.79998 38.9 9.99998C39.1 10.2 39.3 10.3 39.5 10.5C39.7 10.7 39.9 10.9 40.1 11.1C40.3 11.3 40.5 11.5 40.7 11.7C41.3 12.4 41.8 13.1 42.3 13.8C42.4 13.9 42.5 14.1 42.5 14.2C42.6 14.4 42.7 14.6 42.8 14.8C42.8 14.8 42.8 14.9 42.9 14.9C43 15.1 43.2 15.4 43.3 15.6C43.5 15.9 43.6 16.3 43.8 16.6C43.9 16.9 44 17.2 44.2 17.5C44.3 17.7 44.4 17.9 44.4 18.2C44.5 18.4 44.6 18.7 44.6 18.9C44.8 19.4 44.9 20 45 20.5C45.1 20.8 45.1 21.1 45.2 21.4C45.2 21.6 45.3 21.7 45.3 21.9C45.4 22.7 45.5 23.4 45.5 24.2L46.9 23.9L49.5 19.6C49.2 19.4 49.2 19.2 49.2 19ZM46.3 32.3C45.7 32 45 31.5 44.3 30.8C44.2 31.1 44.1 31.4 44 31.7C43.9 32 43.8 32.3 43.7 32.5C43.7 32.6 43.6 32.7 43.6 32.8C43.5 33 43.4 33.3 43.3 33.5C43.3 33.6 43.2 33.7 43.2 33.8C43.1 34.1 42.9 34.4 42.7 34.7C42.5 35 42.3 35.3 42.1 35.6C41.9 35.9 41.7 36.2 41.5 36.5C41.3 36.8 41.1 37 40.9 37.3C40.9 37.4 40.8 37.4 40.8 37.4C40.8 37.5 40.7 37.5 40.7 37.6C40.5 37.8 40.4 38 40.2 38.1C40 38.3 39.9 38.4 39.7 38.6C37.6 40.8 34.9 42.6 31.8 43.6C31.5 43.7 31.3 43.8 31 43.9C30.8 44 30.7 44 30.5 44C30.2 44.1 29.8 44.2 29.5 44.2C29.1 44.3 28.7 44.4 28.3 44.4C28 44.5 27.6 44.5 27.3 44.5C27.2 44.5 27 44.5 26.8 44.5C26.6 44.5 26.5 44.5 26.3 44.5C26.1 44.5 25.9 44.5 25.7 44.5C25 44.5 24.3 44.5 23.6 44.4C23.4 44.4 23.2 44.4 22.9 44.3C22.7 44.3 22.5 44.3 22.3 44.2C22 44.2 21.6 44.1 21.3 44C20.9 43.9 20.6 43.8 20.2 43.7C19.8 43.6 19.5 43.5 19.1 43.4C18.9 43.3 18.7 43.3 18.4 43.2C18.2 43.1 18 43 17.7 42.9C17.3 42.7 16.8 42.5 16.4 42.3C16.2 42.2 16 42.1 15.8 42C15.6 41.9 15.4 41.8 15.2 41.7C15.1 41.6 15 41.6 14.9 41.5C14.7 41.4 14.5 41.3 14.3 41.1C14.2 41 14.1 41 14 40.9C13.7 40.7 13.4 40.5 13.1 40.2C12.8 40 12.6 39.8 12.3 39.6L12.2 39.5C12.1 39.4 12.1 39.4 12 39.3C11.8 39.1 11.6 38.9 11.4 38.8C11.2 38.6 10.9 38.4 10.7 38.1C10.7 38.1 10.7 38.1 10.6 38C10.5 37.9 10.5 37.8 10.4 37.8C10.1 38.6 9.70001 39.2 9.30001 39.7V43.1C10.1 43.7 10.9 44.3 11.7 44.9C12.1 45.2 12.5 45.4 12.8 45.6C13.1 45.8 13.5 46 13.8 46.2C14.1 46.3 14.3 46.5 14.6 46.6C14.7 46.7 14.8 46.7 14.9 46.7C15.2 46.8 15.4 46.9 15.7 47C15.9 47.1 16 47.1 16.2 47.2C16.4 47.3 16.6 47.4 16.9 47.4C17.2 47.5 17.4 47.6 17.7 47.6C17.8 47.7 18 47.7 18.1 47.7C18.4 47.8 18.6 47.9 18.9 47.9C19.1 48 19.3 48 19.5 48.1C19.6 48.1 19.8 48.2 19.9 48.2C20.2 48.3 20.5 48.3 20.8 48.4H20.9C21.3 48.5 21.7 48.5 22 48.6H22.1C23 49 23.4 49 23.8 49C24.2 49 24.7 49 25.1 49.1C25.5 49.1 26 49.1 26.4 49.1C26.7 49.1 27 49.1 27.3 49C27.6 49 27.9 48.9 28.1 48.9H28.2C28.9 48.8 29.5 48.7 30.2 48.6C30.5 48.5 30.7 48.5 30.9 48.4C31 48.4 31 48.4 31.1 48.3C36 47.1 40.2 44.4 43.3 40.9C43.4 40.8 43.5 40.7 43.6 40.6C43.7 40.5 43.8 40.4 43.9 40.3L44 40.1L44.1 40C44.3 39.8 44.4 39.6 44.6 39.4C44.7 39.3 44.8 39.1 44.9 39C45.1 38.7 45.3 38.5 45.5 38.2C45.7 37.9 45.9 37.6 46.1 37.2C46.3 36.8 46.5 36.5 46.7 36.1C46.9 35.8 47 35.5 47.2 35.2C47.2 35.1 47.3 35 47.3 34.9L46.3 32.3Z" fill="#0E0675"/>
<path d="M28.3999 48.9C29.0999 48.8 29.6999 48.7 30.3999 48.6C29.6999 48.7 28.9999 48.8 28.3999 48.9Z" fill="#1D1D1B"/>
<path d="M26.3999 49.1C27.0999 49.1 27.6999 49 28.3999 48.9C27.6999 49 27.0999 49 26.3999 49.1Z" fill="#1D1D1B"/>
<path d="M30.3 48.6C30.6 48.5 30.8 48.5 31.1 48.4C30.9 48.5 30.6 48.5 30.3 48.6C30.4 48.6 30.3 48.6 30.3 48.6Z" fill="#1D1D1B"/>
<path d="M31.1001 48.4C31.2001 48.4 31.2001 48.4 31.3001 48.3L31.1001 48.4Z" fill="#1D1D1B"/>
<path d="M9.1001 12.9C8.9001 13.2 8.7001 13.4 8.6001 13.7C8.6001 13.6 8.7001 13.5 8.7001 13.5C8.9001 13.3 9.0001 13.1 9.1001 12.9Z" fill="#1D1D1B"/>
<path d="M26.4001 0H26.0001C25.4001 0 24.7001 0 24.1001 0.1C24.8001 0 25.4001 0 26.0001 0C26.2001 0 26.3001 0 26.4001 0Z" fill="#1D1D1B"/>
<path d="M33.3999 1.09998C32.7999 0.899976 32.0999 0.699976 31.3999 0.599976C32.0999 0.799976 32.7999 0.899976 33.3999 1.09998Z" fill="#1D1D1B"/>
<path d="M49.4001 20.3C49.4001 20.2 49.4 20.1 49.3 19.9C49.4 20.1 49.4001 20.2 49.4001 20.3Z" fill="#1D1D1B"/>
<path d="M0.800049 25.3C0.800049 25.4 0.800049 25.5 0.800049 25.6C0.800049 25.4 0.800049 25.2 0.800049 25.1C0.800049 25.1 0.800049 25.2 0.800049 25.3ZM1.00005 21.7C1.00005 21.8 1.00005 21.8 1.00005 21.9C1.00005 21.8 1.00005 21.6 1.00005 21.5C1.00005 21.6 1.00005 21.6 1.00005 21.7ZM1.10005 21C1.10005 21.2 1.10005 21.3 1.00005 21.5C1.00005 21.3 1.10005 21.2 1.10005 21ZM6.40005 31.1C6.30005 30.9 6.30005 30.7 6.20005 30.6C6.20005 30.7 6.20005 30.8 6.30005 30.8C6.40005 30.9 6.40005 31 6.40005 31.1Z" fill="#4A25AA"/>
<path d="M5.5001 10.2C5.4001 10.4 5.2001 10.6 5.1001 10.8C5.2001 10.7 5.2001 10.6 5.3001 10.5L5.5001 10.2Z" fill="#1D1D1B"/>
<path d="M6.1 9.40002L6 9.50002C6.1 9.50002 6.1 9.40002 6.1 9.40002Z" fill="#1D1D1B"/>
<path d="M42.5 19.4C42.2 18.4 42.2 18.4 41.2 18.4C37.4 18.3 33.6 18.1 29.8 18.1C29.1 18.1 28.5 18.1 27.8 18.1C27.4 18.1 27 18.2 26.6 18.2C26.4 18.2 26.1 18.3 25.9 18.3C25.7 18.3 25.6 18.3 25.4 18.4C25.3 18.4 25.1 18.4 25 18.5C24.5 18.6 24.1 18.7 23.6 18.8C23.5 18.8 23.3 18.9 23.2 18.9C23 18.9 22.9 19 22.7 19C22.5 19.1 22.2 19.1 22 19.2C21.6 19.3 21.2 19.4 20.8 19.6C20.5 19.7 20.2 19.8 19.9 20C19.6 20.1 19.3 20.2 19 20.4C15.6 22 12.2 23.7 8.70003 25.3C7.80003 25.7 7.70003 25.8 7.90003 26.8C8.00003 27.1 8.00003 27.5 8.10003 27.8C8.20003 28.2 8.30003 28.5 8.30003 28.9C8.30003 29.1 8.40003 29.2 8.50003 29.4C8.50003 29.5 8.60003 29.6 8.60003 29.7C8.70003 29.9 8.70003 30.1 8.80003 30.2H8.90003L17.8 28.3C17.9 28.3 17.9 28.3 18 28.3C18.1 28.3 18.1 28.3 18.2 28.3C18.3 28.3 18.4 28.3 18.4 28.3C18.7 28.2 19.1 28.2 19.4 28.2C22.3 28.3 24.6 30.2 25.2 33C25.8 35.8 26.4 38.7 27 41.6L27.2 42.3L31.2 41.5L31 40.8C30.4 38 29.8 35.1 29.2 32.2C28.6 29.3 30 26.7 32.6 25.4C32.9 25.3 33.2 25.1 33.6 25.1C33.7 25.1 33.8 25.1 33.8 25C33.9 25 33.9 25 34 24.9C34.1 24.9 34.1 24.9 34.2 24.8L43.1 22.9C43.1 22.9 43.1 22.9 43.2 22.8C43.2 22.6 43.2 22.4 43.2 22.2C43.2 22.1 43.2 22 43.2 21.9C43.2 21.8 43.2 21.7 43.2 21.6L43 20.5C42.7 20.1 42.6 19.8 42.5 19.4ZM26.5 27.8C26.4 27.8 26.3 27.9 26.1 27.9C26 27.9 25.9 27.9 25.8 27.9C23.9 28.2 22.2 26.9 21.8 25.1C21.4 23.1 22.6 21.2 24.6 20.8H24.8C26.8 20.4 28.7 21.6 29.1 23.6C29.4 25.4 28.3 27.3 26.5 27.8Z" fill="#0E0675"/>
<path d="M41.2001 16.2C41.1001 16.2 41.1 16.2 41 16.2C39.5 16.2 38 16.1 36.5 16.1C33.8 16 31.2001 15.9 28.5 16C24.4 16.1 20.5 17.2 16.9 19C14 20.4 11.1 21.8 8.20005 23.1C8.10005 23.2 8.00005 23.2 7.80005 23.2C8.00005 18 11.5 11.2 18.5 8.19999C18.5 8.19999 18.6 8.2 18.6 8.1C19.3 7.79999 20 7.59999 20.8 7.39999C30.3 4.79999 38.3001 10.3 41.2001 16.2Z" fill="#0E0675"/>
<path d="M24.7999 42.3C23.8999 42.2 23.0999 42.2 22.2999 42C18.7999 41.4 15.7999 39.9 13.2999 37.5C12.9999 37.2 12.8999 36.9 12.7999 36.4C12.5999 35 12.1999 33.5 11.9999 32.1C11.9999 32 11.9999 31.9 11.8999 31.8C11.9999 31.8 12.1999 31.7 12.2999 31.7C14.3999 31.3 16.4999 30.8 18.6999 30.4C20.5999 30 22.5999 31.3 22.9999 33.2C23.5999 36.1 24.1999 38.9 24.7999 41.8C24.7999 41.9 24.7999 42.1 24.7999 42.3Z" fill="#0E0675"/>
<path d="M41.9999 30.7C42.0999 31 41.9999 31.3 41.7999 31.6C40.0999 35.3 37.4999 38.2 33.9999 40.2C33.7999 40.3 33.5999 40.4 33.3999 40.5C33.2999 40.5 33.2999 40.5 33.1999 40.6L33.0999 40C32.4999 37.3 31.8999 34.5 31.3999 31.8C30.8999 29.6 32.1999 27.6 34.3999 27.2C36.3999 26.8 38.2999 26.4 40.2999 26C40.4999 26 40.6999 25.9 40.7999 25.9C40.9999 26.9 41.1999 27.9 41.3999 28.9C41.4999 29.4 41.5999 30 41.7999 30.5C41.9999 30.4 41.9999 30.5 41.9999 30.7Z" fill="#0E0675"/>
<path d="M26.9 24C27.1 24.8 26.6 25.5 25.8 25.7C25 25.8 24.3 25.4 24.1 24.6C23.9 23.8 24.4 23.1 25.2 22.9C26 22.7 26.7 23.2 26.9 24Z" fill="#0E0675"/>
<path d="M57.5 34.5L56.5 35.9L51.5999 30.6L51.2999 30.7C50.4999 31.5 49.6 32.1 48.7 32.4L55.2999 51L54.0999 52L46.7 35C46.7 35 46.6999 34.9 46.7999 34.9C46.8999 34.8 46.9 34.7 47 34.5C47.3 33.9 47.4999 33.2 47.7999 32.5C48.1999 31.5 48.5 30.4 48.7 29.3C49.4 26 49.5 22.5 48.9 19.2C48.9 19.1 48.8999 18.9 48.7999 18.8C48.7999 18.7 48.8 18.5 48.7 18.4L48.9 18C48.9 18 55.0999 24.2 53.2999 27.9L57.5 34.5Z" fill="#26D07C"/>
<path d="M48.6999 18.5C48.6999 18.6 48.7999 18.8 48.7999 18.9V19C48.7999 19.1 48.7999 19.2 48.7999 19.3C49.3999 22.6 49.2999 26.1 48.5999 29.4C48.3999 30.5 48.0999 31.5 47.6999 32.6C46.9999 32.7 46.1999 32.5 45.3999 32.1C44.6999 31.7 43.9999 31.2 43.1999 30.4C39.1999 26.2 41.0999 24.1 41.0999 24.1L45.7999 23.1L48.6999 18.5Z" fill="#83ECC3"/>
<path d="M47.7001 32.6C47.5001 33.3 47.2001 33.9 46.9001 34.6C46.8001 34.7 46.8001 34.8 46.7001 35C46.7001 35 46.7 35.1 46.6 35.1L45.3 32.2C46.3 32.5 47.0001 32.7 47.7001 32.6Z" fill="#83ECC3"/>
<path d="M10.8999 37.3C10.8999 37.4 10.7999 37.5 10.7999 37.7C10.4999 38.5 10.0999 39.1 9.6999 39.6C9.0999 40.4 8.2999 40.8 7.5999 41C6.7999 40.1 6.0999 39.2 5.3999 38.3C3.8999 36.2 2.7999 33.9 1.9999 31.5C1.8999 31.2 1.7999 31 1.7999 30.7C1.6999 30.5 1.6999 30.2 1.5999 30C1.4999 29.7 1.4999 29.4 1.3999 29.1V29C1.3999 28.9 1.4999 28.8 1.4999 28.8L6.0999 32L10.4999 31.1C10.2999 31 12.7999 32.1 10.8999 37.3Z" fill="#83ECC3"/>
<path d="M9.7001 39.6V43C9.5001 42.8 9.2001 42.6 9.0001 42.4C8.9001 42.3 8.8001 42.2 8.7001 42.2C8.6001 42.1 8.4001 42 8.3001 41.8C8.2001 41.7 8.1001 41.6 8.0001 41.5L7.9001 41.4C7.8001 41.3 7.7001 41.2 7.7001 41.2L7.6001 41.1C8.3001 40.8 9.1001 40.3 9.7001 39.6Z" fill="#83ECC3"/>
<path d="M9.69999 43L9.79999 60L8.39999 59.7L7.09999 41C6.19999 41.1 5.19999 40.9 4.19999 40.5H3.89999L1.59999 47L0.19999 46.2L1.29999 39C-1.40001 36.7 0.79999 30 1.29999 28.9V29C1.39999 29.3 1.39999 29.6 1.49999 29.9C1.59999 30.1 1.59999 30.4 1.69999 30.6C1.79999 30.9 1.79999 31.2 1.89999 31.4C2.69999 33.8 3.79999 36.1 5.29999 38.2C5.99999 39.1 6.69999 40 7.49999 40.9L7.59999 41C7.69999 41.1 7.69999 41.2 7.79999 41.2L7.89999 41.3C7.99999 41.4 8.09999 41.5 8.19999 41.6C8.29999 41.7 8.39999 41.8 8.59999 42C8.69999 42.1 8.79999 42.2 8.89999 42.2C9.19999 42.6 9.39999 42.8 9.69999 43Z" fill="#26D07C"/>
</g>
<defs>
<clipPath id="clip0">
<rect width="57.5" height="60" fill="white"/>
</clipPath>
</defs>
</svg>
