<svg width="54" height="59" viewBox="0 0 54 59" fill="none" xmlns="http://www.w3.org/2000/svg">
<g clip-path="url(#clip0)">
<rect width="53.4" height="58.8" fill="white"/>
<path d="M13.9 15.5C6.2 15.5 0 21.8 0 29.4C0 37 6.2 43.3 13.9 43.3C16.2 43.3 18.4 42.7 20.3 41.7V17.1C18.4 16.1 16.2 15.5 13.9 15.5ZM6.8 36.7C3 33.3 2.4 26.3 6.7 22.2C7.1 22.6 7.4 23 7.8 23.4C4.5 26.8 4.5 32 7.9 35.6C7.5 36 7.1 36.3 6.8 36.7ZM15.4 35.2C15 35.4 14.9 35.6 14.9 36C14.9 36.4 14.9 36.8 14.9 37.3H13.2C13.2 36.8 13.2 36.4 13.2 35.9C13.2 35.6 13.1 35.4 12.8 35.3C11.4 34.7 10.7 33.7 10.6 32.2H12.2C12.5 33.2 13 33.8 13.8 33.9C14.8 34 15.7 33.3 15.8 32.3C15.9 31.2 15.1 30.4 14.1 30.3C12.3 30.2 11 29.1 10.7 27.5C10.4 25.9 11.2 24.4 12.7 23.7C13.1 23.5 13.3 23.3 13.2 22.9C13.2 22.5 13.2 22.1 13.2 21.7H15C15 22.2 15 22.6 15 23.1C15 23.4 15.1 23.6 15.4 23.7C16.7 24.2 17.6 25.5 17.5 26.8H16.1C15.8 26.3 15.5 25.8 15.2 25.4C15 25.2 14.6 25.1 14.2 25C13.2 24.9 12.4 25.7 12.4 26.6C12.4 27.6 13.1 28.4 14.1 28.5C15.6 28.6 16.8 29.3 17.4 30.7C18 32.5 17.2 34.5 15.4 35.2Z" fill="#26D07C"/>
<path d="M21.5 22.1L20.4 23.2C22 25 22.9 27 22.9 29.4C22.9 31.8 22 33.8 20.4 35.5C20.8 35.9 21.2 36.3 21.5 36.7C25.8 32.5 25.3 25.7 21.5 22.1ZM42.2001 24.9C40.5 24.2 38.8 23.4 37.1 22.7C36.9 22.6 36.6001 22.6 36.4001 22.7C34.7001 23.4 32.9001 24.2 31.2001 24.9C30.9001 25 30.8 25.2 30.8 25.5C30.8 26.3 30.8 27.1 30.8 28C30.8 29.1 31.1 30.2 31.8 30.9C33.4 32.5 35.1 34.1 36.8 35.8C38.4 34.2 40 32.5 41.6 30.8C42 30.3 42.3001 29.6 42.4001 29C42.6001 27.9 42.5 26.7 42.6 25.6C42.7 25.2 42.5 25.1 42.2001 24.9ZM39.9001 28.6C39.1001 29.4 38.3 30.2 37.5 31C36.9 31.6 36.5001 31.5 35.9001 31C35.3001 30.4 34.7 29.8 34.1 29.2C34.6 28.7 35 28.3 35.5 27.8C35.9 28.2 36.2 28.7 36.6 29.2C37.7 28 38.7 27 39.8 25.9C40.3 26.4 40.7001 26.9 41.2001 27.4C40.9001 27.7 40.4001 28.1 39.9001 28.6ZM42.2001 24.9C40.5 24.2 38.8 23.4 37.1 22.7C36.9 22.6 36.6001 22.6 36.4001 22.7C34.7001 23.4 32.9001 24.2 31.2001 24.9C30.9001 25 30.8 25.2 30.8 25.5C30.8 26.3 30.8 27.1 30.8 28C30.8 29.1 31.1 30.2 31.8 30.9C33.4 32.5 35.1 34.1 36.8 35.8C38.4 34.2 40 32.5 41.6 30.8C42 30.3 42.3001 29.6 42.4001 29C42.6001 27.9 42.5 26.7 42.6 25.6C42.7 25.2 42.5 25.1 42.2001 24.9ZM39.9001 28.6C39.1001 29.4 38.3 30.2 37.5 31C36.9 31.6 36.5001 31.5 35.9001 31C35.3001 30.4 34.7 29.8 34.1 29.2C34.6 28.7 35 28.3 35.5 27.8C35.9 28.2 36.2 28.7 36.6 29.2C37.7 28 38.7 27 39.8 25.9C40.3 26.4 40.7001 26.9 41.2001 27.4C40.9001 27.7 40.4001 28.1 39.9001 28.6ZM42.2001 24.9C40.5 24.2 38.8 23.4 37.1 22.7C36.9 22.6 36.6001 22.6 36.4001 22.7C34.7001 23.4 32.9001 24.2 31.2001 24.9C30.9001 25 30.8 25.2 30.8 25.5C30.8 26.3 30.8 27.1 30.8 28C30.8 29.1 31.1 30.2 31.8 30.9C33.4 32.5 35.1 34.1 36.8 35.8C38.4 34.2 40 32.5 41.6 30.8C42 30.3 42.3001 29.6 42.4001 29C42.6001 27.9 42.5 26.7 42.6 25.6C42.7 25.2 42.5 25.1 42.2001 24.9ZM39.9001 28.6C39.1001 29.4 38.3 30.2 37.5 31C36.9 31.6 36.5001 31.5 35.9001 31C35.3001 30.4 34.7 29.8 34.1 29.2C34.6 28.7 35 28.3 35.5 27.8C35.9 28.2 36.2 28.7 36.6 29.2C37.7 28 38.7 27 39.8 25.9C40.3 26.4 40.7001 26.9 41.2001 27.4C40.9001 27.7 40.4001 28.1 39.9001 28.6ZM42.2001 24.9C40.5 24.2 38.8 23.4 37.1 22.7C36.9 22.6 36.6001 22.6 36.4001 22.7C34.7001 23.4 32.9001 24.2 31.2001 24.9C30.9001 25 30.8 25.2 30.8 25.5C30.8 26.3 30.8 27.1 30.8 28C30.8 29.1 31.1 30.2 31.8 30.9C33.4 32.5 35.1 34.1 36.8 35.8C38.4 34.2 40 32.5 41.6 30.8C42 30.3 42.3001 29.6 42.4001 29C42.6001 27.9 42.5 26.7 42.6 25.6C42.7 25.2 42.5 25.1 42.2001 24.9ZM39.9001 28.6C39.1001 29.4 38.3 30.2 37.5 31C36.9 31.6 36.5001 31.5 35.9001 31C35.3001 30.4 34.7 29.8 34.1 29.2C34.6 28.7 35 28.3 35.5 27.8C35.9 28.2 36.2 28.7 36.6 29.2C37.7 28 38.7 27 39.8 25.9C40.3 26.4 40.7001 26.9 41.2001 27.4C40.9001 27.7 40.4001 28.1 39.9001 28.6ZM50.9001 0H22.8C21.4 0 20.3 1.1 20.3 2.5V5.3H23.6C24.6 5.3 24.9 5.6 24.9 6.6C24.9 7.7 24.9 8.8 24.9 9.8C24.9 10.7 24.6001 11.1 23.7001 11.1H20.4V17.1C24.8 19.4 27.9 24.1 27.9 29.4C27.9 34.7 24.9 39.4 20.4 41.7V46.5H24.8V52.3H20.4V56.2C20.4 57.6 21.5 58.7 22.9 58.7H51C52.4001 58.7 53.5 57.6 53.5 56.2V2.5C53.4001 1.1 52.3001 0 50.9001 0ZM44.4001 29.3C44.2001 30.7 43.4 31.8 42.5 32.8C40.9 34.4 39.3001 36 37.7001 37.6C37 38.3 36.6001 38.3 35.9001 37.6C34.3001 36 32.7001 34.4 31.1 32.8C29.7001 31.4 29 29.7 29 27.6C29 26.6 29 25.6 29 24.7C29 24.1 29.2 23.7 29.8 23.5C31.9 22.6 34.1 21.7 36.2001 20.8C36.6 20.6 37.0001 20.6 37.4001 20.8C39.5001 21.7 41.7 22.7 43.8 23.6C44.4 23.8 44.6 24.2 44.6 24.8C44.6 25.4 44.6 25.9 44.6 26.5H44.7001C44.5 27.5 44.5001 28.4 44.4001 29.3ZM45.9001 3.6C45.8001 4 45.5 3.9 45.2001 3.9H36.6C33.8 3.9 31 3.9 28.1 3.9C27.7 3.9 27.5 3.8 27.4 3.4C27.3 2.9 27.2 2.5 27.1 1.9H46.2001C46.2001 2.5 46.0001 3 45.9001 3.6ZM42.2001 24.9C40.5 24.2 38.8 23.4 37.1 22.7C36.9 22.6 36.6001 22.6 36.4001 22.7C34.7001 23.4 32.9001 24.2 31.2001 24.9C30.9001 25 30.8 25.2 30.8 25.5C30.8 26.3 30.8 27.1 30.8 28C30.8 29.1 31.1 30.2 31.8 30.9C33.4 32.5 35.1 34.1 36.8 35.8C38.4 34.2 40 32.5 41.6 30.8C42 30.3 42.3001 29.6 42.4001 29C42.6001 27.9 42.5 26.7 42.6 25.6C42.7 25.2 42.5 25.1 42.2001 24.9ZM39.9001 28.6C39.1001 29.4 38.3 30.2 37.5 31C36.9 31.6 36.5001 31.5 35.9001 31C35.3001 30.4 34.7 29.8 34.1 29.2C34.6 28.7 35 28.3 35.5 27.8C35.9 28.2 36.2 28.7 36.6 29.2C37.7 28 38.7 27 39.8 25.9C40.3 26.4 40.7001 26.9 41.2001 27.4C40.9001 27.7 40.4001 28.1 39.9001 28.6ZM42.2001 24.9C40.5 24.2 38.8 23.4 37.1 22.7C36.9 22.6 36.6001 22.6 36.4001 22.7C34.7001 23.4 32.9001 24.2 31.2001 24.9C30.9001 25 30.8 25.2 30.8 25.5C30.8 26.3 30.8 27.1 30.8 28C30.8 29.1 31.1 30.2 31.8 30.9C33.4 32.5 35.1 34.1 36.8 35.8C38.4 34.2 40 32.5 41.6 30.8C42 30.3 42.3001 29.6 42.4001 29C42.6001 27.9 42.5 26.7 42.6 25.6C42.7 25.2 42.5 25.1 42.2001 24.9ZM39.9001 28.6C39.1001 29.4 38.3 30.2 37.5 31C36.9 31.6 36.5001 31.5 35.9001 31C35.3001 30.4 34.7 29.8 34.1 29.2C34.6 28.7 35 28.3 35.5 27.8C35.9 28.2 36.2 28.7 36.6 29.2C37.7 28 38.7 27 39.8 25.9C40.3 26.4 40.7001 26.9 41.2001 27.4C40.9001 27.7 40.4001 28.1 39.9001 28.6ZM42.2001 24.9C40.5 24.2 38.8 23.4 37.1 22.7C36.9 22.6 36.6001 22.6 36.4001 22.7C34.7001 23.4 32.9001 24.2 31.2001 24.9C30.9001 25 30.8 25.2 30.8 25.5C30.8 26.3 30.8 27.1 30.8 28C30.8 29.1 31.1 30.2 31.8 30.9C33.4 32.5 35.1 34.1 36.8 35.8C38.4 34.2 40 32.5 41.6 30.8C42 30.3 42.3001 29.6 42.4001 29C42.6001 27.9 42.5 26.7 42.6 25.6C42.7 25.2 42.5 25.1 42.2001 24.9ZM39.9001 28.6C39.1001 29.4 38.3 30.2 37.5 31C36.9 31.6 36.5001 31.5 35.9001 31C35.3001 30.4 34.7 29.8 34.1 29.2C34.6 28.7 35 28.3 35.5 27.8C35.9 28.2 36.2 28.7 36.6 29.2C37.7 28 38.7 27 39.8 25.9C40.3 26.4 40.7001 26.9 41.2001 27.4C40.9001 27.7 40.4001 28.1 39.9001 28.6ZM21.5 22.1L20.4 23.2C22 25 22.9 27 22.9 29.4C22.9 31.8 22 33.8 20.4 35.5C20.8 35.9 21.2 36.3 21.5 36.7C25.8 32.5 25.3 25.7 21.5 22.1Z" fill="#0E0675"/>
<path d="M20.3 17.1V41.7C24.7 39.4 27.7001 34.7 27.7001 29.4C27.7001 24.1 24.7 19.4 20.3 17.1ZM21.5 36.7C21.1 36.3 20.8 35.9 20.4 35.5C22 33.8 22.9 31.8 22.9 29.4C22.9 27 22 25 20.4 23.2C20.8 22.8 21.2 22.4 21.5 22.1C25.3 25.7 25.8 32.5 21.5 36.7Z" fill="#83ECC3"/>
<path d="M10 4.90001C10 4.20001 10 3.60001 10 3.00001C10 2.50001 9.90005 2.00001 9.40005 1.70001C8.80005 1.50001 8.40005 1.70001 8.10005 2.00001C6.00005 3.80001 3.90005 5.50001 1.90005 7.20001C1.10005 7.90001 1.10005 8.50001 1.90005 9.20001C4.00005 10.9 6.00005 12.6 8.10005 14.4C8.50005 14.7 8.90005 15 9.40005 14.7C9.90005 14.4 10.1 14 10 13.4C10 12.8 10 12.1 10 11.5H14.7V4.90001H10Z" fill="#26D07C"/>
<path d="M25.4 6.40002C25.4 7.60002 25.4 8.80002 25.4 10C25.4 11 25 11.4 24 11.4H20.3V4.90002H24C25.1 4.90002 25.4 5.30002 25.4 6.40002Z" fill="#83ECC3"/>
<path d="M20.2 4.90002H14.7V11.4H20.2V4.90002Z" fill="#26D07C"/>
<path d="M20.3 46V52.9H15.9C14.6 52.9 14.3 52.5 14.3 51.3C14.3 50.1 14.3 48.8 14.3 47.5C14.3 46.4 14.7 46 15.8 46H20.3Z" fill="#26D07C"/>
<path d="M25.5 46H20.3V52.9H25.5V46Z" fill="#83ECC3"/>
<path d="M39.1 50.4C36.9 52.2 34.7 54.1 32.5 55.9C32.1 56.2 31.7 56.4 31.2 56.2C30.7 55.9 30.5 55.5 30.5 54.9C30.5 54.2 30.5 53.6 30.5 52.8H25.5V46H30.5C30.5 45.2 30.5 44.6 30.5 43.9C30.5 43.4 30.7 42.9 31.2 42.7C31.7 42.4 32.1 42.7 32.5 43C34.7 44.8 36.9 46.7 39.1 48.5C39.9 49.1 39.9 49.8 39.1 50.4Z" fill="#83ECC3"/>
</g>
<defs>
<clipPath id="clip0">
<rect width="53.4" height="58.8" fill="white"/>
</clipPath>
</defs>
</svg>
