<svg width="54" height="59" viewBox="0 0 54 59" fill="none" xmlns="http://www.w3.org/2000/svg">
<g clip-path="url(#clip0)">
<path d="M13.9 15.5C6.2 15.5 0 21.8 0 29.4C0 37 6.2 43.3 13.9 43.3C16.2 43.3 18.4 42.7 20.3 41.7V17.1C18.4 16.1 16.2 15.5 13.9 15.5ZM6.8 36.7C3 33.3 2.4 26.3 6.7 22.2C7.1 22.6 7.4 23 7.8 23.4C4.5 26.8 4.5 32 7.9 35.6C7.5 36 7.1 36.3 6.8 36.7ZM15.4 35.2C15 35.4 14.9 35.6 14.9 36C14.9 36.4 14.9 36.8 14.9 37.3H13.2C13.2 36.8 13.2 36.4 13.2 35.9C13.2 35.6 13.1 35.4 12.8 35.3C11.4 34.7 10.7 33.7 10.6 32.2H12.2C12.5 33.2 13 33.8 13.8 33.9C14.8 34 15.7 33.3 15.8 32.3C15.9 31.2 15.1 30.4 14.1 30.3C12.3 30.2 11 29.1 10.7 27.5C10.4 25.9 11.2 24.4 12.7 23.7C13.1 23.5 13.3 23.3 13.2 22.9C13.2 22.5 13.2 22.1 13.2 21.7H15C15 22.2 15 22.6 15 23.1C15 23.4 15.1 23.6 15.4 23.7C16.7 24.2 17.6 25.5 17.5 26.8H16.1C15.8 26.3 15.5 25.8 15.2 25.4C15 25.2 14.6 25.1 14.2 25C13.2 24.9 12.4 25.7 12.4 26.6C12.4 27.6 13.1 28.4 14.1 28.5C15.6 28.6 16.8 29.3 17.4 30.7C18 32.5 17.2 34.5 15.4 35.2Z" fill="#83ECC3"/>
<path d="M21.5 22.1C21.1 22.5 20.7 22.8 20.4 23.2C22 25 22.9 27 22.9 29.4C22.9 31.8 22 33.8 20.4 35.5C20.8 35.9 21.1 36.3 21.5 36.7C25.8 32.5 25.3 25.7 21.5 22.1ZM42.2 24.9C40.5 24.2 38.7999 23.5 37.0999 22.8C36.8999 22.7 36.6 22.7 36.4 22.8C34.7 23.5 32.9 24.3 31.2 25C30.9 25.1 30.7999 25.3 30.7999 25.6C30.7999 26.4 30.7999 27.2 30.7999 28.1C30.7999 29.2 31.0999 30.3 31.7999 31C33.4 32.6 35.0999 34.2 36.7999 35.9C38.4 34.3 40.0999 32.6 41.5999 30.9C41.9999 30.4 42.3 29.7 42.4 29.1C42.6 28 42.4999 26.8 42.5999 25.7C42.6999 25.2 42.5 25.1 42.2 24.9ZM39.9 28.6C39.1 29.4 38.2999 30.2 37.5 31C36.9 31.6 36.5 31.5 35.9 31C35.3 30.4 34.6999 29.8 34.0999 29.2C34.5999 28.7 35 28.3 35.5 27.8C35.9 28.2 36.1999 28.7 36.5999 29.2C37.6999 28 38.6999 27 39.7999 25.9C40.2999 26.4 40.7 26.8 41.2 27.4C40.9 27.7 40.4 28.1 39.9 28.6ZM42.2 24.9C40.5 24.2 38.7999 23.5 37.0999 22.8C36.8999 22.7 36.6 22.7 36.4 22.8C34.7 23.5 32.9 24.3 31.2 25C30.9 25.1 30.7999 25.3 30.7999 25.6C30.7999 26.4 30.7999 27.2 30.7999 28.1C30.7999 29.2 31.0999 30.3 31.7999 31C33.4 32.6 35.0999 34.2 36.7999 35.9C38.4 34.3 40.0999 32.6 41.5999 30.9C41.9999 30.4 42.3 29.7 42.4 29.1C42.6 28 42.4999 26.8 42.5999 25.7C42.6999 25.2 42.5 25.1 42.2 24.9ZM39.9 28.6C39.1 29.4 38.2999 30.2 37.5 31C36.9 31.6 36.5 31.5 35.9 31C35.3 30.4 34.6999 29.8 34.0999 29.2C34.5999 28.7 35 28.3 35.5 27.8C35.9 28.2 36.1999 28.7 36.5999 29.2C37.6999 28 38.6999 27 39.7999 25.9C40.2999 26.4 40.7 26.8 41.2 27.4C40.9 27.7 40.4 28.1 39.9 28.6ZM50.9 0H22.7999C21.3999 0 20.2999 1.1 20.2999 2.5V5.3C22.9999 5.3 25.8 5.3 28.5 5.3C29.5 5.3 29.7999 5.6 29.7999 6.6C29.7999 7.7 29.7999 8.8 29.7999 9.8C29.7999 10.7 29.5 11.1 28.5 11.1C25.7 11.1 23 11.1 20.2 11.1V17.1C24.6 19.4 27.6 24.1 27.6 29.4C27.6 34.7 24.6 39.4 20.2 41.7V46.5H24.4C24.4 45.9 24.4 45.3 24.4 44.7C24.4 44.2 24.5 43.9 25 43.6C25.4 43.4 25.8 43.6 26.1 43.8C28 45.4 29.8 46.9 31.7 48.5C32.4 49.1 32.4 49.6 31.7 50.2C29.8 51.8 28 53.3 26.1 54.9C25.8 55.2 25.4 55.3 25 55.1C24.6 54.9 24.4 54.5 24.4 54C24.4 53.4 24.4 52.9 24.4 52.2H20.2V56.1C20.2 57.5 21.3 58.6 22.7 58.6H50.7999C52.1999 58.6 53.2999 57.5 53.2999 56.1V2.5C53.3999 1.1 52.3 0 50.9 0ZM44.4 29.4C44.2 30.8 43.5 31.9 42.5 32.9C40.9 34.5 39.3 36.1 37.7 37.7C37 38.4 36.6 38.4 35.9 37.7C34.3 36.1 32.7 34.5 31.1 32.9C29.7 31.5 29 29.7 29 27.7C29 26.7 29 25.7 29 24.8C29 24.2 29.1999 23.8 29.7999 23.6C31.9 22.7 34.1 21.8 36.2 20.9C36.6 20.7 37 20.7 37.4 20.9C39.5 21.8 41.6999 22.7 43.7999 23.6C44.4 23.8 44.5999 24.2 44.5999 24.8C44.5999 25.4 44.5999 25.9 44.5999 26.5C44.5999 26.5 44.6 26.5 44.7 26.5C44.5 27.4 44.5 28.4 44.4 29.4ZM45.9 3.6C45.8 4 45.5 3.9 45.2 3.9C42.3 3.9 39.4999 3.9 36.5999 3.9C33.7999 3.9 31 3.9 28.1 3.9C27.7 3.9 27.4999 3.8 27.4 3.4C27.3 2.9 27.2 2.5 27.1 1.9H46.2C46.2 2.5 46 3.1 45.9 3.6ZM42.2 24.9C40.5 24.2 38.7999 23.5 37.0999 22.8C36.8999 22.7 36.6 22.7 36.4 22.8C34.7 23.5 32.9 24.3 31.2 25C30.9 25.1 30.7999 25.3 30.7999 25.6C30.7999 26.4 30.7999 27.2 30.7999 28.1C30.7999 29.2 31.0999 30.3 31.7999 31C33.4 32.6 35.0999 34.2 36.7999 35.9C38.4 34.3 40.0999 32.6 41.5999 30.9C41.9999 30.4 42.3 29.7 42.4 29.1C42.6 28 42.4999 26.8 42.5999 25.7C42.6999 25.2 42.5 25.1 42.2 24.9ZM39.9 28.6C39.1 29.4 38.2999 30.2 37.5 31C36.9 31.6 36.5 31.5 35.9 31C35.3 30.4 34.6999 29.8 34.0999 29.2C34.5999 28.7 35 28.3 35.5 27.8C35.9 28.2 36.1999 28.7 36.5999 29.2C37.6999 28 38.6999 27 39.7999 25.9C40.2999 26.4 40.7 26.8 41.2 27.4C40.9 27.7 40.4 28.1 39.9 28.6ZM21.5 22.1C21.1 22.5 20.7 22.8 20.4 23.2C22 25 22.9 27 22.9 29.4C22.9 31.8 22 33.8 20.4 35.5C20.8 35.9 21.1 36.3 21.5 36.7C25.8 32.5 25.3 25.7 21.5 22.1Z" fill="#4A25AA"/>
<path d="M20.3 17.1V41.7C24.7 39.4 27.7001 34.7 27.7001 29.4C27.7001 24.1 24.7 19.4 20.3 17.1ZM21.5 36.7C21.1 36.3 20.8 35.9 20.4 35.5C22 33.8 22.9 31.8 22.9 29.4C22.9 27 22 25 20.4 23.2C20.8 22.8 21.2 22.4 21.5 22.1C25.3 25.7 25.8 32.5 21.5 36.7Z" fill="#26D07C"/>
<path d="M16.0999 5.3C16.0999 4.7 16.0999 4.1 16.0999 3.6C16.0999 3.1 15.9999 2.7 15.4999 2.5C14.9999 2.3 14.6999 2.5 14.2999 2.8C12.4999 4.3 10.5999 5.9 8.7999 7.4C8.0999 8 8.0999 8.5 8.7999 9.2C10.5999 10.7 12.4999 12.3 14.2999 13.8C14.5999 14.1 14.9999 14.3 15.4999 14.1C15.9999 13.9 16.0999 13.5 16.0999 13C16.0999 12.4 16.0999 11.9 16.0999 11.3H20.2999V5.3H16.0999Z" fill="#83ECC3"/>
<path d="M29.7999 9.79999C29.7999 10.7 29.5 11.1 28.5 11.1C25.7 11.1 23 11.1 20.2 11.1V5.29999C22.9 5.29999 25.7 5.29999 28.4 5.29999C29.4 5.29999 29.7 5.59999 29.7 6.59999C29.8 7.69999 29.7999 8.79999 29.7999 9.79999Z" fill="#26D07C"/>
<path d="M12 46.5C11.1 46.5 10.7 46.8 10.7 47.8C10.7 48.9 10.7 49.9 10.7 51C10.7 52.1 11 52.4 12.1 52.4C14.8 52.4 17.5 52.4 20.2 52.4V46.6C17.5 46.5 14.8 46.5 12 46.5Z" fill="#83ECC3"/>
<path d="M31.8 50.3C29.9 51.9 28.1001 53.4 26.2001 55C25.9001 55.3 25.5001 55.4 25.1 55.2C24.7 55 24.5 54.6 24.5 54.1C24.5 53.5 24.5 53 24.5 52.3H20.3V46.5H24.5C24.5 45.9 24.5 45.3 24.5 44.7C24.5 44.2 24.6 43.9 25.1 43.6C25.5001 43.4 25.9001 43.6 26.2001 43.8C28.1001 45.4 29.9 46.9 31.8 48.5C32.5 49.2 32.5 49.7 31.8 50.3Z" fill="#26D07C"/>
</g>
<defs>
<clipPath id="clip0">
<rect width="53.4" height="58.8" fill="white"/>
</clipPath>
</defs>
</svg>
