<svg width="81" height="99" viewBox="0 0 81 99" fill="none" xmlns="http://www.w3.org/2000/svg">
<path style="mix-blend-mode:multiply" d="M81 94.8566C81 97.146 62.8683 98.9999 40.5 98.9999C18.1318 98.9999 0 97.1367 0 94.8566C0 92.5765 18.1318 90.7156 40.5 90.7156C62.8683 90.7156 81 92.5695 81 94.8566Z" fill="url(#paint0_radial)"/>
<path d="M18.475 40.8861C18.1906 40.6186 18.0221 40.2483 18.0061 39.8558C17.9902 39.4632 18.1281 39.0802 18.3898 38.79L24.9771 31.57C25.2416 31.2823 25.6076 31.1119 25.9957 31.0957C26.3837 31.0796 26.7624 31.219 27.0493 31.4838L38.4855 42.1578C38.6241 42.288 38.7875 42.388 38.9659 42.4518C39.1442 42.5155 39.3335 42.5415 39.5222 42.5282C39.7108 42.5148 39.8948 42.4625 40.0626 42.3743C40.2304 42.2862 40.3786 42.1641 40.4979 42.0157L62.6382 14.6682C62.8856 14.3627 63.2429 14.169 63.6314 14.1297C64.0199 14.0904 64.408 14.2087 64.7104 14.4586L72.2279 20.6864C72.5296 20.9371 72.7206 21.2986 72.759 21.6916C72.7974 22.0846 72.6801 22.477 72.4328 22.7826L41.7895 60.6269C41.6704 60.7755 41.5224 60.8978 41.3546 60.9862C41.1869 61.0745 41.003 61.1271 40.8143 61.1406C40.6257 61.1542 40.4363 61.1284 40.2579 61.0649C40.0795 61.0013 39.9159 60.9014 39.7772 60.7713L18.475 40.8861Z" fill="#26D07C"/>
<path opacity="0.4" d="M40.5047 61.1301V42.0111C40.3854 42.1595 40.2373 42.2816 40.0694 42.3697C39.9016 42.4579 39.7177 42.5102 39.529 42.5236C39.3404 42.5369 39.151 42.5109 38.9727 42.4471C38.7944 42.3834 38.6309 42.2834 38.4924 42.1531L27.0561 31.4792C26.7692 31.2144 26.3906 31.075 26.0025 31.0911C25.6145 31.1072 25.2484 31.2777 24.9839 31.5654L18.3966 38.7854C18.1349 39.0756 17.997 39.4586 18.013 39.8512C18.0289 40.2437 18.1974 40.614 18.4818 40.8815L39.784 60.7667C39.9841 60.9564 40.2346 61.0827 40.5047 61.1301Z" fill="white"/>
<path fill-rule="evenodd" clip-rule="evenodd" d="M72.9898 31.6049L65.3917 40.9979C65.3917 44.1421 65.3917 46.4245 65.3917 46.9229V47.0091C65.47 53.9962 62.2558 66.8711 40.5253 76.7298C18.7511 66.8711 15.5484 53.9869 15.6244 47.0091V46.9229C15.6244 45.6373 15.6244 32.5528 15.6244 23.3136C15.6244 22.6894 15.6244 22.0838 15.6244 21.5016C25.4098 20.393 34.2143 16.8272 40.5161 11.5264C43.7649 14.2583 47.679 16.5291 52.0514 18.2409L57.1559 11.9316C49.5762 9.48846 43.5945 5.22168 40.5161 0C35.6234 8.29833 23.4021 14.1815 9.08776 14.1815C8.78844 14.1815 8.31874 14.1815 8.02173 14.1815C8.02173 14.773 8.03785 44.9479 8.03785 46.9322C7.93884 55.7616 11.7609 73.2829 40.5023 85.091C40.5044 85.0923 40.5068 85.0929 40.5092 85.0929C40.5117 85.0929 40.514 85.0923 40.5161 85.091C69.2599 73.2735 73.0888 55.7523 72.9829 46.9229C72.9829 45.996 72.9852 38.9367 72.9898 31.6049Z" fill="#0E0675"/>
<path opacity="0.4" d="M40.5046 76.7298C18.7511 66.8711 15.5484 53.9869 15.6244 47.0091V46.9229C15.6244 45.6373 15.6244 32.5528 15.6244 23.3136C15.6244 22.6894 15.6244 22.0838 15.6244 21.4993C25.4075 20.393 34.2143 16.8272 40.5161 11.5264V0C35.6234 8.29833 23.4021 14.1815 9.08776 14.1815C8.78844 14.1815 8.31874 14.1815 8.02173 14.1815C8.02173 14.773 8.03785 44.9479 8.03785 46.9322C7.93884 55.7616 11.7609 73.2805 40.5023 85.091L40.5046 76.7298Z" fill="white"/>
<defs>
<radialGradient id="paint0_radial" cx="0" cy="0" r="1" gradientUnits="userSpaceOnUse" gradientTransform="translate(40.3963 91.2321) scale(40.4965 4.16042)">
<stop stop-color="#D6D6D6"/>
<stop offset="0.9" stop-color="white"/>
</radialGradient>
</defs>
</svg>
